<svg id="SvgjsSvg1001" width="288" height="288" xmlns="http://www.w3.org/2000/svg" version="1.1" xmlns:xlink="http://www.w3.org/1999/xlink" xmlns:svgjs="http://svgjs.com/svgjs"><defs id="SvgjsDefs1002"></defs><g id="SvgjsG1008"><svg xmlns="http://www.w3.org/2000/svg" viewBox="0 0 24 24" width="288" height="288"><linearGradient id="a" x1="12" x2="12" y1="2" y2="22" gradientUnits="userSpaceOnUse"><stop offset="0" stop-color="#954c9d" class="svgShape stopColorf7d39f-1"></stop><stop offset="1" stop-color="#205fac" class="svgShape stopColor6798fc-2"></stop></linearGradient><path fill="url(#a)" fill-rule="evenodd" d="M12 9c-1.6569 0-3 1.3431-3 3s1.3431 3 3 3 3-1.3431 3-3-1.3431-3-3-3zm-5 3c0-2.76142 2.23858-5 5-5 2.7614 0 5 2.23858 5 5 0 2.7614-2.2386 5-5 5-2.76142 0-5-2.2386-5-5zM19 12c0-.5523.4477-1 1-1h1c.5523 0 1 .4477 1 1s-.4477 1-1 1h-1c-.5523 0-1-.4477-1-1zM2 12c0-.5523.44772-1 1-1h1c.55228 0 1 .4477 1 1s-.44772 1-1 1h-1c-.55228 0-1-.4477-1-1zM12 19c.5523 0 1 .4477 1 1v1c0 .5523-.4477 1-1 1s-1-.4477-1-1v-1c0-.5523.4477-1 1-1zM12 2c.5523 0 1 .44772 1 1v1c0 .55228-.4477 1-1 1s-1-.44772-1-1v-1c0-.55228.4477-1 1-1zM16.9497 16.9497c.3906-.3905 1.0237-.3905 1.4143 0l.7071.7072c.3905.3905.3905 1.0236 0 1.4142-.3906.3905-1.0237.3905-1.4142 0l-.7072-.7071c-.3905-.3906-.3905-1.0237 0-1.4143zM4.92893 4.92893c.39053-.39052 1.02369-.39052 1.41422 0l.7071.70711c.39053.39052.39053 1.02369 0 1.41421-.39052.39053-1.02369.39053-1.41421 0l-.70711-.7071c-.39052-.39053-.39052-1.02369 0-1.41422zM7.05025 16.9497c.39053.3906.39053 1.0237 0 1.4143l-.7071.7071c-.39053.3905-1.02369.3905-1.41422 0-.39052-.3906-.39052-1.0237 0-1.4142l.70711-.7072c.39052-.3905 1.02369-.3905 1.41421 0zM19.0711 4.92893c.3905.39053.3905 1.02369 0 1.41422l-.7071.7071c-.3906.39053-1.0237.39053-1.4143 0-.3905-.39052-.3905-1.02369 0-1.41421l.7072-.70711c.3905-.39052 1.0236-.39052 1.4142 0z" clip-rule="evenodd" class="svgShape colorgradient-3 selectable"></path></svg></g></svg>