<?xml version="1.0" encoding="UTF-8" standalone="no"?>
<!DOCTYPE svg PUBLIC "-//W3C//DTD SVG 1.1//EN" "http://www.w3.org/Graphics/SVG/1.1/DTD/svg11.dtd">
<svg width="100%" height="100%" viewBox="0 0 19 20" version="1.1" xmlns="http://www.w3.org/2000/svg" xmlns:xlink="http://www.w3.org/1999/xlink" xml:space="preserve" xmlns:serif="http://www.serif.com/" style="fill-rule:evenodd;clip-rule:evenodd;stroke-linejoin:round;stroke-miterlimit:2;">
    <g id="Layer_1-2">
        <path d="M18.61,4.97C18.57,4.91 18.5,4.89 18.44,4.92L13.69,7.15L17.99,0.22C18.03,0.16 18.02,0.08 17.97,0.03C17.92,-0.02 17.83,-0.01 17.78,0.04C16.06,1.95 13.17,5.16 11.74,6.73L12.08,2.4C12.09,2.33 12.05,2.26 11.98,2.25C11.91,2.23 11.84,2.26 11.82,2.33L9.63,7.67L8.57,5.65L8.51,5.49C8.49,5.43 8.43,5.4 8.37,5.41C8.31,5.41 8.26,5.46 8.25,5.52L7.64,9.03C7.64,9.03 7.57,9.08 7.54,9.11L0.22,2.69C0.17,2.64 0.09,2.65 0.04,2.69C-0.01,2.74 -0.02,2.81 0.02,2.87L2.13,5.72C2.56,6.33 2.99,6.93 3.42,7.53C4.16,8.55 4.94,9.64 5.73,10.7C5.52,10.92 5.3,11.14 5.09,11.38C3.51,13.14 2.41,15.02 1.95,16.57C1.55,17.91 1.62,19.01 2.26,19.59C2.55,19.85 2.92,19.98 3.37,20C5.08,20.07 7.77,18.49 10.11,15.87C10.33,15.63 10.53,15.38 10.73,15.14C10.87,14.96 11.01,14.79 11.14,14.61C11.14,14.61 12.95,15.79 13.37,16.09C13.53,16.21 13.74,16 13.62,15.84L11.93,13.45C11.99,13.36 12.05,13.26 12.1,13.17C12.15,13.09 12.2,13.01 12.24,12.93C12.29,12.85 12.33,12.77 12.37,12.69L17.21,12.07C17.32,12.07 17.42,11.99 17.44,11.88C17.47,11.75 17.38,11.63 17.25,11.6C16.5,11.45 13.19,10.82 13.19,10.82C13.19,10.79 13.22,10.74 13.22,10.74C13.3,10.49 13.36,10.25 13.4,10.02L18.53,5.17L18.56,5.15C18.61,5.11 18.63,5.03 18.59,4.97L18.61,4.97ZM7.32,9.28L7.62,9.54C7.62,9.54 7.71,9.58 7.75,9.57C7.8,9.55 7.83,9.51 7.84,9.47L7.95,8.81L8.43,6.05L9.37,8.41C9.39,8.46 9.44,8.49 9.49,8.49C9.55,8.49 9.59,8.46 9.62,8.41L9.91,7.69L11.57,3.63L10.83,7.74C10.83,7.74 10.83,7.83 10.87,7.87C10.91,7.9 10.96,7.91 11,7.9C11.02,7.9 11.04,7.89 11.68,7.19C12.32,6.5 13.56,5.13 16.01,2.4L12.32,7.35L11.82,8.03C11.82,8.03 11.79,8.1 11.8,8.14L11.8,8.15C11.8,8.19 11.84,8.22 11.87,8.24C11.91,8.26 11.95,8.26 11.99,8.24L17.42,5.69L11.06,10.51C10.91,10.61 10.97,10.87 11.15,10.9C11.57,10.98 14.47,11.56 15.04,11.67L10.64,11.8C10.49,11.8 10.39,11.99 10.48,12.11L12.69,15.19C11.95,14.67 9.14,12.67 9.14,12.67C9.09,12.63 9.01,12.64 8.96,12.68C8.8,12.84 8.77,12.85 8.73,12.87C8.68,12.89 8.62,12.92 8.48,13.02C8.48,13.02 8.46,13.04 8.45,13.05L5.77,16.52C5.77,16.52 6.76,14.27 6.87,14.01C6.92,13.89 6.97,13.78 7.02,13.67C7.07,13.57 7.11,13.46 7.16,13.37C7.18,13.32 7.18,13.26 7.15,13.21C7.15,13.2 7.13,13.19 7.12,13.18C7.07,13.13 7.04,13.07 7.02,12.99C6.97,12.72 7.06,12.43 7.15,12.16C7.17,12.1 7.16,12.04 7.12,11.99C6.71,11.42 1.12,3.96 1.12,3.96L0.96,3.74L7.29,9.3L7.32,9.28ZM4.5,12.75L6.74,13.12C6.76,13.19 6.8,13.26 6.85,13.32C6.8,13.43 6.76,13.55 6.71,13.67L3.75,13.81C4.06,13.31 4.5,12.75 4.5,12.75ZM2.54,19.29C2.29,19.06 2.14,18.71 2.12,18.24C2.09,17.69 2.22,17.03 2.48,16.31L6.49,14.22C6.43,14.37 6.37,14.52 6.31,14.67L5.16,17.34L3.66,19.6C3.19,19.63 2.81,19.53 2.55,19.3L2.54,19.29Z" style="fill:white;fill-rule:nonzero;"/>
    </g>
    <g id="Layer_1-2-2">
    </g>
</svg>
