<?xml version="1.0" encoding="UTF-8"?>
<svg id="Layer_1" data-name="Layer 1" xmlns="http://www.w3.org/2000/svg" xmlns:xlink="http://www.w3.org/1999/xlink" viewBox="0 0 185.71 80.43">
  <defs>
    <style>
      .cls-1, .cls-2 {
        fill: none;
      }

      .cls-3 {
        fill: #7e61a8;
      }

      .cls-4 {
        font-family: Helvetica, Helvetica;
        font-size: 7.34px;
      }

      .cls-4, .cls-5 {
        fill: #954c9d;
      }

      .cls-6 {
        fill: url(#linear-gradient);
      }

      .cls-7 {
        clip-path: url(#clippath-1);
      }

      .cls-2 {
        stroke: #010101;
        stroke-linecap: round;
        stroke-linejoin: round;
      }

      .cls-8 {
        fill: url(#New_Gradient_Swatch_1);
      }

      .cls-9 {
        clip-path: url(#clippath);
      }
    </style>
    <clipPath id="clippath">
      <path class="cls-1" d="M167.72,53.15c1.01-.12,1.74-.28,2.19-.46.81-.32,1.29-.82,1.44-1.49.17-.82,0-1.39-.5-1.71s-1.31-.47-2.42-.47c-1.24,0-2.19.31-2.84.92-.45.45-.83,1.07-1.12,1.84h-5.07c.49-1.76,1.29-3.2,2.4-4.33,1.77-1.77,4.35-2.66,7.73-2.66,2.2,0,4.06.44,5.59,1.31,1.52.87,2.03,2.52,1.51,4.94l-1.97,9.22c-.14.64-.28,1.41-.44,2.32-.11.69-.11,1.16,0,1.4.12.25.33.45.64.61l-.15.77h-5.72c-.07-.41-.1-.79-.09-1.14.01-.36.05-.76.11-1.22-.9.79-1.87,1.46-2.93,2.01-1.28.65-2.63.98-4.06.98-1.82,0-3.21-.52-4.18-1.56s-1.24-2.51-.84-4.42c.53-2.47,1.86-4.26,4-5.37,1.17-.6,2.8-1.03,4.89-1.29l1.83-.22ZM167.81,56.47l-1.22.22c-1.16.2-2,.44-2.54.72-.91.48-1.47,1.22-1.68,2.23-.2.9-.09,1.55.32,1.95.41.4.97.6,1.69.6,1.13,0,2.24-.33,3.34-1s1.85-1.87,2.27-3.63l.41-1.95c-.37.21-.74.38-1.11.51s-.86.25-1.48.36ZM179.4,41.06c0-1.78,1.4-3.1,3.25-3.1,1.74,0,3.06,1.32,3.06,3.1s-1.32,3.13-3.06,3.13c-1.85,0-3.25-1.32-3.25-3.13ZM179.67,47.29l5.78-.98v19.07h-5.78v-18.09ZM158.11,44.8c.06.01.2.02.42.04l-1.14,5.38c-.32-.04-.61-.06-.87-.07-.26-.01-.47-.02-.63-.02-2.11,0-3.68.69-4.7,2.07-.57.77-1.02,1.97-1.36,3.58l-2.03,9.61h-5.29l4.26-20.1h5.02l-.74,3.5c1.09-1.34,1.99-2.26,2.69-2.75,1.17-.82,2.54-1.24,4.11-1.24h.26ZM133.4,60.86c.43-.33.85-.79,1.27-1.38h5.37c-.39,1.19-1.27,2.4-2.64,3.63-2.14,1.95-4.76,2.93-7.86,2.93-2.56,0-4.64-.82-6.24-2.47-1.6-1.65-2.01-4.33-1.23-8.04.74-3.48,2.19-6.15,4.34-8,2.16-1.86,4.64-2.78,7.46-2.78,1.67,0,3.11.31,4.32.94s2.11,1.62,2.68,2.97c.54,1.19.76,2.58.65,4.15-.05.92-.27,2.25-.66,3.98h-13.76c-.36,2.02-.02,3.43,1,4.24.61.5,1.43.76,2.45.76,1.08,0,2.03-.31,2.84-.92ZM132.96,49.08c-1.22,0-2.24.38-3.07,1.14-.83.76-1.47,1.79-1.91,3.1h8.17c.21-1.39,0-2.44-.6-3.16s-1.47-1.08-2.59-1.08Z"/>
    </clipPath>
    <linearGradient id="linear-gradient" x1="128.41" y1="77.09" x2="179.25" y2="26.25" gradientUnits="userSpaceOnUse">
      <stop offset="0" stop-color="#2260ac"/>
      <stop offset=".22" stop-color="#365ca9"/>
      <stop offset=".67" stop-color="#6a53a2"/>
      <stop offset="1" stop-color="#954c9d"/>
    </linearGradient>
    <linearGradient id="New_Gradient_Swatch_1" data-name="New Gradient Swatch 1" x1="-.45" y1="27.58" x2="50.94" y2="27.58" gradientUnits="userSpaceOnUse">
      <stop offset="0" stop-color="#2260ac"/>
      <stop offset=".22" stop-color="#365ca9"/>
      <stop offset=".67" stop-color="#6a53a2"/>
      <stop offset="1" stop-color="#954c9d"/>
    </linearGradient>
    <clipPath id="clippath-1">
      <path class="cls-1" d="M167.72,53.15c1.01-.12,1.74-.28,2.19-.46.81-.32,1.29-.82,1.44-1.49.17-.82,0-1.39-.5-1.71s-1.31-.47-2.42-.47c-1.24,0-2.19.31-2.84.92-.45.45-.83,1.07-1.12,1.84h-5.07c.49-1.76,1.29-3.2,2.4-4.33,1.77-1.77,4.35-2.66,7.73-2.66,2.2,0,4.06.44,5.59,1.31,1.52.87,2.03,2.52,1.51,4.94l-1.97,9.22c-.14.64-.28,1.41-.44,2.32-.11.69-.11,1.16,0,1.4.12.25.33.45.64.61l-.15.77h-5.72c-.07-.41-.1-.79-.09-1.14.01-.36.05-.76.11-1.22-.9.79-1.87,1.46-2.93,2.01-1.28.65-2.63.98-4.06.98-1.82,0-3.21-.52-4.18-1.56s-1.24-2.51-.84-4.42c.53-2.47,1.86-4.26,4-5.37,1.17-.6,2.8-1.03,4.89-1.29l1.83-.22ZM167.81,56.47l-1.22.22c-1.16.2-2,.44-2.54.72-.91.48-1.47,1.22-1.68,2.23-.2.9-.09,1.55.32,1.95.41.4.97.6,1.69.6,1.13,0,2.24-.33,3.34-1s1.85-1.87,2.27-3.63l.41-1.95c-.37.21-.74.38-1.11.51s-.86.25-1.48.36ZM179.4,41.06c0-1.78,1.4-3.1,3.25-3.1,1.74,0,3.06,1.32,3.06,3.1s-1.32,3.13-3.06,3.13c-1.85,0-3.25-1.32-3.25-3.13ZM179.67,47.29l5.78-.98v19.07h-5.78v-18.09ZM158.11,44.8c.06.01.2.02.42.04l-1.14,5.38c-.32-.04-.61-.06-.87-.07-.26-.01-.47-.02-.63-.02-2.11,0-3.68.69-4.7,2.07-.57.77-1.02,1.97-1.36,3.58l-2.03,9.61h-5.29l4.26-20.1h5.02l-.74,3.5c1.09-1.34,1.99-2.26,2.69-2.75,1.17-.82,2.54-1.24,4.11-1.24h.26ZM133.4,60.86c.43-.33.85-.79,1.27-1.38h5.37c-.39,1.19-1.27,2.4-2.64,3.63-2.14,1.95-4.76,2.93-7.86,2.93-2.56,0-4.64-.82-6.24-2.47-1.6-1.65-2.01-4.33-1.23-8.04.74-3.48,2.19-6.15,4.34-8,2.16-1.86,4.64-2.78,7.46-2.78,1.67,0,3.11.31,4.32.94s2.11,1.62,2.68,2.97c.54,1.19.76,2.58.65,4.15-.05.92-.27,2.25-.66,3.98h-13.76c-.36,2.02-.02,3.43,1,4.24.61.5,1.43.76,2.45.76,1.08,0,2.03-.31,2.84-.92ZM132.96,49.08c-1.22,0-2.24.38-3.07,1.14-.83.76-1.47,1.79-1.91,3.1h8.17c.21-1.39,0-2.44-.6-3.16s-1.47-1.08-2.59-1.08Z"/>
    </clipPath>
  </defs>
  <g>
    <path class="cls-5" d="M51.9,65.38h-11.71v-27.18h11.71c1.68.02,3.09.22,4.2.59,1.91.63,3.45,1.78,4.63,3.45.95,1.35,1.59,2.82,1.94,4.39.34,1.57.52,3.07.52,4.5,0,3.61-.73,6.67-2.18,9.18-1.97,3.38-5,5.07-9.11,5.07ZM56.12,45.13c-.87-1.48-2.6-2.21-5.18-2.21h-5.24v17.74h5.24c2.68,0,4.55-1.32,5.61-3.96.58-1.45.87-3.18.87-5.18,0-2.77-.43-4.89-1.29-6.38Z"/>
    <path class="cls-5" d="M67.79,47.46c1.39-1.77,3.77-2.66,7.15-2.66,2.2,0,4.15.44,5.86,1.31,1.71.87,2.56,2.52,2.56,4.94v9.22c0,.64.01,1.41.04,2.32.04.69.14,1.16.31,1.4.17.25.43.45.77.61v.77h-5.72c-.16-.41-.27-.79-.33-1.14-.06-.36-.11-.76-.15-1.22-.73.79-1.56,1.46-2.51,2.01-1.13.65-2.41.98-3.84.98-1.82,0-3.32-.52-4.51-1.56-1.19-1.04-1.78-2.51-1.78-4.42,0-2.47.95-4.26,2.86-5.37,1.04-.6,2.58-1.03,4.61-1.29l1.79-.22c.97-.12,1.67-.28,2.08-.46.75-.32,1.12-.82,1.12-1.49,0-.82-.29-1.39-.86-1.71s-1.41-.47-2.52-.47c-1.24,0-2.12.31-2.64.92-.37.45-.61,1.07-.74,1.84h-5.07c.11-1.76.6-3.2,1.48-4.33ZM71.7,61.58c.49.41,1.09.61,1.81.61,1.13,0,2.17-.33,3.13-1,.95-.66,1.45-1.87,1.48-3.63v-1.95c-.33.21-.67.38-1,.51-.34.13-.8.25-1.39.36l-1.18.22c-1.11.2-1.9.44-2.38.72-.81.48-1.22,1.22-1.22,2.23,0,.9.25,1.54.76,1.94Z"/>
    <path class="cls-5" d="M97.22,61.64v3.93l-2.49.09c-2.48.09-4.18-.34-5.09-1.29-.59-.6-.89-1.53-.89-2.78v-12.37h-2.8v-3.74h2.8v-5.61h5.2v5.61h3.26v3.74h-3.26v10.62c0,.82.1,1.34.31,1.54.21.2.85.3,1.92.3.16,0,.33,0,.51,0,.18,0,.35-.02.53-.03Z"/>
    <path class="cls-5" d="M101.36,47.46c1.39-1.77,3.77-2.66,7.15-2.66,2.2,0,4.15.44,5.86,1.31,1.71.87,2.56,2.52,2.56,4.94v9.22c0,.64.01,1.41.04,2.32.04.69.14,1.16.31,1.4.17.25.43.45.77.61v.77h-5.72c-.16-.41-.27-.79-.33-1.14-.06-.36-.11-.76-.15-1.22-.73.79-1.56,1.46-2.51,2.01-1.13.65-2.41.98-3.84.98-1.82,0-3.32-.52-4.51-1.56-1.19-1.04-1.78-2.51-1.78-4.42,0-2.47.95-4.26,2.86-5.37,1.04-.6,2.58-1.03,4.61-1.29l1.79-.22c.97-.12,1.67-.28,2.08-.46.75-.32,1.12-.82,1.12-1.49,0-.82-.29-1.39-.86-1.71s-1.41-.47-2.52-.47c-1.24,0-2.12.31-2.64.92-.37.45-.61,1.07-.74,1.84h-5.07c.11-1.76.6-3.2,1.48-4.33ZM105.27,61.58c.49.41,1.09.61,1.81.61,1.13,0,2.17-.33,3.13-1,.95-.66,1.45-1.87,1.48-3.63v-1.95c-.33.21-.67.38-1,.51-.34.13-.8.25-1.39.36l-1.18.22c-1.11.2-1.9.44-2.38.72-.81.48-1.22,1.22-1.22,2.23,0,.9.25,1.54.76,1.94Z"/>
    <g class="cls-9">
      <g>
        <g>
          <rect class="cls-2" x="154.75" y="34.6" width="32.86" height="34.15"/>
          <rect class="cls-6" x="120.06" y="34.6" width="67.54" height="34.15"/>
          <g>
            <g>
              <g>
                <polygon class="cls-3" points="154.77 36.51 158.09 34.6 158.09 34.6 157.97 34.6 157.97 34.6 154.75 36.46 154.75 36.53 154.77 36.54 154.77 36.51"/>
                <path class="cls-3" d="M158.06,34.6h-.09l-3.23,1.86v3.86l3.31-1.91v-3.81ZM158,38.37l-3.23,1.86v-3.73l3.23-1.86v3.73Z"/>
                <polygon class="cls-3" points="154.77 36.48 154.75 36.46 154.75 40.32 154.77 40.34 154.77 36.48"/>
              </g>
              <g>
                <polygon class="cls-3" points="161.3 36.52 161.35 36.54 161.35 36.51 164.66 34.6 164.66 34.6 164.54 34.6 164.54 34.6 161.32 36.46 158.09 34.6 158.09 34.6 157.97 34.6 157.97 34.6 161.3 36.52"/>
                <path class="cls-3" d="M161.29,40.34l3.34-1.93v-3.81h-.09l-3.26,1.88v3.86ZM161.35,36.51l3.23-1.86v3.73l-3.23,1.86v-3.73Z"/>
                <path class="cls-3" d="M161.35,40.34v-3.86l-3.26-1.88h-.09v3.81l3.34,1.93ZM161.29,36.51v3.73l-3.23-1.86v-3.73l3.23,1.86Z"/>
              </g>
              <polygon class="cls-3" points="167.87 40.31 167.89 40.32 171.2 38.41 171.2 34.6 171.12 34.6 171.14 34.61 171.14 38.37 167.89 40.25 164.63 38.37 164.63 34.61 164.66 34.6 164.57 34.6 164.57 38.41 167.87 40.31"/>
              <g>
                <polygon class="cls-3" points="174.44 36.52 174.49 36.54 174.49 36.51 177.8 34.6 177.8 34.6 177.69 34.6 177.69 34.6 174.46 36.46 171.23 34.6 171.23 34.6 171.12 34.6 171.12 34.6 174.44 36.52"/>
                <path class="cls-3" d="M174.43,40.34l3.34-1.93v-3.81h-.09l-3.26,1.88v3.86ZM174.49,36.51l3.23-1.86v3.73l-3.23,1.86v-3.73Z"/>
                <path class="cls-3" d="M174.49,40.34v-3.86l-3.26-1.88h-.09v3.81l3.34,1.93ZM174.43,36.51v3.73l-3.23-1.86v-3.73l3.23,1.86Z"/>
              </g>
              <g>
                <polygon class="cls-3" points="181.02 36.52 181.06 36.54 181.06 36.51 184.37 34.6 184.37 34.6 184.26 34.6 184.26 34.6 181.03 36.46 177.8 34.6 177.8 34.6 177.69 34.6 177.69 34.6 181.02 36.52"/>
                <path class="cls-3" d="M181,40.34l3.34-1.93v-3.81h-.09l-3.26,1.88v3.86ZM181.06,36.51l3.23-1.86v3.73l-3.23,1.86v-3.73Z"/>
                <path class="cls-3" d="M181.02,40.31h0s.04,0,.04,0v-3.84l-3.26-1.88h-.09v3.81l3.3,1.91ZM181,36.51v3.73l-3.23-1.86v-3.73l3.23,1.86Z"/>
              </g>
              <g>
                <polygon class="cls-3" points="187.6 36.46 184.37 34.6 184.37 34.6 184.26 34.6 184.26 34.6 187.59 36.52 187.6 36.53 187.6 36.46 187.6 36.46"/>
                <path class="cls-3" d="M184.37,34.6h-.09v3.81l3.31,1.91v-3.86l-3.23-1.86ZM184.35,38.37v-3.73l3.23,1.86v3.73l-3.23-1.86Z"/>
              </g>
            </g>
            <g>
              <polygon class="cls-3" points="154.75 40.25 154.75 40.32 154.8 40.29 154.75 40.25"/>
              <polygon class="cls-3" points="154.77 40.24 154.75 40.25 154.75 44.12 154.77 44.1 154.77 40.24"/>
            </g>
            <g>
              <path class="cls-3" d="M158.06,42.24v-.03l3.31-1.91-3.33-1.92h-.01s-3.29,1.89-3.29,1.89v.07l3.27,1.89.04.03ZM158.03,38.42l3.23,1.86-3.23,1.86-3.23-1.86,3.23-1.86Z"/>
              <path class="cls-3" d="M158,46.03v-3.86l3.34-1.93v3.86l-3.34,1.93ZM158.06,42.2v3.73l3.23-1.86v-3.73l-3.23,1.86Z"/>
              <path class="cls-3" d="M158.06,42.17l-3.31-1.91v3.86l3.31,1.91v-3.86ZM158,45.93l-3.23-1.86v-3.73l3.23,1.86v3.73Z"/>
            </g>
            <g>
              <path class="cls-3" d="M164.63,42.24l-.04-.03-3.33-1.92,3.34-1.93h.01s3.33,1.93,3.33,1.93l-3.31,1.91v.03ZM161.37,40.29l3.23,1.86,3.23-1.86-3.23-1.86-3.23,1.86Z"/>
              <path class="cls-3" d="M164.57,46.03v-3.86l3.34-1.93v3.86l-3.34,1.93ZM164.63,42.2v3.73l3.23-1.86v-3.73l-3.23,1.86Z"/>
              <path class="cls-3" d="M164.63,46.03l-3.34-1.93v-3.86l3.34,1.93v3.86ZM161.35,44.06l3.23,1.86v-3.73l-3.23-1.86v3.73Z"/>
            </g>
            <g>
              <path class="cls-3" d="M171.2,42.24l-.04-.03-3.33-1.92,3.34-1.93h.01s3.33,1.93,3.33,1.93l-3.31,1.91v.03ZM167.95,40.29l3.23,1.86,3.23-1.86-3.23-1.86-3.23,1.86Z"/>
              <path class="cls-3" d="M171.14,46.03v-3.86l3.34-1.93v3.86l-3.34,1.93ZM171.2,42.2v3.73l3.23-1.86v-3.73l-3.23,1.86Z"/>
              <path class="cls-3" d="M171.2,46.03l-3.34-1.93v-3.86l3.34,1.93v3.86ZM167.92,44.07l3.23,1.86v-3.73l-3.23-1.86v3.73Z"/>
            </g>
            <path class="cls-3" d="M177.74,46.01h-.01s-3.3-1.91-3.3-1.91v-3.83l3.31-1.91h.01s3.3,1.91,3.3,1.91v3.83l-3.31,1.91ZM174.49,44.07l3.26,1.88,3.26-1.88v-3.76l-3.26-1.88-3.26,1.88v3.76Z"/>
            <g>
              <path class="cls-3" d="M184.32,38.36l-3.34,1.93,3.33,1.92.04.03v-.03l3.26-1.88v-.07l-3.27-1.89h-.01ZM184.32,42.15l-3.23-1.86,3.23-1.86,3.23,1.86-3.23,1.86Z"/>
              <path class="cls-3" d="M184.29,42.17v3.86l3.32-1.91v-3.86l-3.32,1.91ZM184.34,45.93v-3.73l3.23-1.86v3.73l-3.23,1.86Z"/>
              <path class="cls-3" d="M184.34,46.03l-3.34-1.93v-3.84h.04s3.3,1.91,3.3,1.91v3.86ZM181.06,44.07l3.23,1.86v-3.73l-3.23-1.86v3.73Z"/>
            </g>
            <g>
              <polygon class="cls-3" points="158.06 45.96 154.76 44.06 154.75 44.05 154.75 44.12 158 46 158 49.76 154.75 51.64 154.75 51.7 158.06 49.79 158.06 45.96"/>
              <g>
                <path class="cls-3" d="M161.35,47.93l-.04-.03-3.33-1.92,3.34-1.93h.01s3.33,1.93,3.33,1.93l-3.31,1.91v.03ZM158.09,45.98l3.23,1.86,3.23-1.86-3.23-1.86-3.23,1.86Z"/>
                <path class="cls-3" d="M161.29,51.72v-3.86l3.34-1.93v3.86l-3.34,1.93ZM161.35,47.89v3.73l3.23-1.86v-3.73l-3.23,1.86Z"/>
                <path class="cls-3" d="M161.35,51.72l-3.34-1.93v-3.86l3.34,1.93v3.86ZM158.06,49.76l3.23,1.86v-3.73l-3.23-1.86v3.73Z"/>
              </g>
              <path class="cls-3" d="M167.89,51.7h-.01s-3.3-1.91-3.3-1.91v-3.83l3.31-1.91h.01s3.3,1.91,3.3,1.91v3.83l-3.31,1.91ZM164.63,49.76l3.26,1.88,3.26-1.88v-3.76l-3.26-1.88-3.26,1.88v3.76Z"/>
              <g>
                <path class="cls-3" d="M174.46,47.91h-.01s-3.33-1.93-3.33-1.93l3.34-1.93h.01s3.33,1.93,3.33,1.93l-3.34,1.93ZM171.23,45.98l3.23,1.86,3.23-1.86-3.23-1.86-3.23,1.86Z"/>
                <path class="cls-3" d="M174.43,51.72v-3.86l3.34-1.93v3.86l-3.34,1.93ZM174.49,47.89v3.73l3.23-1.86v-3.73l-3.23,1.86Z"/>
                <path class="cls-3" d="M174.49,51.72l-3.34-1.93v-3.86l3.34,1.93v3.86ZM171.2,49.76l3.23,1.86v-3.73l-3.23-1.86v3.73Z"/>
              </g>
              <path class="cls-3" d="M181.03,51.7h-.01s-3.3-1.91-3.3-1.91v-3.83l3.31-1.91h.01s3.3,1.91,3.3,1.91v3.83l-3.31,1.91ZM177.77,49.76l3.26,1.88,3.26-1.88v-3.76l-3.26-1.88-3.26,1.88v3.76Z"/>
              <polygon class="cls-3" points="187.6 51.64 184.34 49.76 184.34 46 187.6 44.12 187.6 44.12 187.6 44.05 187.6 44.05 184.29 45.96 184.29 49.79 187.59 51.7 187.6 51.7 187.6 51.7 187.6 51.64 187.6 51.64"/>
            </g>
            <g>
              <g>
                <polygon class="cls-3" points="154.75 51.64 154.75 51.7 154.8 51.67 154.75 51.64"/>
                <polygon class="cls-3" points="154.77 51.62 154.75 51.64 154.75 55.5 154.77 55.48 154.77 51.62"/>
              </g>
              <g>
                <path class="cls-3" d="M158.03,53.6l3.34-1.93-3.33-1.92h-.01s-3.29,1.89-3.29,1.89v.07l3.27,1.89h.01ZM158.03,49.81l3.23,1.86-3.23,1.86-3.23-1.86,3.23-1.86Z"/>
                <path class="cls-3" d="M158,57.41v-3.86l3.34-1.93v3.86l-3.34,1.93ZM158.06,53.58v3.73l3.23-1.86v-3.73l-3.23,1.86Z"/>
                <path class="cls-3" d="M158.02,57.39h.04v-3.84l-3.31-1.91v3.86l3.27,1.89h0ZM158,57.31l-3.23-1.86v-3.73l3.23,1.86v3.73Z"/>
              </g>
              <path class="cls-3" d="M164.6,57.39h-.01s-3.3-1.91-3.3-1.91v-3.83l3.31-1.91h.01s3.3,1.91,3.3,1.91v3.83l-3.31,1.91ZM161.35,55.45l3.26,1.88,3.26-1.88v-3.76l-3.26-1.88-3.26,1.88v3.76Z"/>
              <g>
                <path class="cls-3" d="M171.17,53.6h-.01s-3.33-1.93-3.33-1.93l3.34-1.93h.01s3.33,1.93,3.33,1.93l-3.34,1.93ZM167.95,51.67l3.23,1.86,3.23-1.86-3.23-1.86-3.23,1.86Z"/>
                <path class="cls-3" d="M171.14,57.41v-3.86l3.34-1.93v3.86l-3.34,1.93ZM171.2,53.58v3.73l3.23-1.86v-3.73l-3.23,1.86Z"/>
                <path class="cls-3" d="M171.2,57.41l-3.34-1.93v-3.86l3.34,1.93v3.86ZM167.92,55.45l3.23,1.86v-3.73l-3.23-1.86v3.73Z"/>
              </g>
              <path class="cls-3" d="M177.74,57.39h-.01s-3.3-1.91-3.3-1.91v-3.83l3.31-1.91h.01s3.3,1.91,3.3,1.91v3.83l-3.31,1.91ZM174.49,55.45l3.26,1.88,3.26-1.88v-3.76l-3.26-1.88-3.26,1.88v3.76Z"/>
              <g>
                <path class="cls-3" d="M184.32,49.74l-3.34,1.93,3.33,1.92h.01s3.29-1.89,3.29-1.89v-.07l-3.27-1.89h-.01ZM184.32,53.53l-3.23-1.86,3.23-1.86,3.23,1.86-3.23,1.86Z"/>
                <path class="cls-3" d="M184.29,53.55v3.86l3.32-1.91v-3.86l-3.32,1.91ZM184.35,57.31v-3.73l3.23-1.86v3.73l-3.23,1.86Z"/>
                <path class="cls-3" d="M184.34,57.41l-3.34-1.93v-3.86l3.34,1.93v3.86ZM181.06,55.45l3.23,1.86v-3.73l-3.23-1.86v3.73Z"/>
              </g>
            </g>
            <g>
              <polygon class="cls-3" points="154.77 59.27 158.09 57.36 154.76 55.44 154.75 55.43 154.75 55.5 157.97 57.36 154.75 59.22 154.75 59.29 154.77 59.31 154.77 59.27"/>
              <path class="cls-3" d="M158.06,57.31l-3.31,1.91v3.86l3.31-1.91v-3.86ZM158,61.14l-3.23,1.86v-3.73l3.23-1.86v3.73Z"/>
              <polygon class="cls-3" points="154.77 59.24 154.75 59.22 154.75 63.09 154.77 63.1 154.77 59.24"/>
            </g>
            <g>
              <path class="cls-3" d="M161.32,63.08h-.02s-3.3-1.91-3.3-1.91v-3.84h.02l3.29-1.9h.01s3.3,1.91,3.3,1.91v3.83l-3.29,1.9h0s-.03.01-.03.01ZM158.06,61.14l3.26,1.88,3.26-1.88v-3.76l-3.26-1.88-3.26,1.88v3.76Z"/>
              <polygon class="cls-3" points="158 57.41 158 57.34 158.02 57.33 161.3 55.44 161.33 55.49 158 57.41"/>
              <polygon class="cls-3" points="161.29 63.1 161.29 63.03 161.3 63.03 164.59 61.13 164.62 61.18 164.61 61.18 161.29 63.1"/>
            </g>
            <g>
              <path class="cls-3" d="M167.89,59.29h-.01s-3.33-1.93-3.33-1.93l3.34-1.93h.01s3.33,1.93,3.33,1.93l-3.34,1.93ZM164.66,57.36l3.23,1.86,3.23-1.86-3.23-1.86-3.23,1.86Z"/>
              <path class="cls-3" d="M167.86,63.1v-3.86l3.34-1.93v3.86l-3.34,1.93ZM167.92,59.27v3.73l3.23-1.86v-3.73l-3.23,1.86Z"/>
              <path class="cls-3" d="M167.92,63.1l-3.34-1.93v-3.86l3.34,1.93v3.86ZM164.63,61.14l3.23,1.86v-3.73l-3.23-1.86v3.73Z"/>
            </g>
            <path class="cls-3" d="M174.46,63.09h-.01s-3.3-1.91-3.3-1.91v-3.83l3.31-1.91h.01s3.3,1.91,3.3,1.91v3.83l-3.31,1.91ZM171.2,61.14l3.26,1.88,3.26-1.88v-3.76l-3.26-1.88-3.26,1.88v3.76Z"/>
            <path class="cls-3" d="M181.03,63.09h-.01s-3.3-1.91-3.3-1.91v-3.83l3.31-1.91h.01s3.3,1.91,3.3,1.91v3.83l-3.31,1.91ZM177.77,61.14l3.26,1.88,3.26-1.88v-3.76l-3.26-1.88-3.26,1.88v3.76Z"/>
            <g>
              <polygon class="cls-3" points="187.6 59.22 184.37 57.36 187.6 55.5 187.6 55.5 187.6 55.43 187.6 55.43 184.26 57.36 187.59 59.28 187.6 59.29 187.6 59.22 187.6 59.22"/>
              <path class="cls-3" d="M184.29,57.31v3.86l3.32,1.91v-3.86l-3.32-1.91ZM184.34,61.14v-3.73l3.23,1.86v3.73l-3.23-1.86Z"/>
            </g>
            <g>
              <g>
                <polygon class="cls-3" points="154.75 63.02 154.75 63.08 154.8 63.05 154.75 63.02"/>
                <polygon class="cls-3" points="154.77 63 154.75 63.02 154.75 66.88 154.77 66.86 154.77 63"/>
              </g>
              <g>
                <path class="cls-3" d="M158.06,65v-.03l3.31-1.91-3.33-1.92h-.01s-3.28,1.89-3.28,1.89v.07l3.27,1.89.04.02ZM158.03,61.19l3.23,1.86-3.23,1.86-3.23-1.86,3.23-1.86Z"/>
                <path class="cls-3" d="M161.35,63l-3.34,1.93v3.81h.09l3.26-1.88v-3.86ZM161.29,66.83l-3.23,1.86v-3.73l3.23-1.86v3.73Z"/>
                <path class="cls-3" d="M154.75,63.02v3.86l3.23,1.86h.09v-3.81l-3.31-1.91ZM154.77,66.83v-3.73l3.23,1.86v3.73l-3.23-1.86Z"/>
              </g>
              <g>
                <path class="cls-3" d="M164.63,65l-.04-.02-3.3-1.91v-.03h.01s3.3-1.91,3.3-1.91h.01s3.33,1.93,3.33,1.93l-3.31,1.91v.03ZM161.37,63.05l3.23,1.86,3.23-1.86-3.23-1.86-3.23,1.86Z"/>
                <path class="cls-3" d="M167.92,63l-3.34,1.93v3.81h.09l3.26-1.88v-3.86ZM167.86,66.83l-3.23,1.86v-3.73l3.23-1.86v3.73Z"/>
                <path class="cls-3" d="M161.33,63.03h0s-.04,0-.04,0v3.84l3.26,1.88h.09v-3.81l-3.3-1.91ZM161.34,66.83v-3.73l3.23,1.86v3.73l-3.23-1.86Z"/>
              </g>
              <g>
                <path class="cls-3" d="M174.49,66.86v-3.83l-3.3-1.91h-.01s-3.31,1.91-3.31,1.91v3.83l3.26,1.88h.12l3.24-1.87h.01ZM174.43,66.83l-3.26,1.88-3.26-1.88v-3.76l3.26-1.88,3.26,1.88v3.76Z"/>
                <polygon class="cls-3" points="174.44 66.82 171.16 68.72 171.14 68.73 171.14 68.74 171.23 68.74 174.47 66.87 174.44 66.82"/>
              </g>
              <g>
                <path class="cls-3" d="M177.77,65l-.04-.02-3.33-1.92,3.34-1.93h.01s3.33,1.93,3.33,1.93l-3.31,1.91v.03ZM174.52,63.05l3.23,1.86,3.23-1.86-3.23-1.86-3.23,1.86Z"/>
                <path class="cls-3" d="M181.06,63l-3.34,1.93v3.81h.09l3.26-1.88v-3.86ZM181,66.83l-3.23,1.86v-3.73l3.23-1.86v3.73Z"/>
                <path class="cls-3" d="M174.43,63v3.86l3.26,1.88h.09v-3.81l-3.34-1.93ZM174.49,66.83v-3.73l3.23,1.86v3.73l-3.23-1.86Z"/>
              </g>
              <g>
                <path class="cls-3" d="M184.32,61.12l-3.34,1.93,3.33,1.92.04.02v-.03l3.26-1.88v-.07l-3.27-1.89h-.01ZM184.32,64.91l-3.23-1.86,3.23-1.86,3.23,1.86-3.23,1.86Z"/>
                <path class="cls-3" d="M184.29,64.93v3.81h.09l3.23-1.86v-3.86l-3.32,1.91ZM184.34,68.69v-3.73l3.23-1.86v3.73l-3.23,1.86Z"/>
                <path class="cls-3" d="M181,63v3.86l3.26,1.88h.09v-3.81l-3.34-1.93ZM181.06,66.83v-3.73l3.23,1.86v3.73l-3.23-1.86Z"/>
              </g>
            </g>
            <g>
              <g>
                <polygon class="cls-3" points="154.76 66.82 154.75 66.81 154.75 66.88 157.97 68.74 157.97 68.74 158.09 68.74 158.09 68.74 154.76 66.82"/>
                <polygon class="cls-3" points="157.97 68.74 158.06 68.74 158.06 68.69 157.97 68.74"/>
              </g>
              <g>
                <polygon class="cls-3" points="161.33 66.82 161.32 66.81 157.97 68.74 157.97 68.74 158.09 68.74 158.09 68.74 161.32 66.88 164.54 68.74 164.54 68.74 164.66 68.74 164.66 68.74 161.33 66.82"/>
                <polygon class="cls-3" points="164.54 68.74 164.63 68.74 164.63 68.69 164.54 68.74"/>
                <polygon class="cls-3" points="158 68.74 158.09 68.74 158 68.69 158 68.74"/>
              </g>
              <g>
                <polygon class="cls-3" points="167.9 66.82 167.89 66.81 164.59 68.71 164.57 68.71 164.57 68.74 164.66 68.74 167.89 66.88 171.11 68.74 171.2 68.74 171.2 68.73 167.9 66.82"/>
                <polygon class="cls-3" points="167.87 66.82 164.59 68.72 164.57 68.73 164.57 68.74 164.66 68.74 167.9 66.87 167.87 66.82"/>
              </g>
              <g>
                <polygon class="cls-3" points="174.47 66.82 174.46 66.81 171.16 68.72 171.14 68.73 171.14 68.74 171.23 68.74 171.23 68.74 174.46 66.88 177.69 68.74 177.69 68.74 177.8 68.74 177.8 68.74 174.47 66.82"/>
                <polygon class="cls-3" points="177.69 68.74 177.77 68.74 177.77 68.69 177.69 68.74"/>
                <polygon class="cls-3" points="171.18 68.71 171.14 68.71 171.14 68.74 171.23 68.74 171.19 68.72 171.18 68.71"/>
              </g>
              <g>
                <polygon class="cls-3" points="181.04 66.82 181.03 66.81 177.69 68.74 177.69 68.74 177.8 68.74 177.8 68.74 181.03 66.88 184.26 68.74 184.26 68.74 184.37 68.74 184.37 68.74 181.04 66.82"/>
                <polygon class="cls-3" points="184.26 68.74 184.34 68.74 184.34 68.69 184.26 68.74"/>
                <polygon class="cls-3" points="177.72 68.74 177.8 68.74 177.72 68.69 177.72 68.74"/>
              </g>
              <g>
                <polygon class="cls-3" points="184.37 68.74 187.6 66.88 187.6 66.88 187.6 66.81 187.6 66.81 184.26 68.74 184.26 68.74 184.37 68.74 184.37 68.74"/>
                <polygon class="cls-3" points="184.29 68.69 184.29 68.74 184.37 68.74 184.29 68.69"/>
              </g>
            </g>
            <g>
              <path class="cls-3" d="M169.88,51.94l-3.48-2.01v-4.02l3.48-2.01,3.48,2.01v4.02l-3.48,2.01ZM166.73,49.75l3.15,1.82,3.15-1.82v-3.64l-3.15-1.82-3.15,1.82v3.64Z"/>
              <path class="cls-3" d="M179.66,53.75l-3.43-1.98v-3.96l3.43-1.98,3.43,1.98v3.96l-3.43,1.98ZM176.46,51.64l3.2,1.85,3.2-1.85v-3.69l-3.2-1.85-3.2,1.85v3.69Z"/>
              <polygon class="cls-3" points="163.59 40.51 167.03 38.53 167.03 34.6 166.62 34.6 166.79 34.7 166.79 38.39 163.59 40.24 160.4 38.39 160.4 34.7 160.57 34.6 160.16 34.6 160.16 38.53 163.59 40.51"/>
              <polygon class="cls-3" points="163.59 66.73 160.16 68.71 160.16 68.74 160.57 68.74 163.59 67 166.62 68.74 167.03 68.74 167.03 68.71 163.59 66.73"/>
              <path class="cls-3" d="M176.35,48.01l-3.43-1.98v-3.96l3.43-1.98,3.43,1.98v3.96l-3.43,1.98ZM173.15,45.89l3.2,1.85,3.2-1.85v-3.69l-3.2-1.85-3.2,1.85v3.69Z"/>
              <path class="cls-3" d="M166.57,63.19l-3.43-1.98v-3.96l3.43-1.98,3.43,1.98v3.96l-3.43,1.98ZM163.37,61.07l3.2,1.85,3.2-1.85v-3.69l-3.2-1.85-3.2,1.85v3.69Z"/>
              <polygon class="cls-3" points="159.82 59.29 159.82 55.33 156.39 53.35 154.75 54.29 154.75 54.57 156.39 53.62 159.58 55.46 159.58 59.16 156.39 61 154.75 60.05 154.75 60.33 156.39 61.27 159.82 59.29"/>
              <path class="cls-3" d="M177.69,55.53l-3.43,1.98v3.96l3.43,1.98,3.43-1.98v-3.96l-3.43-1.98ZM177.57,55.87l.12-.07.12.07,2.96,1.71-2.96,1.71-.12.07-.12-.07-2.96-1.71,2.96-1.71ZM174.49,61.34v-3.56l2.96,1.71.12.07v3.56l-2.96-1.71-.12-.07ZM177.8,63.12v-3.56l.12-.07,2.96-1.71v3.56l-.12.07-2.96,1.71Z"/>
              <path class="cls-3" d="M163.14,49.45l-3.43,1.98v3.96l3.43,1.98,3.43-1.98v-3.96l-3.43-1.98ZM163.02,49.79l.12-.07.12.07,2.96,1.71-2.96,1.71-.12.07-.12-.07-2.96-1.71,2.96-1.71ZM159.94,55.26v-3.56l2.96,1.71.12.07v3.56l-2.96-1.71-.12-.07ZM163.25,57.04v-3.56l.12-.07,2.96-1.71v3.56l-.12.07-2.96,1.71Z"/>
            </g>
          </g>
        </g>
        <g>
          <g>
            <g>
              <polygon class="cls-3" points="121.98 36.56 125.29 34.65 125.29 34.65 125.17 34.65 125.17 34.65 121.95 36.51 121.95 36.58 121.98 36.59 121.98 36.56"/>
              <path class="cls-3" d="M125.26,34.65h-.09l-3.23,1.86v3.86l3.31-1.91v-3.81ZM125.2,38.42l-3.23,1.86v-3.73l3.23-1.86v3.73Z"/>
              <polygon class="cls-3" points="121.98 36.53 121.95 36.51 121.95 40.37 121.98 40.39 121.98 36.53"/>
            </g>
            <g>
              <polygon class="cls-3" points="128.5 36.57 128.55 36.59 128.55 36.56 131.86 34.65 131.86 34.65 131.75 34.65 131.75 34.65 128.52 36.51 125.29 34.65 125.29 34.65 125.17 34.65 125.17 34.65 128.5 36.57"/>
              <path class="cls-3" d="M128.49,40.39l3.34-1.93v-3.81h-.09l-3.26,1.88v3.86ZM128.55,36.56l3.23-1.86v3.73l-3.23,1.86v-3.73Z"/>
              <path class="cls-3" d="M128.55,40.39v-3.86l-3.26-1.88h-.09v3.81l3.34,1.93ZM128.49,36.56v3.73l-3.23-1.86v-3.73l3.23,1.86Z"/>
            </g>
            <polygon class="cls-3" points="135.07 40.36 135.09 40.37 138.4 38.46 138.4 34.65 138.32 34.65 138.35 34.66 138.35 38.42 135.09 40.3 131.83 38.42 131.83 34.66 131.86 34.65 131.77 34.65 131.77 38.46 135.07 40.36"/>
            <g>
              <polygon class="cls-3" points="141.65 36.57 141.69 36.59 141.69 36.56 145 34.65 145 34.65 144.89 34.65 144.89 34.65 141.66 36.51 138.43 34.65 138.43 34.65 138.32 34.65 138.32 34.65 141.65 36.57"/>
              <path class="cls-3" d="M141.63,40.39l3.34-1.93v-3.81h-.09l-3.26,1.88v3.86ZM141.69,36.56l3.23-1.86v3.73l-3.23,1.86v-3.73Z"/>
              <path class="cls-3" d="M141.69,40.39v-3.86l-3.26-1.88h-.09v3.81l3.34,1.93ZM141.63,36.56v3.73l-3.23-1.86v-3.73l3.23,1.86Z"/>
            </g>
            <g>
              <polygon class="cls-3" points="148.22 36.57 148.26 36.59 148.26 36.56 151.58 34.65 151.58 34.65 151.46 34.65 151.46 34.65 148.23 36.51 145 34.65 145 34.65 144.89 34.65 144.89 34.65 148.22 36.57"/>
              <path class="cls-3" d="M148.2,40.39l3.34-1.93v-3.81h-.09l-3.26,1.88v3.86ZM148.26,36.56l3.23-1.86v3.73l-3.23,1.86v-3.73Z"/>
              <path class="cls-3" d="M148.22,40.36h0s.04,0,.04,0v-3.84l-3.26-1.88h-.09v3.81l3.3,1.91ZM148.2,36.56v3.73l-3.23-1.86v-3.73l3.23,1.86Z"/>
            </g>
            <g>
              <polygon class="cls-3" points="154.8 36.51 151.58 34.65 151.58 34.65 151.46 34.65 151.46 34.65 154.79 36.57 154.8 36.58 154.8 36.51 154.8 36.51"/>
              <polygon class="cls-3" points="154.77 36.53 154.77 40.39 154.8 40.37 154.8 36.51 154.77 36.53"/>
              <path class="cls-3" d="M151.58,34.65h-.09v3.81l3.31,1.91v-3.86l-3.23-1.86ZM151.55,38.42v-3.73l3.23,1.86v3.73l-3.23-1.86Z"/>
            </g>
          </g>
          <g>
            <polygon class="cls-3" points="121.95 40.3 121.95 40.37 122.01 40.34 121.95 40.3"/>
            <polygon class="cls-3" points="121.98 40.29 121.95 40.3 121.95 44.17 121.98 44.15 121.98 40.29"/>
          </g>
          <g>
            <path class="cls-3" d="M125.26,42.29v-.03l3.31-1.91-3.33-1.92h-.01s-3.29,1.89-3.29,1.89v.07l3.27,1.89.04.03ZM125.23,38.48l3.23,1.86-3.23,1.86-3.23-1.86,3.23-1.86Z"/>
            <path class="cls-3" d="M125.2,46.08v-3.86l3.34-1.93v3.86l-3.34,1.93ZM125.26,42.25v3.73l3.23-1.86v-3.73l-3.23,1.86Z"/>
            <path class="cls-3" d="M125.26,42.22l-3.31-1.91v3.86l3.31,1.91v-3.86ZM125.2,45.98l-3.23-1.86v-3.73l3.23,1.86v3.73Z"/>
          </g>
          <g>
            <path class="cls-3" d="M131.83,42.29l-.04-.03-3.33-1.92,3.34-1.93h.01s3.33,1.93,3.33,1.93l-3.31,1.91v.03ZM128.58,40.34l3.23,1.86,3.23-1.86-3.23-1.86-3.23,1.86Z"/>
            <path class="cls-3" d="M131.77,46.08v-3.86l3.34-1.93v3.86l-3.34,1.93ZM131.83,42.25v3.73l3.23-1.86v-3.73l-3.23,1.86Z"/>
            <path class="cls-3" d="M131.83,46.08l-3.34-1.93v-3.86l3.34,1.93v3.86ZM128.55,44.12l3.23,1.86v-3.73l-3.23-1.86v3.73Z"/>
          </g>
          <g>
            <path class="cls-3" d="M138.4,42.29l-.04-.03-3.33-1.92,3.34-1.93h.01s3.33,1.93,3.33,1.93l-3.31,1.91v.03ZM135.15,40.34l3.23,1.86,3.23-1.86-3.23-1.86-3.23,1.86Z"/>
            <path class="cls-3" d="M138.35,46.08v-3.86l3.34-1.93v3.86l-3.34,1.93ZM138.4,42.25v3.73l3.23-1.86v-3.73l-3.23,1.86Z"/>
            <path class="cls-3" d="M138.4,46.08l-3.34-1.93v-3.86l3.34,1.93v3.86ZM135.12,44.12l3.23,1.86v-3.73l-3.23-1.86v3.73Z"/>
          </g>
          <path class="cls-3" d="M144.95,46.06h-.01s-3.3-1.91-3.3-1.91v-3.83l3.31-1.91h.01s3.3,1.91,3.3,1.91v3.83l-3.31,1.91ZM141.69,44.12l3.26,1.88,3.26-1.88v-3.76l-3.26-1.88-3.26,1.88v3.76Z"/>
          <g>
            <path class="cls-3" d="M151.52,38.41l-3.34,1.93,3.33,1.92.04.03v-.03l3.26-1.88v-.07l-3.27-1.89h-.01ZM151.52,42.2l-3.23-1.86,3.23-1.86,3.23,1.86-3.23,1.86Z"/>
            <path class="cls-3" d="M151.49,42.22v3.86l3.32-1.91v-3.86l-3.32,1.91ZM151.55,45.98v-3.73l3.23-1.86v3.73l-3.23,1.86Z"/>
            <path class="cls-3" d="M151.55,46.08l-3.34-1.93v-3.84h.04s3.3,1.91,3.3,1.91v3.86ZM148.26,44.12l3.23,1.86v-3.73l-3.23-1.86v3.73Z"/>
          </g>
          <g>
            <polygon class="cls-3" points="154.74 40.34 154.8 40.37 154.8 40.3 154.74 40.34"/>
            <polygon class="cls-3" points="154.77 40.31 154.77 44.15 154.8 44.17 154.8 40.31 154.77 40.31"/>
          </g>
          <g>
            <polygon class="cls-3" points="125.26 46.01 121.96 44.11 121.95 44.1 121.95 44.17 125.2 46.05 125.2 49.81 121.95 51.69 121.95 51.75 125.26 49.84 125.26 46.01"/>
            <g>
              <path class="cls-3" d="M128.55,47.98l-.04-.03-3.33-1.92,3.34-1.93h.01s3.33,1.93,3.33,1.93l-3.31,1.91v.03ZM125.29,46.03l3.23,1.86,3.23-1.86-3.23-1.86-3.23,1.86Z"/>
              <path class="cls-3" d="M128.49,51.77v-3.86l3.34-1.93v3.86l-3.34,1.93ZM128.55,47.94v3.73l3.23-1.86v-3.73l-3.23,1.86Z"/>
              <path class="cls-3" d="M128.55,51.77l-3.34-1.93v-3.86l3.34,1.93v3.86ZM125.26,49.81l3.23,1.86v-3.73l-3.23-1.86v3.73Z"/>
            </g>
            <path class="cls-3" d="M135.09,51.75h-.01s-3.3-1.91-3.3-1.91v-3.83l3.31-1.91h.01s3.3,1.91,3.3,1.91v3.83l-3.31,1.91ZM131.83,49.81l3.26,1.88,3.26-1.88v-3.76l-3.26-1.88-3.26,1.88v3.76Z"/>
            <g>
              <path class="cls-3" d="M141.66,47.96h-.01s-3.33-1.93-3.33-1.93l3.34-1.93h.01s3.33,1.93,3.33,1.93l-3.34,1.93ZM138.43,46.03l3.23,1.86,3.23-1.86-3.23-1.86-3.23,1.86Z"/>
              <path class="cls-3" d="M141.63,51.77v-3.86l3.34-1.93v3.86l-3.34,1.93ZM141.69,47.94v3.73l3.23-1.86v-3.73l-3.23,1.86Z"/>
              <path class="cls-3" d="M141.69,51.77l-3.34-1.93v-3.86l3.34,1.93v3.86ZM138.4,49.81l3.23,1.86v-3.73l-3.23-1.86v3.73Z"/>
            </g>
            <path class="cls-3" d="M148.23,51.75h-.01s-3.3-1.91-3.3-1.91v-3.83l3.31-1.91h.01s3.3,1.91,3.3,1.91v3.83l-3.31,1.91ZM144.98,49.81l3.26,1.88,3.26-1.88v-3.76l-3.26-1.88-3.26,1.88v3.76Z"/>
            <polygon class="cls-3" points="154.8 51.69 151.55 49.81 151.55 46.05 154.8 44.17 154.8 44.17 154.8 44.1 154.8 44.1 151.49 46.01 151.49 49.84 154.79 51.75 154.8 51.75 154.8 51.75 154.8 51.69 154.8 51.69"/>
          </g>
          <g>
            <g>
              <polygon class="cls-3" points="121.95 51.69 121.95 51.75 122.01 51.72 121.95 51.69"/>
              <polygon class="cls-3" points="121.98 51.67 121.95 51.69 121.95 55.55 121.98 55.53 121.98 51.67"/>
            </g>
            <g>
              <path class="cls-3" d="M125.23,53.65l3.34-1.93-3.33-1.92h-.01s-3.29,1.89-3.29,1.89v.07l3.27,1.89h.01ZM125.23,49.86l3.23,1.86-3.23,1.86-3.23-1.86,3.23-1.86Z"/>
              <path class="cls-3" d="M125.2,57.46v-3.86l3.34-1.93v3.86l-3.34,1.93ZM125.26,53.63v3.73l3.23-1.86v-3.73l-3.23,1.86Z"/>
              <path class="cls-3" d="M125.22,57.44h.04v-3.84l-3.31-1.91v3.86l3.27,1.89h0ZM125.2,57.36l-3.23-1.86v-3.73l3.23,1.86v3.73Z"/>
            </g>
            <path class="cls-3" d="M131.8,57.44h-.01s-3.3-1.91-3.3-1.91v-3.83l3.31-1.91h.01s3.3,1.91,3.3,1.91v3.83l-3.31,1.91ZM128.55,55.5l3.26,1.88,3.26-1.88v-3.76l-3.26-1.88-3.26,1.88v3.76Z"/>
            <g>
              <path class="cls-3" d="M138.37,53.65h-.01s-3.33-1.93-3.33-1.93l3.34-1.93h.01s3.33,1.93,3.33,1.93l-3.34,1.93ZM135.15,51.72l3.23,1.86,3.23-1.86-3.23-1.86-3.23,1.86Z"/>
              <path class="cls-3" d="M138.35,57.46v-3.86l3.34-1.93v3.86l-3.34,1.93ZM138.4,53.63v3.73l3.23-1.86v-3.73l-3.23,1.86Z"/>
              <path class="cls-3" d="M138.4,57.46l-3.34-1.93v-3.86l3.34,1.93v3.86ZM135.12,55.5l3.23,1.86v-3.73l-3.23-1.86v3.73Z"/>
            </g>
            <path class="cls-3" d="M144.95,57.44h-.01s-3.3-1.91-3.3-1.91v-3.83l3.31-1.91h.01s3.3,1.91,3.3,1.91v3.83l-3.31,1.91ZM141.69,55.5l3.26,1.88,3.26-1.88v-3.76l-3.26-1.88-3.26,1.88v3.76Z"/>
            <g>
              <path class="cls-3" d="M151.52,49.79l-3.34,1.93,3.33,1.92h.01s3.29-1.89,3.29-1.89v-.07l-3.27-1.89h-.01ZM151.52,53.58l-3.23-1.86,3.23-1.86,3.23,1.86-3.23,1.86Z"/>
              <path class="cls-3" d="M151.49,53.6v3.86l3.32-1.91v-3.86l-3.32,1.91ZM151.55,57.36v-3.73l3.23-1.86v3.73l-3.23,1.86Z"/>
              <path class="cls-3" d="M151.55,57.46l-3.34-1.93v-3.86l3.34,1.93v3.86ZM148.26,55.5l3.23,1.86v-3.73l-3.23-1.86v3.73Z"/>
            </g>
            <g>
              <polygon class="cls-3" points="154.74 51.72 154.8 51.75 154.8 51.69 154.74 51.72"/>
              <polygon class="cls-3" points="154.77 51.67 154.77 55.53 154.8 55.55 154.8 51.69 154.77 51.67"/>
            </g>
          </g>
          <g>
            <polygon class="cls-3" points="121.98 59.32 125.29 57.41 121.96 55.49 121.95 55.48 121.95 55.55 125.17 57.41 121.95 59.27 121.95 59.34 121.98 59.36 121.98 59.32"/>
            <path class="cls-3" d="M125.26,57.36l-3.31,1.91v3.86l3.31-1.91v-3.86ZM125.2,61.19l-3.23,1.86v-3.73l3.23-1.86v3.73Z"/>
            <polygon class="cls-3" points="121.98 59.29 121.95 59.27 121.95 63.14 121.98 63.15 121.98 59.29"/>
          </g>
          <g>
            <path class="cls-3" d="M128.52,63.13h-.02s-3.3-1.91-3.3-1.91v-3.84h.02l3.29-1.9h.01s3.3,1.91,3.3,1.91v3.83l-3.29,1.9h0s-.03.01-.03.01ZM125.26,61.19l3.26,1.88,3.26-1.88v-3.76l-3.26-1.88-3.26,1.88v3.76Z"/>
            <polygon class="cls-3" points="125.2 57.46 125.2 57.39 125.22 57.39 128.5 55.49 128.53 55.54 125.2 57.46"/>
            <polygon class="cls-3" points="128.49 63.15 128.49 63.09 128.5 63.08 131.79 61.18 131.82 61.23 131.81 61.23 128.49 63.15"/>
          </g>
          <g>
            <path class="cls-3" d="M135.09,59.34h-.01s-3.33-1.93-3.33-1.93l3.34-1.93h.01s3.33,1.93,3.33,1.93l-3.34,1.93ZM131.86,57.41l3.23,1.86,3.23-1.86-3.23-1.86-3.23,1.86Z"/>
            <path class="cls-3" d="M135.06,63.15v-3.86l3.34-1.93v3.86l-3.34,1.93ZM135.12,59.33v3.73l3.23-1.86v-3.73l-3.23,1.86Z"/>
            <path class="cls-3" d="M135.12,63.15l-3.34-1.93v-3.86l3.34,1.93v3.86ZM131.83,61.19l3.23,1.86v-3.73l-3.23-1.86v3.73Z"/>
          </g>
          <path class="cls-3" d="M141.66,63.14h-.01s-3.3-1.91-3.3-1.91v-3.83l3.31-1.91h.01s3.3,1.91,3.3,1.91v3.83l-3.31,1.91ZM138.4,61.19l3.26,1.88,3.26-1.88v-3.76l-3.26-1.88-3.26,1.88v3.76Z"/>
          <path class="cls-3" d="M148.23,63.14h-.01s-3.3-1.91-3.3-1.91v-3.83l3.31-1.91h.01s3.3,1.91,3.3,1.91v3.83l-3.31,1.91ZM144.98,61.19l3.26,1.88,3.26-1.88v-3.76l-3.26-1.88-3.26,1.88v3.76Z"/>
          <g>
            <polygon class="cls-3" points="154.8 59.27 151.58 57.41 154.8 55.55 154.8 55.55 154.8 55.48 154.8 55.48 151.46 57.41 154.79 59.33 154.8 59.34 154.8 59.27 154.8 59.27"/>
            <polygon class="cls-3" points="154.77 59.29 154.77 63.15 154.8 63.14 154.8 59.27 154.77 59.29"/>
            <path class="cls-3" d="M151.49,57.36v3.86l3.32,1.91v-3.86l-3.32-1.91ZM151.55,61.19v-3.73l3.23,1.86v3.73l-3.23-1.86Z"/>
          </g>
          <g>
            <g>
              <polygon class="cls-3" points="121.95 63.07 121.95 63.14 122 63.1 121.95 63.07"/>
              <polygon class="cls-3" points="121.98 63.05 121.95 63.07 121.95 66.93 121.98 66.91 121.98 63.05"/>
            </g>
            <g>
              <path class="cls-3" d="M125.26,65.05v-.03l3.31-1.91-3.33-1.92h-.01s-3.28,1.89-3.28,1.89v.07l3.27,1.89.04.02ZM125.23,61.24l3.23,1.86-3.23,1.86-3.23-1.86,3.23-1.86Z"/>
              <path class="cls-3" d="M128.55,63.05l-3.34,1.93v3.81h.09l3.26-1.88v-3.86ZM128.49,66.88l-3.23,1.86v-3.73l3.23-1.86v3.73Z"/>
              <path class="cls-3" d="M121.95,63.07v3.86l3.23,1.86h.09v-3.81l-3.31-1.91ZM121.98,66.88v-3.73l3.23,1.86v3.73l-3.23-1.86Z"/>
            </g>
            <g>
              <path class="cls-3" d="M131.83,65.05l-.04-.02-3.3-1.91v-.03h.01s3.3-1.91,3.3-1.91h.01s3.33,1.93,3.33,1.93l-3.31,1.91v.03ZM128.58,63.1l3.23,1.86,3.23-1.86-3.23-1.86-3.23,1.86Z"/>
              <path class="cls-3" d="M135.12,63.05l-3.34,1.93v3.81h.09l3.26-1.88v-3.86ZM135.06,66.88l-3.23,1.86v-3.73l3.23-1.86v3.73Z"/>
              <path class="cls-3" d="M128.53,63.08h0s-.04,0-.04,0v3.84l3.26,1.88h.09v-3.81l-3.3-1.91ZM128.55,66.88v-3.73l3.23,1.86v3.73l-3.23-1.86Z"/>
            </g>
            <g>
              <path class="cls-3" d="M141.69,66.91v-3.83l-3.3-1.91h-.01s-3.31,1.91-3.31,1.91v3.83l3.26,1.88h.12l3.24-1.87h.01ZM141.63,66.88l-3.26,1.88-3.26-1.88v-3.76l3.26-1.88,3.26,1.88v3.76Z"/>
              <polygon class="cls-3" points="141.65 66.87 138.36 68.77 138.35 68.78 138.35 68.79 138.43 68.79 141.68 66.92 141.65 66.87"/>
            </g>
            <g>
              <path class="cls-3" d="M144.98,65.05l-.04-.02-3.33-1.92,3.34-1.93h.01s3.33,1.93,3.33,1.93l-3.31,1.91v.03ZM141.72,63.1l3.23,1.86,3.23-1.86-3.23-1.86-3.23,1.86Z"/>
              <path class="cls-3" d="M148.26,63.05l-3.34,1.93v3.81h.09l3.26-1.88v-3.86ZM148.2,66.88l-3.23,1.86v-3.73l3.23-1.86v3.73Z"/>
              <path class="cls-3" d="M141.63,63.05v3.86l3.26,1.88h.09v-3.81l-3.34-1.93ZM141.69,66.88v-3.73l3.23,1.86v3.73l-3.23-1.86Z"/>
            </g>
            <g>
              <path class="cls-3" d="M151.52,61.17l-3.34,1.93,3.33,1.92.04.02v-.03l3.26-1.88v-.07l-3.27-1.89h-.01ZM151.52,64.97l-3.23-1.86,3.23-1.86,3.23,1.86-3.23,1.86Z"/>
              <path class="cls-3" d="M151.49,64.98v3.81h.09l3.23-1.86v-3.86l-3.32,1.91ZM151.55,68.74v-3.73l3.23-1.86v3.73l-3.23,1.86Z"/>
              <path class="cls-3" d="M148.2,63.05v3.86l3.26,1.88h.09v-3.81l-3.34-1.93ZM148.26,66.88v-3.73l3.23,1.86v3.73l-3.23-1.86Z"/>
            </g>
            <polygon class="cls-3" points="154.77 63.09 154.77 66.91 154.8 66.93 154.8 63.07 154.77 63.09"/>
          </g>
          <g>
            <g>
              <polygon class="cls-3" points="121.96 66.87 121.95 66.86 121.95 66.93 125.17 68.79 125.17 68.79 125.29 68.79 125.29 68.79 121.96 66.87"/>
              <polygon class="cls-3" points="125.17 68.79 125.26 68.79 125.26 68.74 125.17 68.79"/>
            </g>
            <g>
              <polygon class="cls-3" points="128.53 66.87 128.52 66.86 125.17 68.79 125.17 68.79 125.29 68.79 125.29 68.79 128.52 66.93 131.74 68.79 131.74 68.79 131.86 68.79 131.86 68.79 128.53 66.87"/>
              <polygon class="cls-3" points="131.74 68.79 131.83 68.79 131.83 68.74 131.74 68.79"/>
              <polygon class="cls-3" points="125.2 68.79 125.29 68.79 125.2 68.74 125.2 68.79"/>
            </g>
            <g>
              <polygon class="cls-3" points="135.1 66.87 135.09 66.86 131.8 68.76 131.77 68.76 131.77 68.79 131.86 68.79 135.09 66.93 138.32 68.79 138.4 68.79 138.4 68.78 135.1 66.87"/>
              <polygon class="cls-3" points="135.07 66.87 131.79 68.77 131.77 68.78 131.77 68.79 131.86 68.79 135.1 66.92 135.07 66.87"/>
            </g>
            <g>
              <polygon class="cls-3" points="141.68 66.87 141.66 66.86 138.36 68.77 138.35 68.78 138.35 68.79 138.43 68.79 138.43 68.79 141.66 66.93 144.89 68.79 144.89 68.79 145 68.79 145 68.79 141.68 66.87"/>
              <polygon class="cls-3" points="144.89 68.79 144.98 68.79 144.98 68.74 144.89 68.79"/>
              <polygon class="cls-3" points="138.38 68.76 138.35 68.76 138.35 68.79 138.43 68.79 138.39 68.77 138.38 68.76"/>
            </g>
            <g>
              <polygon class="cls-3" points="148.25 66.87 148.23 66.86 144.89 68.79 144.89 68.79 145 68.79 145 68.79 148.23 66.93 151.46 68.79 151.46 68.79 151.58 68.79 151.58 68.79 148.25 66.87"/>
              <polygon class="cls-3" points="151.46 68.79 151.55 68.79 151.55 68.74 151.46 68.79"/>
              <polygon class="cls-3" points="144.92 68.79 145 68.79 144.92 68.74 144.92 68.79"/>
            </g>
            <g>
              <polygon class="cls-3" points="151.58 68.79 154.8 66.93 154.8 66.93 154.8 66.86 154.8 66.86 151.46 68.79 151.46 68.79 151.58 68.79 151.58 68.79"/>
              <polygon class="cls-3" points="151.49 68.74 151.49 68.79 151.58 68.79 151.49 68.74"/>
            </g>
          </g>
          <g>
            <path class="cls-3" d="M137.09,51.99l-3.48-2.01v-4.02l3.48-2.01,3.48,2.01v4.02l-3.48,2.01ZM133.93,49.8l3.15,1.82,3.15-1.82v-3.64l-3.15-1.82-3.15,1.82v3.64Z"/>
            <path class="cls-3" d="M146.86,53.8l-3.43-1.98v-3.96l3.43-1.98,3.43,1.98v3.96l-3.43,1.98ZM143.67,51.69l3.2,1.85,3.2-1.85v-3.69l-3.2-1.85-3.2,1.85v3.69Z"/>
            <polygon class="cls-3" points="130.8 40.56 134.23 38.58 134.23 34.65 133.82 34.65 133.99 34.75 133.99 38.44 130.8 40.29 127.6 38.44 127.6 34.75 127.77 34.65 127.36 34.65 127.36 38.58 130.8 40.56"/>
            <polygon class="cls-3" points="130.8 66.78 127.36 68.76 127.36 68.79 127.77 68.79 130.8 67.05 133.82 68.79 134.23 68.79 134.23 68.76 130.8 66.78"/>
            <path class="cls-3" d="M143.55,48.06l-3.43-1.98v-3.96l3.43-1.98,3.43,1.98v3.96l-3.43,1.98ZM140.35,45.94l3.2,1.85,3.2-1.85v-3.69l-3.2-1.85-3.2,1.85v3.69Z"/>
            <path class="cls-3" d="M133.77,63.24l-3.43-1.98v-3.96l3.43-1.98,3.43,1.98v3.96l-3.43,1.98ZM130.57,61.12l3.2,1.85,3.2-1.85v-3.69l-3.2-1.85-3.2,1.85v3.69Z"/>
            <polygon class="cls-3" points="127.02 59.34 127.02 55.38 123.59 53.4 121.95 54.34 121.95 54.62 123.59 53.67 126.79 55.51 126.79 59.21 123.59 61.05 121.95 60.1 121.95 60.38 123.59 61.32 127.02 59.34"/>
            <polygon class="cls-3" points="153.25 59.21 153.25 55.51 154.8 54.62 154.8 54.34 153.01 55.38 153.01 59.34 154.8 60.38 154.8 60.1 153.25 59.21"/>
            <path class="cls-3" d="M144.89,55.58l-3.43,1.98v3.96l3.43,1.98,3.43-1.98v-3.96l-3.43-1.98ZM144.77,55.92l.12-.07.12.07,2.96,1.71-2.96,1.71-.12.07-.12-.07-2.96-1.71,2.96-1.71ZM141.69,61.39v-3.56l2.96,1.71.12.07v3.56l-2.96-1.71-.12-.07ZM145.01,63.17v-3.56l.12-.07,2.96-1.71v3.56l-.12.07-2.96,1.71Z"/>
            <path class="cls-3" d="M130.34,49.5l-3.43,1.98v3.96l3.43,1.98,3.43-1.98v-3.96l-3.43-1.98ZM130.22,49.84l.12-.07.12.07,2.96,1.71-2.96,1.71-.12.07-.12-.07-2.96-1.71,2.96-1.71ZM127.14,55.31v-3.56l2.96,1.71.12.07v3.56l-2.96-1.71-.12-.07ZM130.45,57.09v-3.56l.12-.07,2.96-1.71v3.56l-.12.07-2.96,1.71Z"/>
          </g>
        </g>
      </g>
    </g>
    <text class="cls-4" transform="translate(86.52 76.9)"><tspan x="0" y="0">Building Collective Intelligence</tspan></text>
    <g id="Layer_1-2" data-name="Layer 1-2">
      <path class="cls-8" d="M51.33,13.7c-.1-.16-.31-.22-.48-.14l-13.1,6.15L49.62.6c.12-.16.09-.38-.06-.51s-.38-.11-.52.04c-4.75,5.28-12.72,14.13-16.66,18.46l.95-11.94c.03-.19-.08-.37-.26-.43-.18-.05-.38.04-.45.22l-6.03,14.73-2.93-5.57-.17-.43c-.06-.15-.22-.25-.38-.23-.17.02-.3.14-.33.31l-1.69,9.68c-.09.07-.19.14-.28.21L.62,7.41c-.14-.12-.36-.12-.5,0-.14.13-.16.34-.05.5l5.82,7.87c1.18,1.67,2.37,3.34,3.56,5,2.03,2.82,4.2,5.83,6.36,8.74-.59.6-1.18,1.22-1.76,1.87-4.35,4.87-7.38,10.04-8.66,14.31-1.11,3.71-.91,6.74.86,8.33.79.7,1.83,1.07,3.05,1.13,4.7.2,12.14-4.17,18.59-11.38.6-.67,1.17-1.34,1.72-2.02.39-.49.77-.97,1.13-1.46,0,0,5,3.24,6.16,4.09.45.33,1.01-.25.69-.69l-4.66-6.59c.17-.26.32-.52.48-.78.14-.22.27-.45.39-.67.13-.22.25-.44.37-.66l13.34-1.71c.3,0,.57-.22.63-.53.07-.36-.16-.7-.52-.77-2.06-.41-11.19-2.16-11.19-2.16.02-.07.07-.23.07-.23.21-.68.38-1.35.5-1.98l14.15-13.38.08-.06c.15-.12.19-.33.09-.49h0ZM20.19,25.59l.81.71c.1.09.24.12.37.07.13-.04.22-.15.24-.29l.32-1.81,1.33-7.62,2.6,6.5c.05.14.19.23.34.23h0c.15,0,.29-.09.35-.23l.81-1.99,4.58-11.19-2.04,11.34c-.02.13.02.26.12.35.1.08.24.11.36.07.06-.02.11-.04,1.88-1.97,1.75-1.91,5.18-5.69,11.95-13.21l-10.17,13.67-1.39,1.87c-.06.08-.08.19-.07.29,0,0,0,.02,0,.03.02.11.1.21.2.26.1.05.22.05.33,0l14.97-7.03-17.55,13.28c-.41.29-.26,1,.25,1.08,1.16.23,9.17,1.83,10.73,2.13l-12.14.36c-.42,0-.69.52-.43.86l6.11,8.49c-2.05-1.45-9.79-6.94-9.79-6.94-.15-.11-.35-.09-.48.04-.43.43-.52.46-.64.51-.13.05-.31.12-.7.41-.03.02-.05.04-.07.07l-7.4,9.56s2.72-6.21,3.04-6.93c.14-.32.29-.64.43-.94.13-.29.26-.57.38-.84.06-.14.05-.3-.04-.43-.02-.03-.05-.06-.08-.09-.13-.13-.22-.3-.27-.52-.14-.76.1-1.54.35-2.29.05-.15.03-.33-.07-.47-1.12-1.57-16.54-22.14-16.54-22.14l-.44-.6,17.45,15.32h0ZM12.4,35.16l6.19,1.02c.07.19.17.38.3.55-.13.31-.26.64-.4.97l-8.15.38c.86-1.39,2.06-2.92,2.06-2.92ZM7.01,53.19c-.7-.63-1.09-1.61-1.17-2.91-.08-1.51.27-3.34.98-5.33h0l11.05-5.76c-.16.4-.33.81-.5,1.23l-3.18,7.38-4.13,6.22c-1.3.08-2.34-.2-3.05-.83Z"/>
    </g>
  </g>
  <g>
    <path class="cls-5" d="M51.9,65.38h-11.71v-27.18h11.71c1.68.02,3.09.22,4.2.59,1.91.63,3.45,1.78,4.63,3.45.95,1.35,1.59,2.82,1.94,4.39.34,1.57.52,3.07.52,4.5,0,3.61-.73,6.67-2.18,9.18-1.97,3.38-5,5.07-9.11,5.07ZM56.12,45.13c-.87-1.48-2.6-2.21-5.18-2.21h-5.24v17.74h5.24c2.68,0,4.55-1.32,5.61-3.96.58-1.45.87-3.18.87-5.18,0-2.77-.43-4.89-1.29-6.38Z"/>
    <path class="cls-5" d="M67.79,47.46c1.39-1.77,3.77-2.66,7.15-2.66,2.2,0,4.15.44,5.86,1.31,1.71.87,2.56,2.52,2.56,4.94v9.22c0,.64.01,1.41.04,2.32.04.69.14,1.16.31,1.4.17.25.43.45.77.61v.77h-5.72c-.16-.41-.27-.79-.33-1.14-.06-.36-.11-.76-.15-1.22-.73.79-1.56,1.46-2.51,2.01-1.13.65-2.41.98-3.84.98-1.82,0-3.32-.52-4.51-1.56-1.19-1.04-1.78-2.51-1.78-4.42,0-2.47.95-4.26,2.86-5.37,1.04-.6,2.58-1.03,4.61-1.29l1.79-.22c.97-.12,1.67-.28,2.08-.46.75-.32,1.12-.82,1.12-1.49,0-.82-.29-1.39-.86-1.71s-1.41-.47-2.52-.47c-1.24,0-2.12.31-2.64.92-.37.45-.61,1.07-.74,1.84h-5.07c.11-1.76.6-3.2,1.48-4.33ZM71.7,61.58c.49.41,1.09.61,1.81.61,1.13,0,2.17-.33,3.13-1,.95-.66,1.45-1.87,1.48-3.63v-1.95c-.33.21-.67.38-1,.51-.34.13-.8.25-1.39.36l-1.18.22c-1.11.2-1.9.44-2.38.72-.81.48-1.22,1.22-1.22,2.23,0,.9.25,1.54.76,1.94Z"/>
    <path class="cls-5" d="M97.22,61.64v3.93l-2.49.09c-2.48.09-4.18-.34-5.09-1.29-.59-.6-.89-1.53-.89-2.78v-12.37h-2.8v-3.74h2.8v-5.61h5.2v5.61h3.26v3.74h-3.26v10.62c0,.82.1,1.34.31,1.54.21.2.85.3,1.92.3.16,0,.33,0,.51,0,.18,0,.35-.02.53-.03Z"/>
    <path class="cls-5" d="M101.36,47.46c1.39-1.77,3.77-2.66,7.15-2.66,2.2,0,4.15.44,5.86,1.31,1.71.87,2.56,2.52,2.56,4.94v9.22c0,.64.01,1.41.04,2.32.04.69.14,1.16.31,1.4.17.25.43.45.77.61v.77h-5.72c-.16-.41-.27-.79-.33-1.14-.06-.36-.11-.76-.15-1.22-.73.79-1.56,1.46-2.51,2.01-1.13.65-2.41.98-3.84.98-1.82,0-3.32-.52-4.51-1.56-1.19-1.04-1.78-2.51-1.78-4.42,0-2.47.95-4.26,2.86-5.37,1.04-.6,2.58-1.03,4.61-1.29l1.79-.22c.97-.12,1.67-.28,2.08-.46.75-.32,1.12-.82,1.12-1.49,0-.82-.29-1.39-.86-1.71s-1.41-.47-2.52-.47c-1.24,0-2.12.31-2.64.92-.37.45-.61,1.07-.74,1.84h-5.07c.11-1.76.6-3.2,1.48-4.33ZM105.27,61.58c.49.41,1.09.61,1.81.61,1.13,0,2.17-.33,3.13-1,.95-.66,1.45-1.87,1.48-3.63v-1.95c-.33.21-.67.38-1,.51-.34.13-.8.25-1.39.36l-1.18.22c-1.11.2-1.9.44-2.38.72-.81.48-1.22,1.22-1.22,2.23,0,.9.25,1.54.76,1.94Z"/>
    <g class="cls-7">
      <g>
        <g>
          <rect class="cls-2" x="154.75" y="34.6" width="32.86" height="34.15"/>
          <rect class="cls-6" x="120.06" y="34.6" width="67.54" height="34.15"/>
          <g>
            <g>
              <g>
                <polygon class="cls-3" points="154.77 36.51 158.09 34.6 158.09 34.6 157.97 34.6 157.97 34.6 154.75 36.46 154.75 36.53 154.77 36.54 154.77 36.51"/>
                <path class="cls-3" d="M158.06,34.6h-.09l-3.23,1.86v3.86l3.31-1.91v-3.81ZM158,38.37l-3.23,1.86v-3.73l3.23-1.86v3.73Z"/>
                <polygon class="cls-3" points="154.77 36.48 154.75 36.46 154.75 40.32 154.77 40.34 154.77 36.48"/>
              </g>
              <g>
                <polygon class="cls-3" points="161.3 36.52 161.35 36.54 161.35 36.51 164.66 34.6 164.66 34.6 164.54 34.6 164.54 34.6 161.32 36.46 158.09 34.6 158.09 34.6 157.97 34.6 157.97 34.6 161.3 36.52"/>
                <path class="cls-3" d="M161.29,40.34l3.34-1.93v-3.81h-.09l-3.26,1.88v3.86ZM161.35,36.51l3.23-1.86v3.73l-3.23,1.86v-3.73Z"/>
                <path class="cls-3" d="M161.35,40.34v-3.86l-3.26-1.88h-.09v3.81l3.34,1.93ZM161.29,36.51v3.73l-3.23-1.86v-3.73l3.23,1.86Z"/>
              </g>
              <polygon class="cls-3" points="167.87 40.31 167.89 40.32 171.2 38.41 171.2 34.6 171.12 34.6 171.14 34.61 171.14 38.37 167.89 40.25 164.63 38.37 164.63 34.61 164.66 34.6 164.57 34.6 164.57 38.41 167.87 40.31"/>
              <g>
                <polygon class="cls-3" points="174.44 36.52 174.49 36.54 174.49 36.51 177.8 34.6 177.8 34.6 177.69 34.6 177.69 34.6 174.46 36.46 171.23 34.6 171.23 34.6 171.12 34.6 171.12 34.6 174.44 36.52"/>
                <path class="cls-3" d="M174.43,40.34l3.34-1.93v-3.81h-.09l-3.26,1.88v3.86ZM174.49,36.51l3.23-1.86v3.73l-3.23,1.86v-3.73Z"/>
                <path class="cls-3" d="M174.49,40.34v-3.86l-3.26-1.88h-.09v3.81l3.34,1.93ZM174.43,36.51v3.73l-3.23-1.86v-3.73l3.23,1.86Z"/>
              </g>
              <g>
                <polygon class="cls-3" points="181.02 36.52 181.06 36.54 181.06 36.51 184.37 34.6 184.37 34.6 184.26 34.6 184.26 34.6 181.03 36.46 177.8 34.6 177.8 34.6 177.69 34.6 177.69 34.6 181.02 36.52"/>
                <path class="cls-3" d="M181,40.34l3.34-1.93v-3.81h-.09l-3.26,1.88v3.86ZM181.06,36.51l3.23-1.86v3.73l-3.23,1.86v-3.73Z"/>
                <path class="cls-3" d="M181.02,40.31h0s.04,0,.04,0v-3.84l-3.26-1.88h-.09v3.81l3.3,1.91ZM181,36.51v3.73l-3.23-1.86v-3.73l3.23,1.86Z"/>
              </g>
              <g>
                <polygon class="cls-3" points="187.6 36.46 184.37 34.6 184.37 34.6 184.26 34.6 184.26 34.6 187.59 36.52 187.6 36.53 187.6 36.46 187.6 36.46"/>
                <path class="cls-3" d="M184.37,34.6h-.09v3.81l3.31,1.91v-3.86l-3.23-1.86ZM184.35,38.37v-3.73l3.23,1.86v3.73l-3.23-1.86Z"/>
              </g>
            </g>
            <g>
              <polygon class="cls-3" points="154.75 40.25 154.75 40.32 154.8 40.29 154.75 40.25"/>
              <polygon class="cls-3" points="154.77 40.24 154.75 40.25 154.75 44.12 154.77 44.1 154.77 40.24"/>
            </g>
            <g>
              <path class="cls-3" d="M158.06,42.24v-.03l3.31-1.91-3.33-1.92h-.01s-3.29,1.89-3.29,1.89v.07l3.27,1.89.04.03ZM158.03,38.42l3.23,1.86-3.23,1.86-3.23-1.86,3.23-1.86Z"/>
              <path class="cls-3" d="M158,46.03v-3.86l3.34-1.93v3.86l-3.34,1.93ZM158.06,42.2v3.73l3.23-1.86v-3.73l-3.23,1.86Z"/>
              <path class="cls-3" d="M158.06,42.17l-3.31-1.91v3.86l3.31,1.91v-3.86ZM158,45.93l-3.23-1.86v-3.73l3.23,1.86v3.73Z"/>
            </g>
            <g>
              <path class="cls-3" d="M164.63,42.24l-.04-.03-3.33-1.92,3.34-1.93h.01s3.33,1.93,3.33,1.93l-3.31,1.91v.03ZM161.37,40.29l3.23,1.86,3.23-1.86-3.23-1.86-3.23,1.86Z"/>
              <path class="cls-3" d="M164.57,46.03v-3.86l3.34-1.93v3.86l-3.34,1.93ZM164.63,42.2v3.73l3.23-1.86v-3.73l-3.23,1.86Z"/>
              <path class="cls-3" d="M164.63,46.03l-3.34-1.93v-3.86l3.34,1.93v3.86ZM161.35,44.06l3.23,1.86v-3.73l-3.23-1.86v3.73Z"/>
            </g>
            <g>
              <path class="cls-3" d="M171.2,42.24l-.04-.03-3.33-1.92,3.34-1.93h.01s3.33,1.93,3.33,1.93l-3.31,1.91v.03ZM167.95,40.29l3.23,1.86,3.23-1.86-3.23-1.86-3.23,1.86Z"/>
              <path class="cls-3" d="M171.14,46.03v-3.86l3.34-1.93v3.86l-3.34,1.93ZM171.2,42.2v3.73l3.23-1.86v-3.73l-3.23,1.86Z"/>
              <path class="cls-3" d="M171.2,46.03l-3.34-1.93v-3.86l3.34,1.93v3.86ZM167.92,44.07l3.23,1.86v-3.73l-3.23-1.86v3.73Z"/>
            </g>
            <path class="cls-3" d="M177.74,46.01h-.01s-3.3-1.91-3.3-1.91v-3.83l3.31-1.91h.01s3.3,1.91,3.3,1.91v3.83l-3.31,1.91ZM174.49,44.07l3.26,1.88,3.26-1.88v-3.76l-3.26-1.88-3.26,1.88v3.76Z"/>
            <g>
              <path class="cls-3" d="M184.32,38.36l-3.34,1.93,3.33,1.92.04.03v-.03l3.26-1.88v-.07l-3.27-1.89h-.01ZM184.32,42.15l-3.23-1.86,3.23-1.86,3.23,1.86-3.23,1.86Z"/>
              <path class="cls-3" d="M184.29,42.17v3.86l3.32-1.91v-3.86l-3.32,1.91ZM184.34,45.93v-3.73l3.23-1.86v3.73l-3.23,1.86Z"/>
              <path class="cls-3" d="M184.34,46.03l-3.34-1.93v-3.84h.04s3.3,1.91,3.3,1.91v3.86ZM181.06,44.07l3.23,1.86v-3.73l-3.23-1.86v3.73Z"/>
            </g>
            <g>
              <polygon class="cls-3" points="158.06 45.96 154.76 44.06 154.75 44.05 154.75 44.12 158 46 158 49.76 154.75 51.64 154.75 51.7 158.06 49.79 158.06 45.96"/>
              <g>
                <path class="cls-3" d="M161.35,47.93l-.04-.03-3.33-1.92,3.34-1.93h.01s3.33,1.93,3.33,1.93l-3.31,1.91v.03ZM158.09,45.98l3.23,1.86,3.23-1.86-3.23-1.86-3.23,1.86Z"/>
                <path class="cls-3" d="M161.29,51.72v-3.86l3.34-1.93v3.86l-3.34,1.93ZM161.35,47.89v3.73l3.23-1.86v-3.73l-3.23,1.86Z"/>
                <path class="cls-3" d="M161.35,51.72l-3.34-1.93v-3.86l3.34,1.93v3.86ZM158.06,49.76l3.23,1.86v-3.73l-3.23-1.86v3.73Z"/>
              </g>
              <path class="cls-3" d="M167.89,51.7h-.01s-3.3-1.91-3.3-1.91v-3.83l3.31-1.91h.01s3.3,1.91,3.3,1.91v3.83l-3.31,1.91ZM164.63,49.76l3.26,1.88,3.26-1.88v-3.76l-3.26-1.88-3.26,1.88v3.76Z"/>
              <g>
                <path class="cls-3" d="M174.46,47.91h-.01s-3.33-1.93-3.33-1.93l3.34-1.93h.01s3.33,1.93,3.33,1.93l-3.34,1.93ZM171.23,45.98l3.23,1.86,3.23-1.86-3.23-1.86-3.23,1.86Z"/>
                <path class="cls-3" d="M174.43,51.72v-3.86l3.34-1.93v3.86l-3.34,1.93ZM174.49,47.89v3.73l3.23-1.86v-3.73l-3.23,1.86Z"/>
                <path class="cls-3" d="M174.49,51.72l-3.34-1.93v-3.86l3.34,1.93v3.86ZM171.2,49.76l3.23,1.86v-3.73l-3.23-1.86v3.73Z"/>
              </g>
              <path class="cls-3" d="M181.03,51.7h-.01s-3.3-1.91-3.3-1.91v-3.83l3.31-1.91h.01s3.3,1.91,3.3,1.91v3.83l-3.31,1.91ZM177.77,49.76l3.26,1.88,3.26-1.88v-3.76l-3.26-1.88-3.26,1.88v3.76Z"/>
              <polygon class="cls-3" points="187.6 51.64 184.34 49.76 184.34 46 187.6 44.12 187.6 44.12 187.6 44.05 187.6 44.05 184.29 45.96 184.29 49.79 187.59 51.7 187.6 51.7 187.6 51.7 187.6 51.64 187.6 51.64"/>
            </g>
            <g>
              <g>
                <polygon class="cls-3" points="154.75 51.64 154.75 51.7 154.8 51.67 154.75 51.64"/>
                <polygon class="cls-3" points="154.77 51.62 154.75 51.64 154.75 55.5 154.77 55.48 154.77 51.62"/>
              </g>
              <g>
                <path class="cls-3" d="M158.03,53.6l3.34-1.93-3.33-1.92h-.01s-3.29,1.89-3.29,1.89v.07l3.27,1.89h.01ZM158.03,49.81l3.23,1.86-3.23,1.86-3.23-1.86,3.23-1.86Z"/>
                <path class="cls-3" d="M158,57.41v-3.86l3.34-1.93v3.86l-3.34,1.93ZM158.06,53.58v3.73l3.23-1.86v-3.73l-3.23,1.86Z"/>
                <path class="cls-3" d="M158.02,57.39h.04v-3.84l-3.31-1.91v3.86l3.27,1.89h0ZM158,57.31l-3.23-1.86v-3.73l3.23,1.86v3.73Z"/>
              </g>
              <path class="cls-3" d="M164.6,57.39h-.01s-3.3-1.91-3.3-1.91v-3.83l3.31-1.91h.01s3.3,1.91,3.3,1.91v3.83l-3.31,1.91ZM161.35,55.45l3.26,1.88,3.26-1.88v-3.76l-3.26-1.88-3.26,1.88v3.76Z"/>
              <g>
                <path class="cls-3" d="M171.17,53.6h-.01s-3.33-1.93-3.33-1.93l3.34-1.93h.01s3.33,1.93,3.33,1.93l-3.34,1.93ZM167.95,51.67l3.23,1.86,3.23-1.86-3.23-1.86-3.23,1.86Z"/>
                <path class="cls-3" d="M171.14,57.41v-3.86l3.34-1.93v3.86l-3.34,1.93ZM171.2,53.58v3.73l3.23-1.86v-3.73l-3.23,1.86Z"/>
                <path class="cls-3" d="M171.2,57.41l-3.34-1.93v-3.86l3.34,1.93v3.86ZM167.92,55.45l3.23,1.86v-3.73l-3.23-1.86v3.73Z"/>
              </g>
              <path class="cls-3" d="M177.74,57.39h-.01s-3.3-1.91-3.3-1.91v-3.83l3.31-1.91h.01s3.3,1.91,3.3,1.91v3.83l-3.31,1.91ZM174.49,55.45l3.26,1.88,3.26-1.88v-3.76l-3.26-1.88-3.26,1.88v3.76Z"/>
              <g>
                <path class="cls-3" d="M184.32,49.74l-3.34,1.93,3.33,1.92h.01s3.29-1.89,3.29-1.89v-.07l-3.27-1.89h-.01ZM184.32,53.53l-3.23-1.86,3.23-1.86,3.23,1.86-3.23,1.86Z"/>
                <path class="cls-3" d="M184.29,53.55v3.86l3.32-1.91v-3.86l-3.32,1.91ZM184.35,57.31v-3.73l3.23-1.86v3.73l-3.23,1.86Z"/>
                <path class="cls-3" d="M184.34,57.41l-3.34-1.93v-3.86l3.34,1.93v3.86ZM181.06,55.45l3.23,1.86v-3.73l-3.23-1.86v3.73Z"/>
              </g>
            </g>
            <g>
              <polygon class="cls-3" points="154.77 59.27 158.09 57.36 154.76 55.44 154.75 55.43 154.75 55.5 157.97 57.36 154.75 59.22 154.75 59.29 154.77 59.31 154.77 59.27"/>
              <path class="cls-3" d="M158.06,57.31l-3.31,1.91v3.86l3.31-1.91v-3.86ZM158,61.14l-3.23,1.86v-3.73l3.23-1.86v3.73Z"/>
              <polygon class="cls-3" points="154.77 59.24 154.75 59.22 154.75 63.09 154.77 63.1 154.77 59.24"/>
            </g>
            <g>
              <path class="cls-3" d="M161.32,63.08h-.02s-3.3-1.91-3.3-1.91v-3.84h.02l3.29-1.9h.01s3.3,1.91,3.3,1.91v3.83l-3.29,1.9h0s-.03.01-.03.01ZM158.06,61.14l3.26,1.88,3.26-1.88v-3.76l-3.26-1.88-3.26,1.88v3.76Z"/>
              <polygon class="cls-3" points="158 57.41 158 57.34 158.02 57.33 161.3 55.44 161.33 55.49 158 57.41"/>
              <polygon class="cls-3" points="161.29 63.1 161.29 63.03 161.3 63.03 164.59 61.13 164.62 61.18 164.61 61.18 161.29 63.1"/>
            </g>
            <g>
              <path class="cls-3" d="M167.89,59.29h-.01s-3.33-1.93-3.33-1.93l3.34-1.93h.01s3.33,1.93,3.33,1.93l-3.34,1.93ZM164.66,57.36l3.23,1.86,3.23-1.86-3.23-1.86-3.23,1.86Z"/>
              <path class="cls-3" d="M167.86,63.1v-3.86l3.34-1.93v3.86l-3.34,1.93ZM167.92,59.27v3.73l3.23-1.86v-3.73l-3.23,1.86Z"/>
              <path class="cls-3" d="M167.92,63.1l-3.34-1.93v-3.86l3.34,1.93v3.86ZM164.63,61.14l3.23,1.86v-3.73l-3.23-1.86v3.73Z"/>
            </g>
            <path class="cls-3" d="M174.46,63.09h-.01s-3.3-1.91-3.3-1.91v-3.83l3.31-1.91h.01s3.3,1.91,3.3,1.91v3.83l-3.31,1.91ZM171.2,61.14l3.26,1.88,3.26-1.88v-3.76l-3.26-1.88-3.26,1.88v3.76Z"/>
            <path class="cls-3" d="M181.03,63.09h-.01s-3.3-1.91-3.3-1.91v-3.83l3.31-1.91h.01s3.3,1.91,3.3,1.91v3.83l-3.31,1.91ZM177.77,61.14l3.26,1.88,3.26-1.88v-3.76l-3.26-1.88-3.26,1.88v3.76Z"/>
            <g>
              <polygon class="cls-3" points="187.6 59.22 184.37 57.36 187.6 55.5 187.6 55.5 187.6 55.43 187.6 55.43 184.26 57.36 187.59 59.28 187.6 59.29 187.6 59.22 187.6 59.22"/>
              <path class="cls-3" d="M184.29,57.31v3.86l3.32,1.91v-3.86l-3.32-1.91ZM184.34,61.14v-3.73l3.23,1.86v3.73l-3.23-1.86Z"/>
            </g>
            <g>
              <g>
                <polygon class="cls-3" points="154.75 63.02 154.75 63.08 154.8 63.05 154.75 63.02"/>
                <polygon class="cls-3" points="154.77 63 154.75 63.02 154.75 66.88 154.77 66.86 154.77 63"/>
              </g>
              <g>
                <path class="cls-3" d="M158.06,65v-.03l3.31-1.91-3.33-1.92h-.01s-3.28,1.89-3.28,1.89v.07l3.27,1.89.04.02ZM158.03,61.19l3.23,1.86-3.23,1.86-3.23-1.86,3.23-1.86Z"/>
                <path class="cls-3" d="M161.35,63l-3.34,1.93v3.81h.09l3.26-1.88v-3.86ZM161.29,66.83l-3.23,1.86v-3.73l3.23-1.86v3.73Z"/>
                <path class="cls-3" d="M154.75,63.02v3.86l3.23,1.86h.09v-3.81l-3.31-1.91ZM154.77,66.83v-3.73l3.23,1.86v3.73l-3.23-1.86Z"/>
              </g>
              <g>
                <path class="cls-3" d="M164.63,65l-.04-.02-3.3-1.91v-.03h.01s3.3-1.91,3.3-1.91h.01s3.33,1.93,3.33,1.93l-3.31,1.91v.03ZM161.37,63.05l3.23,1.86,3.23-1.86-3.23-1.86-3.23,1.86Z"/>
                <path class="cls-3" d="M167.92,63l-3.34,1.93v3.81h.09l3.26-1.88v-3.86ZM167.86,66.83l-3.23,1.86v-3.73l3.23-1.86v3.73Z"/>
                <path class="cls-3" d="M161.33,63.03h0s-.04,0-.04,0v3.84l3.26,1.88h.09v-3.81l-3.3-1.91ZM161.34,66.83v-3.73l3.23,1.86v3.73l-3.23-1.86Z"/>
              </g>
              <g>
                <path class="cls-3" d="M174.49,66.86v-3.83l-3.3-1.91h-.01s-3.31,1.91-3.31,1.91v3.83l3.26,1.88h.12l3.24-1.87h.01ZM174.43,66.83l-3.26,1.88-3.26-1.88v-3.76l3.26-1.88,3.26,1.88v3.76Z"/>
                <polygon class="cls-3" points="174.44 66.82 171.16 68.72 171.14 68.73 171.14 68.74 171.23 68.74 174.47 66.87 174.44 66.82"/>
              </g>
              <g>
                <path class="cls-3" d="M177.77,65l-.04-.02-3.33-1.92,3.34-1.93h.01s3.33,1.93,3.33,1.93l-3.31,1.91v.03ZM174.52,63.05l3.23,1.86,3.23-1.86-3.23-1.86-3.23,1.86Z"/>
                <path class="cls-3" d="M181.06,63l-3.34,1.93v3.81h.09l3.26-1.88v-3.86ZM181,66.83l-3.23,1.86v-3.73l3.23-1.86v3.73Z"/>
                <path class="cls-3" d="M174.43,63v3.86l3.26,1.88h.09v-3.81l-3.34-1.93ZM174.49,66.83v-3.73l3.23,1.86v3.73l-3.23-1.86Z"/>
              </g>
              <g>
                <path class="cls-3" d="M184.32,61.12l-3.34,1.93,3.33,1.92.04.02v-.03l3.26-1.88v-.07l-3.27-1.89h-.01ZM184.32,64.91l-3.23-1.86,3.23-1.86,3.23,1.86-3.23,1.86Z"/>
                <path class="cls-3" d="M184.29,64.93v3.81h.09l3.23-1.86v-3.86l-3.32,1.91ZM184.34,68.69v-3.73l3.23-1.86v3.73l-3.23,1.86Z"/>
                <path class="cls-3" d="M181,63v3.86l3.26,1.88h.09v-3.81l-3.34-1.93ZM181.06,66.83v-3.73l3.23,1.86v3.73l-3.23-1.86Z"/>
              </g>
            </g>
            <g>
              <g>
                <polygon class="cls-3" points="154.76 66.82 154.75 66.81 154.75 66.88 157.97 68.74 157.97 68.74 158.09 68.74 158.09 68.74 154.76 66.82"/>
                <polygon class="cls-3" points="157.97 68.74 158.06 68.74 158.06 68.69 157.97 68.74"/>
              </g>
              <g>
                <polygon class="cls-3" points="161.33 66.82 161.32 66.81 157.97 68.74 157.97 68.74 158.09 68.74 158.09 68.74 161.32 66.88 164.54 68.74 164.54 68.74 164.66 68.74 164.66 68.74 161.33 66.82"/>
                <polygon class="cls-3" points="164.54 68.74 164.63 68.74 164.63 68.69 164.54 68.74"/>
                <polygon class="cls-3" points="158 68.74 158.09 68.74 158 68.69 158 68.74"/>
              </g>
              <g>
                <polygon class="cls-3" points="167.9 66.82 167.89 66.81 164.59 68.71 164.57 68.71 164.57 68.74 164.66 68.74 167.89 66.88 171.11 68.74 171.2 68.74 171.2 68.73 167.9 66.82"/>
                <polygon class="cls-3" points="167.87 66.82 164.59 68.72 164.57 68.73 164.57 68.74 164.66 68.74 167.9 66.87 167.87 66.82"/>
              </g>
              <g>
                <polygon class="cls-3" points="174.47 66.82 174.46 66.81 171.16 68.72 171.14 68.73 171.14 68.74 171.23 68.74 171.23 68.74 174.46 66.88 177.69 68.74 177.69 68.74 177.8 68.74 177.8 68.74 174.47 66.82"/>
                <polygon class="cls-3" points="177.69 68.74 177.77 68.74 177.77 68.69 177.69 68.74"/>
                <polygon class="cls-3" points="171.18 68.71 171.14 68.71 171.14 68.74 171.23 68.74 171.19 68.72 171.18 68.71"/>
              </g>
              <g>
                <polygon class="cls-3" points="181.04 66.82 181.03 66.81 177.69 68.74 177.69 68.74 177.8 68.74 177.8 68.74 181.03 66.88 184.26 68.74 184.26 68.74 184.37 68.74 184.37 68.74 181.04 66.82"/>
                <polygon class="cls-3" points="184.26 68.74 184.34 68.74 184.34 68.69 184.26 68.74"/>
                <polygon class="cls-3" points="177.72 68.74 177.8 68.74 177.72 68.69 177.72 68.74"/>
              </g>
              <g>
                <polygon class="cls-3" points="184.37 68.74 187.6 66.88 187.6 66.88 187.6 66.81 187.6 66.81 184.26 68.74 184.26 68.74 184.37 68.74 184.37 68.74"/>
                <polygon class="cls-3" points="184.29 68.69 184.29 68.74 184.37 68.74 184.29 68.69"/>
              </g>
            </g>
            <g>
              <path class="cls-3" d="M169.88,51.94l-3.48-2.01v-4.02l3.48-2.01,3.48,2.01v4.02l-3.48,2.01ZM166.73,49.75l3.15,1.82,3.15-1.82v-3.64l-3.15-1.82-3.15,1.82v3.64Z"/>
              <path class="cls-3" d="M179.66,53.75l-3.43-1.98v-3.96l3.43-1.98,3.43,1.98v3.96l-3.43,1.98ZM176.46,51.64l3.2,1.85,3.2-1.85v-3.69l-3.2-1.85-3.2,1.85v3.69Z"/>
              <polygon class="cls-3" points="163.59 40.51 167.03 38.53 167.03 34.6 166.62 34.6 166.79 34.7 166.79 38.39 163.59 40.24 160.4 38.39 160.4 34.7 160.57 34.6 160.16 34.6 160.16 38.53 163.59 40.51"/>
              <polygon class="cls-3" points="163.59 66.73 160.16 68.71 160.16 68.74 160.57 68.74 163.59 67 166.62 68.74 167.03 68.74 167.03 68.71 163.59 66.73"/>
              <path class="cls-3" d="M176.35,48.01l-3.43-1.98v-3.96l3.43-1.98,3.43,1.98v3.96l-3.43,1.98ZM173.15,45.89l3.2,1.85,3.2-1.85v-3.69l-3.2-1.85-3.2,1.85v3.69Z"/>
              <path class="cls-3" d="M166.57,63.19l-3.43-1.98v-3.96l3.43-1.98,3.43,1.98v3.96l-3.43,1.98ZM163.37,61.07l3.2,1.85,3.2-1.85v-3.69l-3.2-1.85-3.2,1.85v3.69Z"/>
              <polygon class="cls-3" points="159.82 59.29 159.82 55.33 156.39 53.35 154.75 54.29 154.75 54.57 156.39 53.62 159.58 55.46 159.58 59.16 156.39 61 154.75 60.05 154.75 60.33 156.39 61.27 159.82 59.29"/>
              <path class="cls-3" d="M177.69,55.53l-3.43,1.98v3.96l3.43,1.98,3.43-1.98v-3.96l-3.43-1.98ZM177.57,55.87l.12-.07.12.07,2.96,1.71-2.96,1.71-.12.07-.12-.07-2.96-1.71,2.96-1.71ZM174.49,61.34v-3.56l2.96,1.71.12.07v3.56l-2.96-1.71-.12-.07ZM177.8,63.12v-3.56l.12-.07,2.96-1.71v3.56l-.12.07-2.96,1.71Z"/>
              <path class="cls-3" d="M163.14,49.45l-3.43,1.98v3.96l3.43,1.98,3.43-1.98v-3.96l-3.43-1.98ZM163.02,49.79l.12-.07.12.07,2.96,1.71-2.96,1.71-.12.07-.12-.07-2.96-1.71,2.96-1.71ZM159.94,55.26v-3.56l2.96,1.71.12.07v3.56l-2.96-1.71-.12-.07ZM163.25,57.04v-3.56l.12-.07,2.96-1.71v3.56l-.12.07-2.96,1.71Z"/>
            </g>
          </g>
        </g>
        <g>
          <g>
            <g>
              <polygon class="cls-3" points="121.98 36.56 125.29 34.65 125.29 34.65 125.17 34.65 125.17 34.65 121.95 36.51 121.95 36.58 121.98 36.59 121.98 36.56"/>
              <path class="cls-3" d="M125.26,34.65h-.09l-3.23,1.86v3.86l3.31-1.91v-3.81ZM125.2,38.42l-3.23,1.86v-3.73l3.23-1.86v3.73Z"/>
              <polygon class="cls-3" points="121.98 36.53 121.95 36.51 121.95 40.37 121.98 40.39 121.98 36.53"/>
            </g>
            <g>
              <polygon class="cls-3" points="128.5 36.57 128.55 36.59 128.55 36.56 131.86 34.65 131.86 34.65 131.75 34.65 131.75 34.65 128.52 36.51 125.29 34.65 125.29 34.65 125.17 34.65 125.17 34.65 128.5 36.57"/>
              <path class="cls-3" d="M128.49,40.39l3.34-1.93v-3.81h-.09l-3.26,1.88v3.86ZM128.55,36.56l3.23-1.86v3.73l-3.23,1.86v-3.73Z"/>
              <path class="cls-3" d="M128.55,40.39v-3.86l-3.26-1.88h-.09v3.81l3.34,1.93ZM128.49,36.56v3.73l-3.23-1.86v-3.73l3.23,1.86Z"/>
            </g>
            <polygon class="cls-3" points="135.07 40.36 135.09 40.37 138.4 38.46 138.4 34.65 138.32 34.65 138.35 34.66 138.35 38.42 135.09 40.3 131.83 38.42 131.83 34.66 131.86 34.65 131.77 34.65 131.77 38.46 135.07 40.36"/>
            <g>
              <polygon class="cls-3" points="141.65 36.57 141.69 36.59 141.69 36.56 145 34.65 145 34.65 144.89 34.65 144.89 34.65 141.66 36.51 138.43 34.65 138.43 34.65 138.32 34.65 138.32 34.65 141.65 36.57"/>
              <path class="cls-3" d="M141.63,40.39l3.34-1.93v-3.81h-.09l-3.26,1.88v3.86ZM141.69,36.56l3.23-1.86v3.73l-3.23,1.86v-3.73Z"/>
              <path class="cls-3" d="M141.69,40.39v-3.86l-3.26-1.88h-.09v3.81l3.34,1.93ZM141.63,36.56v3.73l-3.23-1.86v-3.73l3.23,1.86Z"/>
            </g>
            <g>
              <polygon class="cls-3" points="148.22 36.57 148.26 36.59 148.26 36.56 151.58 34.65 151.58 34.65 151.46 34.65 151.46 34.65 148.23 36.51 145 34.65 145 34.65 144.89 34.65 144.89 34.65 148.22 36.57"/>
              <path class="cls-3" d="M148.2,40.39l3.34-1.93v-3.81h-.09l-3.26,1.88v3.86ZM148.26,36.56l3.23-1.86v3.73l-3.23,1.86v-3.73Z"/>
              <path class="cls-3" d="M148.22,40.36h0s.04,0,.04,0v-3.84l-3.26-1.88h-.09v3.81l3.3,1.91ZM148.2,36.56v3.73l-3.23-1.86v-3.73l3.23,1.86Z"/>
            </g>
            <g>
              <polygon class="cls-3" points="154.8 36.51 151.58 34.65 151.58 34.65 151.46 34.65 151.46 34.65 154.79 36.57 154.8 36.58 154.8 36.51 154.8 36.51"/>
              <polygon class="cls-3" points="154.77 36.53 154.77 40.39 154.8 40.37 154.8 36.51 154.77 36.53"/>
              <path class="cls-3" d="M151.58,34.65h-.09v3.81l3.31,1.91v-3.86l-3.23-1.86ZM151.55,38.42v-3.73l3.23,1.86v3.73l-3.23-1.86Z"/>
            </g>
          </g>
          <g>
            <polygon class="cls-3" points="121.95 40.3 121.95 40.37 122.01 40.34 121.95 40.3"/>
            <polygon class="cls-3" points="121.98 40.29 121.95 40.3 121.95 44.17 121.98 44.15 121.98 40.29"/>
          </g>
          <g>
            <path class="cls-3" d="M125.26,42.29v-.03l3.31-1.91-3.33-1.92h-.01s-3.29,1.89-3.29,1.89v.07l3.27,1.89.04.03ZM125.23,38.48l3.23,1.86-3.23,1.86-3.23-1.86,3.23-1.86Z"/>
            <path class="cls-3" d="M125.2,46.08v-3.86l3.34-1.93v3.86l-3.34,1.93ZM125.26,42.25v3.73l3.23-1.86v-3.73l-3.23,1.86Z"/>
            <path class="cls-3" d="M125.26,42.22l-3.31-1.91v3.86l3.31,1.91v-3.86ZM125.2,45.98l-3.23-1.86v-3.73l3.23,1.86v3.73Z"/>
          </g>
          <g>
            <path class="cls-3" d="M131.83,42.29l-.04-.03-3.33-1.92,3.34-1.93h.01s3.33,1.93,3.33,1.93l-3.31,1.91v.03ZM128.58,40.34l3.23,1.86,3.23-1.86-3.23-1.86-3.23,1.86Z"/>
            <path class="cls-3" d="M131.77,46.08v-3.86l3.34-1.93v3.86l-3.34,1.93ZM131.83,42.25v3.73l3.23-1.86v-3.73l-3.23,1.86Z"/>
            <path class="cls-3" d="M131.83,46.08l-3.34-1.93v-3.86l3.34,1.93v3.86ZM128.55,44.12l3.23,1.86v-3.73l-3.23-1.86v3.73Z"/>
          </g>
          <g>
            <path class="cls-3" d="M138.4,42.29l-.04-.03-3.33-1.92,3.34-1.93h.01s3.33,1.93,3.33,1.93l-3.31,1.91v.03ZM135.15,40.34l3.23,1.86,3.23-1.86-3.23-1.86-3.23,1.86Z"/>
            <path class="cls-3" d="M138.35,46.08v-3.86l3.34-1.93v3.86l-3.34,1.93ZM138.4,42.25v3.73l3.23-1.86v-3.73l-3.23,1.86Z"/>
            <path class="cls-3" d="M138.4,46.08l-3.34-1.93v-3.86l3.34,1.93v3.86ZM135.12,44.12l3.23,1.86v-3.73l-3.23-1.86v3.73Z"/>
          </g>
          <path class="cls-3" d="M144.95,46.06h-.01s-3.3-1.91-3.3-1.91v-3.83l3.31-1.91h.01s3.3,1.91,3.3,1.91v3.83l-3.31,1.91ZM141.69,44.12l3.26,1.88,3.26-1.88v-3.76l-3.26-1.88-3.26,1.88v3.76Z"/>
          <g>
            <path class="cls-3" d="M151.52,38.41l-3.34,1.93,3.33,1.92.04.03v-.03l3.26-1.88v-.07l-3.27-1.89h-.01ZM151.52,42.2l-3.23-1.86,3.23-1.86,3.23,1.86-3.23,1.86Z"/>
            <path class="cls-3" d="M151.49,42.22v3.86l3.32-1.91v-3.86l-3.32,1.91ZM151.55,45.98v-3.73l3.23-1.86v3.73l-3.23,1.86Z"/>
            <path class="cls-3" d="M151.55,46.08l-3.34-1.93v-3.84h.04s3.3,1.91,3.3,1.91v3.86ZM148.26,44.12l3.23,1.86v-3.73l-3.23-1.86v3.73Z"/>
          </g>
          <g>
            <polygon class="cls-3" points="154.74 40.34 154.8 40.37 154.8 40.3 154.74 40.34"/>
            <polygon class="cls-3" points="154.77 40.31 154.77 44.15 154.8 44.17 154.8 40.31 154.77 40.31"/>
          </g>
          <g>
            <polygon class="cls-3" points="125.26 46.01 121.96 44.11 121.95 44.1 121.95 44.17 125.2 46.05 125.2 49.81 121.95 51.69 121.95 51.75 125.26 49.84 125.26 46.01"/>
            <g>
              <path class="cls-3" d="M128.55,47.98l-.04-.03-3.33-1.92,3.34-1.93h.01s3.33,1.93,3.33,1.93l-3.31,1.91v.03ZM125.29,46.03l3.23,1.86,3.23-1.86-3.23-1.86-3.23,1.86Z"/>
              <path class="cls-3" d="M128.49,51.77v-3.86l3.34-1.93v3.86l-3.34,1.93ZM128.55,47.94v3.73l3.23-1.86v-3.73l-3.23,1.86Z"/>
              <path class="cls-3" d="M128.55,51.77l-3.34-1.93v-3.86l3.34,1.93v3.86ZM125.26,49.81l3.23,1.86v-3.73l-3.23-1.86v3.73Z"/>
            </g>
            <path class="cls-3" d="M135.09,51.75h-.01s-3.3-1.91-3.3-1.91v-3.83l3.31-1.91h.01s3.3,1.91,3.3,1.91v3.83l-3.31,1.91ZM131.83,49.81l3.26,1.88,3.26-1.88v-3.76l-3.26-1.88-3.26,1.88v3.76Z"/>
            <g>
              <path class="cls-3" d="M141.66,47.96h-.01s-3.33-1.93-3.33-1.93l3.34-1.93h.01s3.33,1.93,3.33,1.93l-3.34,1.93ZM138.43,46.03l3.23,1.86,3.23-1.86-3.23-1.86-3.23,1.86Z"/>
              <path class="cls-3" d="M141.63,51.77v-3.86l3.34-1.93v3.86l-3.34,1.93ZM141.69,47.94v3.73l3.23-1.86v-3.73l-3.23,1.86Z"/>
              <path class="cls-3" d="M141.69,51.77l-3.34-1.93v-3.86l3.34,1.93v3.86ZM138.4,49.81l3.23,1.86v-3.73l-3.23-1.86v3.73Z"/>
            </g>
            <path class="cls-3" d="M148.23,51.75h-.01s-3.3-1.91-3.3-1.91v-3.83l3.31-1.91h.01s3.3,1.91,3.3,1.91v3.83l-3.31,1.91ZM144.98,49.81l3.26,1.88,3.26-1.88v-3.76l-3.26-1.88-3.26,1.88v3.76Z"/>
            <polygon class="cls-3" points="154.8 51.69 151.55 49.81 151.55 46.05 154.8 44.17 154.8 44.17 154.8 44.1 154.8 44.1 151.49 46.01 151.49 49.84 154.79 51.75 154.8 51.75 154.8 51.75 154.8 51.69 154.8 51.69"/>
          </g>
          <g>
            <g>
              <polygon class="cls-3" points="121.95 51.69 121.95 51.75 122.01 51.72 121.95 51.69"/>
              <polygon class="cls-3" points="121.98 51.67 121.95 51.69 121.95 55.55 121.98 55.53 121.98 51.67"/>
            </g>
            <g>
              <path class="cls-3" d="M125.23,53.65l3.34-1.93-3.33-1.92h-.01s-3.29,1.89-3.29,1.89v.07l3.27,1.89h.01ZM125.23,49.86l3.23,1.86-3.23,1.86-3.23-1.86,3.23-1.86Z"/>
              <path class="cls-3" d="M125.2,57.46v-3.86l3.34-1.93v3.86l-3.34,1.93ZM125.26,53.63v3.73l3.23-1.86v-3.73l-3.23,1.86Z"/>
              <path class="cls-3" d="M125.22,57.44h.04v-3.84l-3.31-1.91v3.86l3.27,1.89h0ZM125.2,57.36l-3.23-1.86v-3.73l3.23,1.86v3.73Z"/>
            </g>
            <path class="cls-3" d="M131.8,57.44h-.01s-3.3-1.91-3.3-1.91v-3.83l3.31-1.91h.01s3.3,1.91,3.3,1.91v3.83l-3.31,1.91ZM128.55,55.5l3.26,1.88,3.26-1.88v-3.76l-3.26-1.88-3.26,1.88v3.76Z"/>
            <g>
              <path class="cls-3" d="M138.37,53.65h-.01s-3.33-1.93-3.33-1.93l3.34-1.93h.01s3.33,1.93,3.33,1.93l-3.34,1.93ZM135.15,51.72l3.23,1.86,3.23-1.86-3.23-1.86-3.23,1.86Z"/>
              <path class="cls-3" d="M138.35,57.46v-3.86l3.34-1.93v3.86l-3.34,1.93ZM138.4,53.63v3.73l3.23-1.86v-3.73l-3.23,1.86Z"/>
              <path class="cls-3" d="M138.4,57.46l-3.34-1.93v-3.86l3.34,1.93v3.86ZM135.12,55.5l3.23,1.86v-3.73l-3.23-1.86v3.73Z"/>
            </g>
            <path class="cls-3" d="M144.95,57.44h-.01s-3.3-1.91-3.3-1.91v-3.83l3.31-1.91h.01s3.3,1.91,3.3,1.91v3.83l-3.31,1.91ZM141.69,55.5l3.26,1.88,3.26-1.88v-3.76l-3.26-1.88-3.26,1.88v3.76Z"/>
            <g>
              <path class="cls-3" d="M151.52,49.79l-3.34,1.93,3.33,1.92h.01s3.29-1.89,3.29-1.89v-.07l-3.27-1.89h-.01ZM151.52,53.58l-3.23-1.86,3.23-1.86,3.23,1.86-3.23,1.86Z"/>
              <path class="cls-3" d="M151.49,53.6v3.86l3.32-1.91v-3.86l-3.32,1.91ZM151.55,57.36v-3.73l3.23-1.86v3.73l-3.23,1.86Z"/>
              <path class="cls-3" d="M151.55,57.46l-3.34-1.93v-3.86l3.34,1.93v3.86ZM148.26,55.5l3.23,1.86v-3.73l-3.23-1.86v3.73Z"/>
            </g>
            <g>
              <polygon class="cls-3" points="154.74 51.72 154.8 51.75 154.8 51.69 154.74 51.72"/>
              <polygon class="cls-3" points="154.77 51.67 154.77 55.53 154.8 55.55 154.8 51.69 154.77 51.67"/>
            </g>
          </g>
          <g>
            <polygon class="cls-3" points="121.98 59.32 125.29 57.41 121.96 55.49 121.95 55.48 121.95 55.55 125.17 57.41 121.95 59.27 121.95 59.34 121.98 59.36 121.98 59.32"/>
            <path class="cls-3" d="M125.26,57.36l-3.31,1.91v3.86l3.31-1.91v-3.86ZM125.2,61.19l-3.23,1.86v-3.73l3.23-1.86v3.73Z"/>
            <polygon class="cls-3" points="121.98 59.29 121.95 59.27 121.95 63.14 121.98 63.15 121.98 59.29"/>
          </g>
          <g>
            <path class="cls-3" d="M128.52,63.13h-.02s-3.3-1.91-3.3-1.91v-3.84h.02l3.29-1.9h.01s3.3,1.91,3.3,1.91v3.83l-3.29,1.9h0s-.03.01-.03.01ZM125.26,61.19l3.26,1.88,3.26-1.88v-3.76l-3.26-1.88-3.26,1.88v3.76Z"/>
            <polygon class="cls-3" points="125.2 57.46 125.2 57.39 125.22 57.39 128.5 55.49 128.53 55.54 125.2 57.46"/>
            <polygon class="cls-3" points="128.49 63.15 128.49 63.09 128.5 63.08 131.79 61.18 131.82 61.23 131.81 61.23 128.49 63.15"/>
          </g>
          <g>
            <path class="cls-3" d="M135.09,59.34h-.01s-3.33-1.93-3.33-1.93l3.34-1.93h.01s3.33,1.93,3.33,1.93l-3.34,1.93ZM131.86,57.41l3.23,1.86,3.23-1.86-3.23-1.86-3.23,1.86Z"/>
            <path class="cls-3" d="M135.06,63.15v-3.86l3.34-1.93v3.86l-3.34,1.93ZM135.12,59.33v3.73l3.23-1.86v-3.73l-3.23,1.86Z"/>
            <path class="cls-3" d="M135.12,63.15l-3.34-1.93v-3.86l3.34,1.93v3.86ZM131.83,61.19l3.23,1.86v-3.73l-3.23-1.86v3.73Z"/>
          </g>
          <path class="cls-3" d="M141.66,63.14h-.01s-3.3-1.91-3.3-1.91v-3.83l3.31-1.91h.01s3.3,1.91,3.3,1.91v3.83l-3.31,1.91ZM138.4,61.19l3.26,1.88,3.26-1.88v-3.76l-3.26-1.88-3.26,1.88v3.76Z"/>
          <path class="cls-3" d="M148.23,63.14h-.01s-3.3-1.91-3.3-1.91v-3.83l3.31-1.91h.01s3.3,1.91,3.3,1.91v3.83l-3.31,1.91ZM144.98,61.19l3.26,1.88,3.26-1.88v-3.76l-3.26-1.88-3.26,1.88v3.76Z"/>
          <g>
            <polygon class="cls-3" points="154.8 59.27 151.58 57.41 154.8 55.55 154.8 55.55 154.8 55.48 154.8 55.48 151.46 57.41 154.79 59.33 154.8 59.34 154.8 59.27 154.8 59.27"/>
            <polygon class="cls-3" points="154.77 59.29 154.77 63.15 154.8 63.14 154.8 59.27 154.77 59.29"/>
            <path class="cls-3" d="M151.49,57.36v3.86l3.32,1.91v-3.86l-3.32-1.91ZM151.55,61.19v-3.73l3.23,1.86v3.73l-3.23-1.86Z"/>
          </g>
          <g>
            <g>
              <polygon class="cls-3" points="121.95 63.07 121.95 63.14 122 63.1 121.95 63.07"/>
              <polygon class="cls-3" points="121.98 63.05 121.95 63.07 121.95 66.93 121.98 66.91 121.98 63.05"/>
            </g>
            <g>
              <path class="cls-3" d="M125.26,65.05v-.03l3.31-1.91-3.33-1.92h-.01s-3.28,1.89-3.28,1.89v.07l3.27,1.89.04.02ZM125.23,61.24l3.23,1.86-3.23,1.86-3.23-1.86,3.23-1.86Z"/>
              <path class="cls-3" d="M128.55,63.05l-3.34,1.93v3.81h.09l3.26-1.88v-3.86ZM128.49,66.88l-3.23,1.86v-3.73l3.23-1.86v3.73Z"/>
              <path class="cls-3" d="M121.95,63.07v3.86l3.23,1.86h.09v-3.81l-3.31-1.91ZM121.98,66.88v-3.73l3.23,1.86v3.73l-3.23-1.86Z"/>
            </g>
            <g>
              <path class="cls-3" d="M131.83,65.05l-.04-.02-3.3-1.91v-.03h.01s3.3-1.91,3.3-1.91h.01s3.33,1.93,3.33,1.93l-3.31,1.91v.03ZM128.58,63.1l3.23,1.86,3.23-1.86-3.23-1.86-3.23,1.86Z"/>
              <path class="cls-3" d="M135.12,63.05l-3.34,1.93v3.81h.09l3.26-1.88v-3.86ZM135.06,66.88l-3.23,1.86v-3.73l3.23-1.86v3.73Z"/>
              <path class="cls-3" d="M128.53,63.08h0s-.04,0-.04,0v3.84l3.26,1.88h.09v-3.81l-3.3-1.91ZM128.55,66.88v-3.73l3.23,1.86v3.73l-3.23-1.86Z"/>
            </g>
            <g>
              <path class="cls-3" d="M141.69,66.91v-3.83l-3.3-1.91h-.01s-3.31,1.91-3.31,1.91v3.83l3.26,1.88h.12l3.24-1.87h.01ZM141.63,66.88l-3.26,1.88-3.26-1.88v-3.76l3.26-1.88,3.26,1.88v3.76Z"/>
              <polygon class="cls-3" points="141.65 66.87 138.36 68.77 138.35 68.78 138.35 68.79 138.43 68.79 141.68 66.92 141.65 66.87"/>
            </g>
            <g>
              <path class="cls-3" d="M144.98,65.05l-.04-.02-3.33-1.92,3.34-1.93h.01s3.33,1.93,3.33,1.93l-3.31,1.91v.03ZM141.72,63.1l3.23,1.86,3.23-1.86-3.23-1.86-3.23,1.86Z"/>
              <path class="cls-3" d="M148.26,63.05l-3.34,1.93v3.81h.09l3.26-1.88v-3.86ZM148.2,66.88l-3.23,1.86v-3.73l3.23-1.86v3.73Z"/>
              <path class="cls-3" d="M141.63,63.05v3.86l3.26,1.88h.09v-3.81l-3.34-1.93ZM141.69,66.88v-3.73l3.23,1.86v3.73l-3.23-1.86Z"/>
            </g>
            <g>
              <path class="cls-3" d="M151.52,61.17l-3.34,1.93,3.33,1.92.04.02v-.03l3.26-1.88v-.07l-3.27-1.89h-.01ZM151.52,64.97l-3.23-1.86,3.23-1.86,3.23,1.86-3.23,1.86Z"/>
              <path class="cls-3" d="M151.49,64.98v3.81h.09l3.23-1.86v-3.86l-3.32,1.91ZM151.55,68.74v-3.73l3.23-1.86v3.73l-3.23,1.86Z"/>
              <path class="cls-3" d="M148.2,63.05v3.86l3.26,1.88h.09v-3.81l-3.34-1.93ZM148.26,66.88v-3.73l3.23,1.86v3.73l-3.23-1.86Z"/>
            </g>
            <polygon class="cls-3" points="154.77 63.09 154.77 66.91 154.8 66.93 154.8 63.07 154.77 63.09"/>
          </g>
          <g>
            <g>
              <polygon class="cls-3" points="121.96 66.87 121.95 66.86 121.95 66.93 125.17 68.79 125.17 68.79 125.29 68.79 125.29 68.79 121.96 66.87"/>
              <polygon class="cls-3" points="125.17 68.79 125.26 68.79 125.26 68.74 125.17 68.79"/>
            </g>
            <g>
              <polygon class="cls-3" points="128.53 66.87 128.52 66.86 125.17 68.79 125.17 68.79 125.29 68.79 125.29 68.79 128.52 66.93 131.74 68.79 131.74 68.79 131.86 68.79 131.86 68.79 128.53 66.87"/>
              <polygon class="cls-3" points="131.74 68.79 131.83 68.79 131.83 68.74 131.74 68.79"/>
              <polygon class="cls-3" points="125.2 68.79 125.29 68.79 125.2 68.74 125.2 68.79"/>
            </g>
            <g>
              <polygon class="cls-3" points="135.1 66.87 135.09 66.86 131.8 68.76 131.77 68.76 131.77 68.79 131.86 68.79 135.09 66.93 138.32 68.79 138.4 68.79 138.4 68.78 135.1 66.87"/>
              <polygon class="cls-3" points="135.07 66.87 131.79 68.77 131.77 68.78 131.77 68.79 131.86 68.79 135.1 66.92 135.07 66.87"/>
            </g>
            <g>
              <polygon class="cls-3" points="141.68 66.87 141.66 66.86 138.36 68.77 138.35 68.78 138.35 68.79 138.43 68.79 138.43 68.79 141.66 66.93 144.89 68.79 144.89 68.79 145 68.79 145 68.79 141.68 66.87"/>
              <polygon class="cls-3" points="144.89 68.79 144.98 68.79 144.98 68.74 144.89 68.79"/>
              <polygon class="cls-3" points="138.38 68.76 138.35 68.76 138.35 68.79 138.43 68.79 138.39 68.77 138.38 68.76"/>
            </g>
            <g>
              <polygon class="cls-3" points="148.25 66.87 148.23 66.86 144.89 68.79 144.89 68.79 145 68.79 145 68.79 148.23 66.93 151.46 68.79 151.46 68.79 151.58 68.79 151.58 68.79 148.25 66.87"/>
              <polygon class="cls-3" points="151.46 68.79 151.55 68.79 151.55 68.74 151.46 68.79"/>
              <polygon class="cls-3" points="144.92 68.79 145 68.79 144.92 68.74 144.92 68.79"/>
            </g>
            <g>
              <polygon class="cls-3" points="151.58 68.79 154.8 66.93 154.8 66.93 154.8 66.86 154.8 66.86 151.46 68.79 151.46 68.79 151.58 68.79 151.58 68.79"/>
              <polygon class="cls-3" points="151.49 68.74 151.49 68.79 151.58 68.79 151.49 68.74"/>
            </g>
          </g>
          <g>
            <path class="cls-3" d="M137.09,51.99l-3.48-2.01v-4.02l3.48-2.01,3.48,2.01v4.02l-3.48,2.01ZM133.93,49.8l3.15,1.82,3.15-1.82v-3.64l-3.15-1.82-3.15,1.82v3.64Z"/>
            <path class="cls-3" d="M146.86,53.8l-3.43-1.98v-3.96l3.43-1.98,3.43,1.98v3.96l-3.43,1.98ZM143.67,51.69l3.2,1.85,3.2-1.85v-3.69l-3.2-1.85-3.2,1.85v3.69Z"/>
            <polygon class="cls-3" points="130.8 40.56 134.23 38.58 134.23 34.65 133.82 34.65 133.99 34.75 133.99 38.44 130.8 40.29 127.6 38.44 127.6 34.75 127.77 34.65 127.36 34.65 127.36 38.58 130.8 40.56"/>
            <polygon class="cls-3" points="130.8 66.78 127.36 68.76 127.36 68.79 127.77 68.79 130.8 67.05 133.82 68.79 134.23 68.79 134.23 68.76 130.8 66.78"/>
            <path class="cls-3" d="M143.55,48.06l-3.43-1.98v-3.96l3.43-1.98,3.43,1.98v3.96l-3.43,1.98ZM140.35,45.94l3.2,1.85,3.2-1.85v-3.69l-3.2-1.85-3.2,1.85v3.69Z"/>
            <path class="cls-3" d="M133.77,63.24l-3.43-1.98v-3.96l3.43-1.98,3.43,1.98v3.96l-3.43,1.98ZM130.57,61.12l3.2,1.85,3.2-1.85v-3.69l-3.2-1.85-3.2,1.85v3.69Z"/>
            <polygon class="cls-3" points="127.02 59.34 127.02 55.38 123.59 53.4 121.95 54.34 121.95 54.62 123.59 53.67 126.79 55.51 126.79 59.21 123.59 61.05 121.95 60.1 121.95 60.38 123.59 61.32 127.02 59.34"/>
            <polygon class="cls-3" points="153.25 59.21 153.25 55.51 154.8 54.62 154.8 54.34 153.01 55.38 153.01 59.34 154.8 60.38 154.8 60.1 153.25 59.21"/>
            <path class="cls-3" d="M144.89,55.58l-3.43,1.98v3.96l3.43,1.98,3.43-1.98v-3.96l-3.43-1.98ZM144.77,55.92l.12-.07.12.07,2.96,1.71-2.96,1.71-.12.07-.12-.07-2.96-1.71,2.96-1.71ZM141.69,61.39v-3.56l2.96,1.71.12.07v3.56l-2.96-1.71-.12-.07ZM145.01,63.17v-3.56l.12-.07,2.96-1.71v3.56l-.12.07-2.96,1.71Z"/>
            <path class="cls-3" d="M130.34,49.5l-3.43,1.98v3.96l3.43,1.98,3.43-1.98v-3.96l-3.43-1.98ZM130.22,49.84l.12-.07.12.07,2.96,1.71-2.96,1.71-.12.07-.12-.07-2.96-1.71,2.96-1.71ZM127.14,55.31v-3.56l2.96,1.71.12.07v3.56l-2.96-1.71-.12-.07ZM130.45,57.09v-3.56l.12-.07,2.96-1.71v3.56l-.12.07-2.96,1.71Z"/>
          </g>
        </g>
      </g>
    </g>
    <text class="cls-4" transform="translate(86.52 76.9)"><tspan x="0" y="0">Building Collective Intelligence</tspan></text>
    <g id="Layer_1-2-2" data-name="Layer 1-2">
      <path class="cls-8" d="M51.33,13.7c-.1-.16-.31-.22-.48-.14l-13.1,6.15L49.62.6c.12-.16.09-.38-.06-.51s-.38-.11-.52.04c-4.75,5.28-12.72,14.13-16.66,18.46l.95-11.94c.03-.19-.08-.37-.26-.43-.18-.05-.38.04-.45.22l-6.03,14.73-2.93-5.57-.17-.43c-.06-.15-.22-.25-.38-.23-.17.02-.3.14-.33.31l-1.69,9.68c-.09.07-.19.14-.28.21L.62,7.41c-.14-.12-.36-.12-.5,0-.14.13-.16.34-.05.5l5.82,7.87c1.18,1.67,2.37,3.34,3.56,5,2.03,2.82,4.2,5.83,6.36,8.74-.59.6-1.18,1.22-1.76,1.87-4.35,4.87-7.38,10.04-8.66,14.31-1.11,3.71-.91,6.74.86,8.33.79.7,1.83,1.07,3.05,1.13,4.7.2,12.14-4.17,18.59-11.38.6-.67,1.17-1.34,1.72-2.02.39-.49.77-.97,1.13-1.46,0,0,5,3.24,6.16,4.09.45.33,1.01-.25.69-.69l-4.66-6.59c.17-.26.32-.52.48-.78.14-.22.27-.45.39-.67.13-.22.25-.44.37-.66l13.34-1.71c.3,0,.57-.22.63-.53.07-.36-.16-.7-.52-.77-2.06-.41-11.19-2.16-11.19-2.16.02-.07.07-.23.07-.23.21-.68.38-1.35.5-1.98l14.15-13.38.08-.06c.15-.12.19-.33.09-.49h0ZM20.19,25.59l.81.71c.1.09.24.12.37.07.13-.04.22-.15.24-.29l.32-1.81,1.33-7.62,2.6,6.5c.05.14.19.23.34.23h0c.15,0,.29-.09.35-.23l.81-1.99,4.58-11.19-2.04,11.34c-.02.13.02.26.12.35.1.08.24.11.36.07.06-.02.11-.04,1.88-1.97,1.75-1.91,5.18-5.69,11.95-13.21l-10.17,13.67-1.39,1.87c-.06.08-.08.19-.07.29,0,0,0,.02,0,.03.02.11.1.21.2.26.1.05.22.05.33,0l14.97-7.03-17.55,13.28c-.41.29-.26,1,.25,1.08,1.16.23,9.17,1.83,10.73,2.13l-12.14.36c-.42,0-.69.52-.43.86l6.11,8.49c-2.05-1.45-9.79-6.94-9.79-6.94-.15-.11-.35-.09-.48.04-.43.43-.52.46-.64.51-.13.05-.31.12-.7.41-.03.02-.05.04-.07.07l-7.4,9.56s2.72-6.21,3.04-6.93c.14-.32.29-.64.43-.94.13-.29.26-.57.38-.84.06-.14.05-.3-.04-.43-.02-.03-.05-.06-.08-.09-.13-.13-.22-.3-.27-.52-.14-.76.1-1.54.35-2.29.05-.15.03-.33-.07-.47-1.12-1.57-16.54-22.14-16.54-22.14l-.44-.6,17.45,15.32h0ZM12.4,35.16l6.19,1.02c.07.19.17.38.3.55-.13.31-.26.64-.4.97l-8.15.38c.86-1.39,2.06-2.92,2.06-2.92ZM7.01,53.19c-.7-.63-1.09-1.61-1.17-2.91-.08-1.51.27-3.34.98-5.33h0l11.05-5.76c-.16.4-.33.81-.5,1.23l-3.18,7.38-4.13,6.22c-1.3.08-2.34-.2-3.05-.83Z"/>
    </g>
  </g>
</svg>