<?xml version="1.0" encoding="UTF-8"?>
<svg id="MaleInsuranceAgentProtectsDataInformationAgainstCybercrimeRisksFromaHacker" xmlns="http://www.w3.org/2000/svg" version="1.1" viewBox="0 0 2039.2 2039.2">
  <!-- Generator: Adobe Illustrator 29.8.2, SVG Export Plug-In . SVG Version: 2.1.1 Build 3)  -->
  <defs>
    <style>
      .st0 {
        fill: #9bbdc6;
      }

      .st1 {
        fill: #db67e8;
      }

      .st2 {
        fill: #e600ff;
      }

      .st3, .st4 {
        fill: #345782;
      }

      .st5 {
        opacity: .36;
      }

      .st5, .st6 {
        fill: #205fac;
      }

      .st5, .st4 {
        isolation: isolate;
      }

      .st7 {
        fill: #de14f4;
      }

      .st8 {
        fill: #ba31c9;
      }

      .st9 {
        fill: #a82db5;
      }

      .st10 {
        fill: #612879;
      }

      .st11 {
        fill: #1e487c;
      }

      .st12 {
        fill: #c7f0ff;
      }

      .st13 {
        fill: #ace8ff;
      }

      .st14 {
        fill: #1e2030;
      }

      .st15, .st4 {
        opacity: .49;
      }

      .st16 {
        fill: #da18ef;
      }

      .st17 {
        fill: #954c9d;
      }

      .st18 {
        fill: #f3fcff;
      }

      .st19 {
        fill: #fafeff;
      }

      .st20 {
        fill: #be3bcc;
      }

      .st21 {
        fill: #cdedf9;
      }

      .st22 {
        fill: #8cd3ed;
      }

      .st23 {
        fill: #fcfcfc;
      }

      .st24 {
        fill: #87ddfd;
      }

      .st25 {
        fill: #e773f4;
      }

      .st26 {
        fill: #415d7f;
      }
    </style>
  </defs>
  <g>
    <path class="st0" d="M1953,1771.65l-1840.1,4.2s-60.4-56.1-100.1-241.9,17.3-341.9,122.6-463.7c31.1-36,53.3-77.5,51.2-123.6-.3-6.7-1-13.3-2.1-19.9-.5-3.2-1.1-6.4-1.7-9.5-5.6-28.6-16.1-56.6-22.4-85-11.6-52.9-4.2-105.4,12.7-156.5,11.7-35.6,27.6-70.1,46.9-103,23.5-40.3,52.2-78.2,85.3-112.8,38.9-40.8,83.9-76.9,133.1-107.8,39.4-24.7,81.5-45.9,125.3-63.9,10.1-2,21-5,32.7-9.2,332.3-119.1,821.6-41.3,1143.8,187,288.2,204.1,261.8,545.7,253,615.5,0,.4-.1.8-.2,1.2-.5,3.9-1.1,7.7-1.7,11.5-6.9,45.7-16.8,85.4-27.5,116.6-.7,2-1.4,4-2.1,6-3.8,10.6-7.7,20-11.7,28.3-87.5,184.3,57.5,237.8,66.7,360.4s-63.7,166.1-63.7,166.1h0Z"/>
    <ellipse class="st18" cx="123.6" cy="938.25" rx="47.9" ry="94.8"/>
    <ellipse class="st18" cx="1974.2" cy="1350.75" rx="35.6" ry="80"/>
  </g>
  <path class="st21" d="M1240.8,1298.15c-.6,0-1.3-.2-1.8-.6-1.3-1-1.6-2.9-.6-4.2,2.4-3.2,4.8-6.4,7.2-9.6,1-1.3,2.9-1.6,4.2-.6,1.3,1,1.6,2.9.6,4.2-2.4,3.2-4.8,6.4-7.2,9.6-.6.8-1.5,1.2-2.4,1.2h0ZM505.6,1673.95h-5.5c-1.7,0-3-1.4-3-3,0-1.7,1.4-3,3-3h9.5c4.8,0,9.6-.1,14.3-.2,1.7-.1,3,1.3,3.1,2.9,0,1.7-1.3,3-2.9,3.1-4.8.1-9.6.2-14.4.2h-4.1,0ZM476.2,1673.45h-.1c-8.1-.3-16.1-.8-24-1.3-1.7-.1-2.9-1.6-2.8-3.2.1-1.7,1.6-2.9,3.2-2.8,7.8.6,15.7,1,23.8,1.3,1.7.1,2.9,1.5,2.9,3.1-.1,1.6-1.4,2.9-3,2.9ZM547.8,1672.95c-1.6,0-2.9-1.2-3-2.8-.1-1.7,1.2-3.1,2.8-3.1,7.9-.4,15.9-.9,23.8-1.5,1.7-.1,3.1,1.1,3.2,2.8.1,1.7-1.1,3.1-2.8,3.2-7.9.6-16,1.1-23.9,1.5,0-.07-.03-.1-.1-.1ZM428.6,1669.85h-.3c-8-.9-16.1-2-23.8-3.2-1.6-.3-2.8-1.8-2.5-3.4s1.8-2.8,3.4-2.5c7.7,1.2,15.6,2.3,23.5,3.2,1.6.2,2.8,1.7,2.6,3.3-.1,1.5-1.4,2.6-2.9,2.6h0ZM595.5,1669.15c-1.5,0-2.8-1.1-3-2.7s1-3.1,2.7-3.3c7.8-.8,15.8-1.8,23.6-2.9,1.6-.2,3.2.9,3.4,2.6.2,1.6-.9,3.2-2.6,3.4-7.9,1.1-15.9,2-23.8,2.9h-.3ZM642.8,1662.75c-1.4,0-2.7-1-3-2.5-.3-1.6.8-3.2,2.5-3.4,7.8-1.3,15.7-2.7,23.5-4.2,1.6-.3,3.2.8,3.5,2.4s-.8,3.2-2.4,3.5c-7.8,1.5-15.8,2.9-23.6,4.2h-.5ZM381.4,1662.45c-.2,0-.4,0-.6-.1-7.9-1.6-15.8-3.5-23.4-5.5-1.6-.4-2.6-2.1-2.1-3.7s2.1-2.6,3.7-2.1c7.5,2,15.3,3.8,23.1,5.4,1.6.3,2.7,1.9,2.3,3.5-.4,1.5-1.6,2.5-3,2.5h0ZM689.8,1653.75c-1.4,0-2.6-1-2.9-2.4-.4-1.6.7-3.2,2.3-3.6,7.7-1.7,15.5-3.5,23.2-5.4,1.6-.4,3.2.6,3.6,2.2.4,1.6-.6,3.2-2.2,3.6-7.7,1.9-15.6,3.8-23.4,5.5-.2.1-.4.1-.6.1h0ZM335.2,1650.35c-.3,0-.6,0-.9-.1-7.7-2.5-15.3-5.2-22.7-8-1.5-.6-2.3-2.3-1.7-3.9.6-1.5,2.3-2.3,3.9-1.7,7.3,2.8,14.8,5.5,22.3,7.9,1.6.5,2.4,2.2,1.9,3.8-.4,1.2-1.6,2-2.8,2h0ZM736.2,1642.25c-1.3,0-2.5-.9-2.9-2.2-.4-1.6.5-3.2,2.1-3.7,7.6-2.1,15.3-4.3,22.9-6.6,1.6-.5,3.3.4,3.7,2,.5,1.6-.4,3.3-2,3.7-7.6,2.3-15.4,4.6-23,6.7-.3.1-.6.1-.8.1ZM290.7,1632.95c-.4,0-.9-.1-1.3-.3-5.3-2.5-10.6-5.1-15.7-7.8-2-1-3.9-2.1-5.8-3.2-1.4-.8-2-2.6-1.2-4.1.8-1.4,2.6-2,4.1-1.2,1.9,1,3.8,2.1,5.7,3.1,5,2.6,10.2,5.2,15.4,7.6,1.5.7,2.2,2.5,1.5,4-.5,1.3-1.6,1.9-2.7,1.9ZM781.9,1628.35c-1.3,0-2.4-.8-2.8-2.1-.5-1.6.3-3.3,1.9-3.8,7.5-2.5,15.1-5.1,22.5-7.8,1.6-.6,3.3.2,3.8,1.8.6,1.6-.2,3.3-1.8,3.8-7.5,2.7-15.1,5.4-22.7,7.9-.3.2-.6.2-.9.2ZM826.8,1612.05c-1.2,0-2.3-.7-2.8-1.9-.6-1.5.2-3.3,1.7-3.9,7.4-2.9,14.8-5.9,22.1-9,1.5-.6,3.3.1,3.9,1.6.6,1.5-.1,3.3-1.6,3.9-7.3,3.1-14.8,6.1-22.2,9-.3.3-.7.3-1.1.3h0ZM249.1,1609.65c-.6,0-1.2-.2-1.7-.5-6.6-4.5-13.1-9.4-19.4-14.4-1.3-1-1.5-2.9-.4-4.2,1-1.3,2.9-1.5,4.2-.4,6.1,5,12.5,9.7,18.9,14.1,1.4.9,1.7,2.8.8,4.2-.5.7-1.5,1.2-2.4,1.2h0ZM870.9,1593.55c-1.1,0-2.2-.7-2.7-1.8-.7-1.5,0-3.3,1.5-4,7.2-3.3,14.5-6.6,21.6-10.1,1.5-.7,3.3-.1,4,1.4s.1,3.3-1.4,4c-7.2,3.5-14.5,6.9-21.7,10.2-.5.2-.9.3-1.3.3h0ZM212.1,1579.45c-.8,0-1.5-.3-2.1-.8-5.7-5.6-11.3-11.5-16.6-17.6-1.1-1.3-.9-3.1.3-4.2,1.3-1.1,3.1-.9,4.2.3,5.2,6,10.6,11.7,16.2,17.2,1.2,1.2,1.2,3.1.1,4.2-.6.6-1.3.9-2.1.9h0ZM914,1572.75c-1.1,0-2.1-.6-2.7-1.6-.8-1.5-.2-3.3,1.3-4,7-3.6,14.1-7.4,21.1-11.2,1.5-.8,3.3-.3,4.1,1.2s.3,3.3-1.2,4.1c-7,3.8-14.1,7.6-21.2,11.2-.5.2-1,.3-1.4.3h0ZM955.9,1549.75c-1,0-2-.5-2.6-1.5-.8-1.4-.3-3.3,1.1-4.1,6.8-4,13.7-8.1,20.5-12.2,1.4-.9,3.3-.4,4.1,1,.9,1.4.4,3.3-1,4.1-6.8,4.2-13.7,8.3-20.6,12.3-.4.3-1,.4-1.5.4h0ZM180.8,1543.45c-.9,0-1.8-.4-2.4-1.2-4.7-6.4-9.2-13.2-13.4-20-.9-1.4-.4-3.3,1-4.1,1.4-.9,3.3-.4,4.1,1,4.1,6.7,8.6,13.3,13.2,19.6,1,1.3.7,3.2-.7,4.2-.5.3-1.2.5-1.8.5h0ZM996.7,1524.85c-1,0-1.9-.5-2.5-1.4-.9-1.4-.5-3.2.9-4.1,6.7-4.3,13.3-8.8,19.8-13.2,1.4-.9,3.2-.6,4.2.8.9,1.4.6,3.2-.8,4.2-6.6,4.5-13.3,9-20,13.3-.5.2-1,.4-1.6.4h0ZM155.8,1502.75c-1.1,0-2.1-.6-2.7-1.6-3.6-7.1-7.1-14.4-10.2-21.8-.6-1.5.1-3.3,1.6-3.9s3.3.1,3.9,1.6c3.1,7.3,6.5,14.5,10,21.4.8,1.5.2,3.3-1.3,4-.3.2-.8.3-1.3.3ZM1036.2,1497.85c-.9,0-1.9-.4-2.4-1.2-1-1.3-.7-3.2.7-4.2,6.4-4.6,12.8-9.4,19.2-14.2,1.3-1,3.2-.7,4.2.6,1,1.3.7,3.2-.6,4.2-6.4,4.8-12.8,9.6-19.3,14.3-.6.3-1.2.5-1.8.5h0ZM1074.3,1468.95c-.9,0-1.8-.4-2.3-1.1-1-1.3-.8-3.2.5-4.2,6.2-5,12.4-10,18.4-15.1,1.3-1.1,3.2-.9,4.2.4,1.1,1.3.9,3.2-.4,4.2-6.1,5.1-12.3,10.2-18.6,15.2-.5.3-1.2.6-1.8.6h0ZM137.2,1458.85c-1.2,0-2.4-.8-2.8-2-2.6-7.5-5-15.3-7.1-23-.4-1.6.5-3.2,2.1-3.7,1.6-.4,3.2.5,3.7,2.1,2.1,7.6,4.4,15.3,6.9,22.6.5,1.6-.3,3.3-1.9,3.8-.3.1-.6.2-.9.2ZM1110.9,1438.15c-.8,0-1.7-.3-2.2-1-1.1-1.2-1-3.1.3-4.2,5.9-5.2,11.9-10.6,17.7-16,1.2-1.1,3.1-1.1,4.2.2,1.1,1.2,1.1,3.1-.2,4.2-5.8,5.4-11.8,10.8-17.8,16.1-.6.4-1.3.7-2,.7h0ZM124.7,1412.75c-1.4,0-2.6-1-2.9-2.4-1.6-7.8-2.9-15.8-4-23.7-.2-1.6.9-3.2,2.6-3.4,1.6-.2,3.2.9,3.4,2.6,1.1,7.8,2.4,15.7,4,23.4.3,1.6-.7,3.2-2.3,3.5,0,0-.8,0-.8,0ZM1145.9,1405.65c-.8,0-1.6-.3-2.1-.9-1.2-1.2-1.1-3.1.1-4.2,5.7-5.5,11.3-11.2,16.9-16.9,1.2-1.2,3.1-1.2,4.2-.1,1.2,1.2,1.2,3.1.1,4.2-5.5,5.7-11.3,11.4-17,17-.7.6-1.4.9-2.2.9ZM1179.3,1371.35c-.7,0-1.5-.3-2-.8-1.2-1.1-1.3-3-.2-4.2,5.4-5.8,10.8-11.7,16-17.7,1.1-1.2,3-1.4,4.2-.3s1.4,3,.3,4.2c-5.3,6-10.7,12-16.1,17.8-.6.7-1.4,1-2.2,1h0ZM118.2,1365.45c-1.6,0-2.9-1.2-3-2.8-.6-8-1-16-1.1-24,0-1.7,1.3-3,3-3h0c1.6,0,3,1.3,3,3,.1,7.9.5,15.9,1.1,23.7.1,1.7-1.1,3.1-2.8,3.2-.1-.1-.2-.1-.2-.1h0ZM1211,1335.55c-.7,0-1.4-.2-1.9-.7-1.3-1.1-1.4-3-.4-4.2,5.1-6.1,10.2-12.3,15.1-18.5,1-1.3,2.9-1.5,4.2-.5,1.3,1,1.5,2.9.5,4.2-5,6.2-10.1,12.5-15.2,18.6-.6.7-1.5,1.1-2.3,1.1h0ZM117.4,1317.75h-.1c-1.7-.1-2.9-1.5-2.9-3.1.4-8,1-16.1,1.8-24,.2-1.6,1.6-2.9,3.3-2.7,1.6.2,2.8,1.6,2.7,3.3-.8,7.8-1.4,15.8-1.8,23.6-.1,1.6-1.4,2.9-3,2.9h0ZM122.4,1270.25h-.5c-1.6-.3-2.7-1.8-2.5-3.4,1.3-7.9,2.9-15.9,4.6-23.6.4-1.6,2-2.6,3.6-2.3,1.6.4,2.6,2,2.3,3.6-1.7,7.7-3.3,15.5-4.6,23.3-.2,1.3-1.5,2.4-2.9,2.4ZM133,1223.65c-.3,0-.6,0-.8-.1-1.6-.5-2.5-2.1-2-3.7,2.3-7.7,4.8-15.4,7.5-22.9.6-1.6,2.3-2.4,3.8-1.8,1.6.6,2.4,2.3,1.8,3.8-2.7,7.4-5.2,14.9-7.4,22.5-.4,1.3-1.6,2.2-2.9,2.2h0ZM149.3,1178.75c-.4,0-.8-.1-1.2-.3-1.5-.7-2.2-2.4-1.5-4,3.2-7.4,6.8-14.7,10.5-21.7.8-1.5,2.6-2,4.1-1.3,1.5.8,2,2.6,1.3,4-3.6,6.9-7.1,14.1-10.3,21.3-.6,1.3-1.7,2-2.9,2h0ZM171.5,1136.45c-.5,0-1.1-.1-1.6-.4-1.4-.9-1.8-2.7-1-4.1,4.2-6.9,8.8-13.6,13.4-20,1-1.3,2.8-1.6,4.2-.7,1.3,1,1.6,2.8.7,4.2-4.6,6.3-9,12.9-13.2,19.7-.5.8-1.5,1.3-2.5,1.3h0ZM199.6,1097.85c-.7,0-1.4-.2-1.9-.7-1.3-1.1-1.4-3-.3-4.2,1.1-1.3,2.3-2.6,3.4-4,4.7-5.4,9.6-10,13.3-13.5,1.2-1.1,3.1-1.1,4.2.1,1.1,1.2,1.1,3.1-.1,4.2-3.6,3.4-8.4,7.9-12.9,13.1-1.1,1.3-2.3,2.6-3.4,3.9-.6.8-1.4,1.1-2.3,1.1ZM896.4,1091.85c-6.3,0-12.9-.2-19.5-.6-1.7-.1-2.9-1.5-2.8-3.2.1-1.7,1.5-2.9,3.2-2.8,6.5.4,12.9.6,19.1.6h4.5c1.7,0,3,1.3,3,3s-1.3,3-3,3h-4.5ZM924.8,1090.35c-1.5,0-2.8-1.1-3-2.7s1-3.1,2.7-3.3c8-.9,15.8-2.1,23.3-3.8,1.6-.4,3.2.7,3.6,2.3.4,1.6-.7,3.2-2.3,3.6-7.7,1.7-15.7,3-23.9,3.9h-.4,0ZM853.3,1088.95h-.4c-7.7-1-15.7-2.3-23.8-3.8-1.6-.3-2.7-1.9-2.4-3.5s1.9-2.7,3.5-2.4c7.9,1.5,15.8,2.8,23.4,3.8,1.6.2,2.8,1.7,2.6,3.4-.1,1.4-1.4,2.5-2.9,2.5h0ZM806.4,1080.05c-.2,0-.5,0-.7-.1-2.1-.5-4.2-1-6.2-1.6-5.5-1.4-11.2-2.9-17-4.6-1.6-.5-2.5-2.1-2.1-3.7.5-1.6,2.1-2.5,3.7-2.1,5.7,1.6,11.4,3.2,16.8,4.5,2,.5,4.1,1,6.2,1.5,1.6.4,2.6,2,2.2,3.6-.3,1.6-1.6,2.5-2.9,2.5h0ZM971.4,1080.05c-1.2,0-2.4-.8-2.8-2-.6-1.6.3-3.3,1.8-3.8,5.7-2,11.3-4.3,16.6-6.8,1.6-.8,3.3-1.6,4.9-2.4,1.5-.8,3.3-.2,4,1.3.8,1.5.2,3.3-1.3,4-1.7.9-3.4,1.7-5.1,2.5-5.5,2.6-11.3,5-17.2,7-.3.1-.6.2-.9.2h0ZM760.4,1067.05c-.3,0-.6,0-.9-.1-7-2.2-14.4-4.6-22.8-7.4-1.6-.5-2.4-2.2-1.9-3.8s2.2-2.4,3.8-1.9c8.3,2.8,15.7,5.2,22.7,7.4,1.6.5,2.5,2.2,2,3.8-.4,1.2-1.6,2-2.9,2h0ZM234.2,1064.95c-.9,0-1.8-.4-2.4-1.1-1-1.3-.8-3.2.5-4.2,6.4-5,13-9.7,19.8-14,1.4-.9,3.3-.5,4.1.9.9,1.4.5,3.3-.9,4.1-6.6,4.1-13,8.7-19.2,13.6-.6.5-1.3.7-1.9.7h0ZM1013.8,1058.35c-1,0-1.9-.5-2.5-1.3-.9-1.4-.6-3.2.8-4.2,6.3-4.4,12.5-9.2,18.5-14.5,1.2-1.1,3.1-1,4.2.3,1.1,1.2,1,3.1-.3,4.2-6.1,5.4-12.6,10.5-19.1,15-.4.3-1,.5-1.6.5h0ZM715.1,1051.85c-.3,0-.7-.1-1-.2l-8.1-2.8c-4.8-1.7-9.6-3.3-14.4-5-1.6-.5-2.4-2.2-1.9-3.8s2.2-2.4,3.8-1.9c4.8,1.7,9.6,3.3,14.4,5l8.1,2.8c1.6.5,2.4,2.3,1.9,3.8-.4,1.3-1.6,2.1-2.8,2.1ZM274.4,1039.35c-1.1,0-2.1-.6-2.7-1.6-.8-1.5-.2-3.3,1.3-4,7.1-3.7,14.4-7.2,21.8-10.4,1.5-.7,3.3,0,3.9,1.6.7,1.5,0,3.3-1.6,3.9-7.3,3.1-14.4,6.6-21.4,10.2-.3.2-.8.3-1.3.3h0ZM669.9,1036.35c-.3,0-.6,0-.9-.2-8.2-2.7-15.6-5.1-22.7-7.3-1.6-.5-2.5-2.2-2-3.8s2.2-2.5,3.8-2c7.1,2.2,14.6,4.6,22.8,7.3,1.6.5,2.4,2.2,1.9,3.8-.5,1.4-1.6,2.2-2.9,2.2h0ZM1049.6,1026.85c-.7,0-1.4-.3-2-.8-1.2-1.1-1.3-3-.2-4.2,5.2-5.7,10.3-11.8,15.1-18.2,1-1.3,2.9-1.6,4.2-.6,1.3,1,1.6,2.9.6,4.2-4.9,6.5-10.1,12.8-15.4,18.6-.7.7-1.5,1-2.3,1h0ZM624.2,1022.35c-.3,0-.5,0-.8-.1-7.7-2.1-15.4-4.1-23-5.9-1.6-.4-2.6-2-2.2-3.6.4-1.6,2-2.6,3.6-2.2,7.7,1.8,15.5,3.9,23.2,6,1.6.4,2.5,2.1,2.1,3.7-.4,1.3-1.6,2.1-2.9,2.1h0ZM318.2,1020.35c-1.2,0-2.4-.8-2.8-2-.5-1.6.3-3.3,1.8-3.8,7.5-2.6,15.2-5.1,23-7.2,1.6-.4,3.2.5,3.7,2.1.4,1.6-.5,3.2-2.1,3.7-7.6,2.1-15.3,4.5-22.6,7.1-.3.1-.6.1-1,.1h0ZM577.7,1011.25c-.2,0-.4,0-.6-.1-7.8-1.6-15.7-3.1-23.4-4.4-1.6-.3-2.7-1.8-2.5-3.5.3-1.6,1.8-2.7,3.5-2.5,7.8,1.3,15.7,2.8,23.6,4.4,1.6.3,2.7,1.9,2.3,3.5-.2,1.6-1.5,2.6-2.9,2.6h0ZM364.2,1007.55c-1.4,0-2.6-1-2.9-2.4-.3-1.6.7-3.2,2.3-3.6,7.7-1.6,15.7-3.1,23.7-4.3,1.6-.2,3.2.9,3.4,2.5.2,1.6-.9,3.2-2.5,3.4-7.9,1.2-15.7,2.6-23.3,4.2-.3.2-.5.2-.7.2h0ZM530.6,1003.35h-.4c-7.9-1-15.9-1.9-23.6-2.6-1.7-.2-2.9-1.6-2.7-3.3.1-1.7,1.6-2.9,3.3-2.7,7.9.7,15.9,1.6,23.9,2.7,1.6.2,2.8,1.7,2.6,3.4-.3,1.4-1.6,2.5-3.1,2.5h0ZM411.4,1000.45c-1.5,0-2.8-1.2-3-2.7-.2-1.6,1.1-3.1,2.7-3.3,7.8-.7,15.9-1.3,24-1.6,1.7-.1,3.1,1.2,3.1,2.9.1,1.7-1.2,3.1-2.9,3.1-8,.3-15.9.9-23.7,1.6h-.2ZM483.1,999.05h-.2c-8-.4-16-.6-23.7-.7-1.7,0-3-1.4-3-3,0-1.7,1.3-3,3-3h0c7.9,0,16,.3,24,.7,1.7.1,2.9,1.5,2.8,3.1,0,1.6-1.4,2.9-2.9,2.9h0ZM1078.3,988.75c-.5,0-1.1-.1-1.6-.5-1.4-.9-1.8-2.7-.9-4.1,4.1-6.6,8.1-13.5,11.8-20.5.8-1.5,2.6-2,4-1.3,1.5.8,2,2.6,1.3,4.1-3.8,7.2-7.8,14.2-12,20.9-.6.9-1.6,1.4-2.6,1.4h0ZM1100.5,946.55c-.4,0-.8-.1-1.2-.2-1.5-.7-2.2-2.4-1.6-3.9,3.1-7.3,6-14.7,8.5-22.1.5-1.6,2.2-2.4,3.8-1.9,1.6.5,2.4,2.2,1.9,3.8-2.6,7.5-5.5,15.1-8.7,22.5-.4,1.1-1.5,1.8-2.7,1.8h0ZM1115.9,901.35c-.2,0-.5,0-.7-.1-1.6-.4-2.6-2-2.2-3.6,1.9-7.8,3.5-15.5,4.6-23.1.2-1.6,1.8-2.8,3.4-2.5,1.6.2,2.8,1.8,2.5,3.4-1.2,7.8-2.8,15.8-4.7,23.7-.3,1.3-1.5,2.2-2.9,2.2h0ZM1122.9,854.15h-.1c-1.7-.1-2.9-1.5-2.9-3.1.1-2.8.2-5.5.2-8.2,0-5.2-.2-10.3-.6-15.3-.1-1.7,1.1-3.1,2.7-3.2,1.7-.1,3.1,1.1,3.2,2.7.4,5.1.6,10.4.6,15.8,0,2.8-.1,5.7-.2,8.5,0,1.5-1.3,2.8-2.9,2.8h0ZM515,823.45c-2.7,0-5.3-.1-7.9-.2-1.7-.1-2.9-1.5-2.9-3.1.1-1.7,1.5-2.9,3.1-2.9,7.5.3,15.4.2,23.5-.5,1.7-.1,3.1,1.1,3.2,2.7.1,1.7-1.1,3.1-2.7,3.2-5.5.6-11,.8-16.3.8h0ZM483.5,820.55c-.2,0-.4,0-.6-.1-8.1-1.6-16-3.8-23.4-6.7-1.5-.6-2.3-2.3-1.7-3.9.6-1.5,2.3-2.3,3.9-1.7,7.2,2.7,14.7,4.9,22.5,6.4,1.6.3,2.7,1.9,2.4,3.5-.4,1.5-1.7,2.5-3.1,2.5h0ZM554.8,819.65c-1.4,0-2.7-1-2.9-2.5-.3-1.6.8-3.2,2.4-3.5,7.4-1.3,15.2-3.1,23.1-5.1,1.6-.4,3.2.5,3.7,2.1.4,1.6-.5,3.2-2.1,3.7-8.1,2.1-16,3.9-23.5,5.2-.4.1-.6.1-.7.1ZM601,807.65c-1.3,0-2.4-.8-2.9-2.1-.5-1.6.3-3.3,1.9-3.8,3.3-1.1,6.8-2.3,10.3-3.5,4-1.4,8-2.9,12.1-4.4,1.6-.6,3.3.2,3.9,1.8.6,1.6-.2,3.3-1.8,3.9-4.1,1.5-8.2,3-12.2,4.4-3.5,1.2-7,2.4-10.4,3.5-.3.2-.6.2-.9.2h0ZM1118.8,806.65c-1.4,0-2.6-.9-2.9-2.3-1.8-7.7-4.1-15.2-6.9-22.3-.6-1.5.1-3.3,1.7-3.9,1.5-.6,3.3.1,3.9,1.7,3,7.4,5.4,15.2,7.2,23.2.4,1.6-.6,3.2-2.3,3.6h-.7,0ZM439.1,803.45c-.5,0-1.1-.1-1.6-.4-6.8-4.2-13.4-9.1-19.6-14.5-1.2-1.1-1.4-3-.3-4.2s3-1.4,4.2-.3c5.9,5.2,12.2,9.9,18.7,13.9,1.4.9,1.9,2.7,1,4.1-.4.9-1.3,1.4-2.4,1.4h0ZM645.8,791.15c-1.2,0-2.3-.7-2.8-1.9-.6-1.5.1-3.3,1.7-3.9,7.1-2.9,14.3-5.9,22-9.2,1.5-.7,3.3,0,3.9,1.6.7,1.5,0,3.3-1.6,3.9-7.8,3.3-15,6.4-22.1,9.3-.3.1-.7.2-1.1.2h0ZM689.7,772.25c-1.1,0-2.2-.7-2.7-1.8-.7-1.5,0-3.3,1.5-4,6.6-3,13.5-6.1,21.7-9.9,1.5-.7,3.3,0,4,1.5s0,3.3-1.5,4c-8.3,3.8-15.2,7-21.8,9.9-.4.2-.8.3-1.2.3ZM403.4,772.15c-.9,0-1.7-.4-2.3-1.1-5.1-6.1-9.8-12.8-14.1-19.8-.9-1.4-.4-3.3,1-4.1,1.4-.9,3.3-.4,4.1,1,4.1,6.8,8.7,13.2,13.6,19.1,1.1,1.3.9,3.2-.4,4.2-.5.4-1.2.7-1.9.7h0ZM1101,762.55c-1,0-2-.5-2.6-1.4-4-6.6-8.7-12.9-13.9-18.8-1.1-1.2-1-3.1.3-4.2,1.2-1.1,3.1-1,4.2.3,5.4,6.2,10.2,12.8,14.4,19.6.9,1.4.4,3.3-1,4.1-.3.3-.9.4-1.4.4h0ZM733.1,752.25c-1.1,0-2.2-.6-2.7-1.7-.7-1.5,0-3.3,1.5-4,7.2-3.4,14.5-6.7,21.7-10,1.5-.7,3.3,0,4,1.5s0,3.3-1.5,4c-7.2,3.3-14.5,6.7-21.7,10-.4.1-.8.2-1.3.2ZM776.6,732.35c-1.1,0-2.2-.7-2.7-1.8-.7-1.5,0-3.3,1.5-4,3.6-1.6,7.2-3.2,10.8-4.8,3.7-1.6,7.4-3.2,11.2-4.8,1.5-.6,3.3.1,3.9,1.6.6,1.5-.1,3.3-1.6,3.9-3.7,1.6-7.4,3.2-11.1,4.8-3.6,1.6-7.2,3.2-10.7,4.8-.5.2-.9.3-1.3.3h0ZM378.5,731.55c-1.1,0-2.2-.7-2.7-1.8-3.3-7.3-6.1-15-8.5-22.7-.5-1.6.4-3.3,2-3.7,1.6-.5,3.3.4,3.7,2,2.3,7.5,5,14.9,8.2,22,.7,1.5,0,3.3-1.5,4-.4.1-.8.2-1.2.2ZM1069.8,726.65c-.7,0-1.4-.2-1.9-.7-5.9-4.9-12.3-9.6-19-13.7-1.4-.9-1.8-2.7-1-4.1.9-1.4,2.7-1.8,4.1-1,7,4.3,13.6,9.1,19.7,14.2,1.3,1.1,1.4,3,.4,4.2-.6.7-1.4,1.1-2.3,1.1h0ZM820.5,713.65c-1.2,0-2.3-.7-2.8-1.9-.6-1.5.2-3.3,1.7-3.9,7.8-3,15.3-5.9,22.5-8.4,1.6-.5,3.3.3,3.8,1.8.5,1.6-.3,3.3-1.8,3.8-7.1,2.5-14.6,5.3-22.3,8.3-.3.3-.7.3-1.1.3h0ZM1029.3,701.55c-.4,0-.8-.1-1.2-.3-7.1-3.2-14.5-5.9-22-8.2-1.6-.5-2.5-2.2-2-3.7.5-1.6,2.1-2.5,3.7-2,7.8,2.3,15.4,5.2,22.7,8.4,1.5.7,2.2,2.4,1.5,4-.4,1.1-1.5,1.8-2.7,1.8h0ZM865.7,698.05c-1.3,0-2.5-.9-2.9-2.2-.5-1.6.4-3.3,2-3.7,7.9-2.3,15.8-4.3,23.3-6,1.6-.4,3.2.7,3.6,2.3.4,1.6-.7,3.2-2.3,3.6-7.4,1.7-15.1,3.7-22.9,5.9-.2.1-.5.1-.8.1h0ZM983.7,687.75h-.5c-7.1-1.2-14.4-2-21.6-2.4-.6,0-1.2-.1-1.8-.1-1.7-.1-2.9-1.5-2.9-3.1.1-1.7,1.5-2.9,3.1-2.9.6,0,1.2.1,1.8.1,7.4.4,14.9,1.2,22.3,2.5,1.6.3,2.7,1.8,2.5,3.5-.2,1.4-1.5,2.4-2.9,2.4h0ZM912.3,687.75c-1.5,0-2.7-1.1-3-2.6-.2-1.6.9-3.2,2.5-3.4,8.1-1.2,16.2-2,24-2.4,1.6-.1,3.1,1.2,3.2,2.8.1,1.7-1.2,3.1-2.8,3.2-7.6.4-15.5,1.2-23.5,2.4h-.4ZM364.6,685.95c-1.4,0-2.7-1-3-2.5-1.4-8-2.3-16.1-2.6-24.1-.1-1.7,1.2-3.1,2.9-3.1,1.7-.1,3.1,1.2,3.1,2.9.4,7.8,1.2,15.6,2.6,23.4.3,1.6-.8,3.2-2.4,3.5-.3-.1-.4-.1-.6-.1h0ZM362.5,638.35h-.3c-1.7-.1-2.9-1.6-2.7-3.2.3-3.2.6-6.5,1.1-9.7.7-4.8,1.5-9.6,2.6-14.3.3-1.6,1.9-2.7,3.6-2.3,1.6.4,2.6,1.9,2.3,3.6-1,4.6-1.8,9.3-2.5,13.9-.4,3.1-.8,6.2-1.1,9.3-.2,1.5-1.5,2.7-3,2.7ZM372.5,591.75c-.3,0-.7-.1-1-.2-1.6-.5-2.4-2.2-1.9-3.8,2.6-7.6,5.7-15.1,9.2-22.4.7-1.5,2.5-2.1,4-1.4s2.1,2.5,1.4,4c-3.4,7.1-6.4,14.4-8.9,21.8-.4,1.2-1.6,2-2.8,2h0ZM1021.8,577.35h0c-8.1-.2-16.2-.6-24.1-1.4-1.6-.2-2.9-1.6-2.7-3.3.2-1.6,1.6-2.9,3.3-2.7,7.8.7,15.8,1.2,23.6,1.3,1.7,0,3,1.4,2.9,3.1,0,1.7-1.3,3-3,3h0ZM1045.7,576.95c-1.6,0-2.9-1.2-3-2.8-.1-1.7,1.2-3.1,2.8-3.2,7.8-.4,15.8-1.1,23.6-2.2,1.6-.2,3.1.9,3.4,2.6.2,1.6-.9,3.1-2.6,3.4-7.9,1-16,1.8-24,2.2h-.2ZM974.3,572.85h-.5c-7.9-1.3-15.8-3-23.6-4.9-1.6-.4-2.6-2-2.2-3.6.4-1.6,2-2.6,3.6-2.2,7.6,1.9,15.4,3.5,23.2,4.8,1.6.3,2.7,1.8,2.5,3.5-.3,1.4-1.6,2.4-3,2.4ZM1093.1,570.85c-1.4,0-2.6-1-2.9-2.4-.3-1.6.7-3.2,2.3-3.5,7.7-1.6,15.4-3.5,23-5.6,1.6-.5,3.3.5,3.7,2.1.5,1.6-.5,3.3-2.1,3.7-7.7,2.2-15.6,4.1-23.4,5.7h-.6ZM928,561.45c-.3,0-.6,0-.9-.1-7.3-2.4-14.9-5.1-22.6-8.1-1.5-.6-2.3-2.3-1.7-3.9.6-1.5,2.3-2.3,3.9-1.7,7.6,3,15.1,5.7,22.3,8,1.6.5,2.4,2.2,1.9,3.8-.5,1.2-1.7,2-2.9,2ZM1139,557.85c-1.2,0-2.4-.7-2.8-1.9-.6-1.6.2-3.3,1.8-3.9,7.8-2.9,15-6.2,21.3-9.7,1.5-.8,3.3-.3,4.1,1.2.8,1.5.3,3.3-1.2,4.1-6.6,3.7-14.1,7-22.1,10.1-.4,0-.8.1-1.1.1h0ZM393,548.65c-.5,0-1.1-.1-1.6-.5-1.4-.9-1.8-2.7-1-4.1,4.2-6.8,8.9-13.5,13.9-19.8,1-1.3,2.9-1.5,4.2-.5,1.3,1,1.5,2.9.5,4.2-4.8,6.2-9.4,12.7-13.5,19.3-.5.9-1.5,1.4-2.5,1.4h0ZM883.4,544.15c-.4,0-.8-.1-1.2-.3-6.9-3.1-14-6.4-21.7-10.1-1.5-.7-2.1-2.5-1.4-4,.7-1.5,2.5-2.1,4-1.4,7.6,3.7,14.7,7,21.6,10.1,1.5.7,2.2,2.4,1.5,4-.5,1-1.6,1.7-2.8,1.7h0ZM1180.3,534.35c-.8,0-1.7-.3-2.2-1-1.1-1.2-1-3.1.3-4.2,6-5.4,10.9-11.3,14.6-17.6.8-1.4,2.7-1.9,4.1-1.1s1.9,2.7,1.1,4.1c-3.9,6.9-9.2,13.3-15.8,19.1-.7.4-1.4.7-2.1.7h0ZM840.4,523.35c-.5,0-.9-.1-1.4-.3-7.4-3.8-14.9-7.7-21.2-11-1.5-.8-2-2.6-1.3-4,.8-1.5,2.6-2,4-1.3,6.3,3.3,13.8,7.2,21.2,11,1.5.8,2.1,2.6,1.3,4-.4,1-1.5,1.6-2.6,1.6ZM422.4,511.15c-.8,0-1.5-.3-2.1-.8-1.2-1.2-1.2-3.1-.1-4.2,5.6-5.8,11.5-11.3,17.7-16.5,1.3-1.1,3.2-.9,4.2.4,1.1,1.3.9,3.2-.4,4.2-6,5-11.8,10.5-17.2,16.1-.5.5-1.3.8-2.1.8ZM798,501.25c-.5,0-.9-.1-1.4-.3-8.2-4.3-15-7.7-21.2-10.9-1.5-.7-2.1-2.5-1.3-4,.7-1.5,2.5-2.1,4-1.3,6.3,3.2,13,6.6,21.3,10.9,1.5.8,2,2.6,1.3,4-.5,1-1.6,1.6-2.7,1.6h0ZM1203.2,493.55h-.4c-1.6-.2-2.8-1.8-2.5-3.4.4-2.9.6-5.9.6-8.9,0-4.5-.5-9.1-1.4-13.9-.3-1.6.7-3.2,2.4-3.5,1.6-.3,3.2.7,3.5,2.4,1,5.1,1.5,10.1,1.5,15,0,3.3-.2,6.6-.7,9.8-.2,1.4-1.5,2.5-3,2.5ZM458.9,480.35c-1,0-1.9-.5-2.5-1.3-.9-1.4-.6-3.2.8-4.2,6.7-4.5,13.7-8.7,20.7-12.5,1.5-.8,3.3-.2,4.1,1.2.8,1.5.2,3.3-1.2,4.1-6.9,3.7-13.7,7.7-20.2,12.2-.5.4-1.1.5-1.7.5h0ZM755.3,479.85c-.4,0-.9-.1-1.3-.3-7.6-3.6-14.7-6.8-21.7-9.7-1.5-.6-2.2-2.4-1.6-3.9.6-1.5,2.4-2.2,3.9-1.6,7,3,14.2,6.2,21.9,9.8,1.5.7,2.1,2.5,1.4,4-.4,1.1-1.5,1.7-2.6,1.7h0ZM711.3,461.25c-.3,0-.7-.1-1-.2-3.4-1.3-6.9-2.5-10.2-3.6-4-1.4-8.2-2.7-12.2-3.9-1.6-.5-2.5-2.1-2-3.7s2.1-2.5,3.7-2c4.2,1.2,8.3,2.5,12.5,3.9,3.4,1.1,6.9,2.4,10.4,3.6,1.6.6,2.4,2.3,1.8,3.8-.6,1.4-1.8,2.1-3,2.1h0ZM913.7,458.55c-.8,0-1.5-.3-2.1-.8-5.7-5.6-10.7-12.6-14.4-20.2-.7-1.5-.1-3.3,1.4-4s3.3-.1,4,1.4c3.4,7,8,13.4,13.2,18.5,1.2,1.2,1.2,3.1.1,4.2-.6.6-1.4.9-2.2.9ZM501.1,458.05c-1.2,0-2.3-.7-2.8-1.9-.6-1.5.1-3.3,1.7-3.9,7.4-3,15.1-5.6,22.9-7.8,1.6-.5,3.3.5,3.7,2.1.5,1.6-.5,3.3-2.1,3.7-7.6,2.2-15.1,4.8-22.3,7.7-.4,0-.8.1-1.1.1h0ZM665.5,447.75c-.2,0-.4,0-.7-.1-7.7-1.7-15.6-3.2-23.3-4.3-1.6-.2-2.8-1.8-2.5-3.4.2-1.6,1.8-2.8,3.4-2.5,7.9,1.2,15.8,2.6,23.7,4.4,1.6.4,2.6,2,2.3,3.6-.3,1.4-1.5,2.3-2.9,2.3ZM1195,447.15c-1.1,0-2.2-.7-2.7-1.8-3.1-6.7-6.9-13.5-11.5-20.3-.9-1.4-.6-3.2.8-4.2,1.4-.9,3.2-.6,4.2.8,4.8,7.1,8.8,14.2,12,21.2.7,1.5,0,3.3-1.5,4-.5.2-.9.3-1.3.3ZM546.9,444.75c-1.4,0-2.7-1-2.9-2.4-.3-1.6.8-3.2,2.4-3.5,7.8-1.5,15.9-2.6,23.9-3.4,1.6-.2,3.1,1.1,3.3,2.7s-1.1,3.1-2.7,3.3c-7.9.8-15.8,1.9-23.4,3.3h-.6ZM618.3,440.85h-.2c-7.9-.6-15.8-.8-23.6-.7-1.6,0-3-1.3-3-3s1.3-3,3-3c7.9-.1,16,.2,24.1.7,1.7.1,2.9,1.5,2.8,3.2-.3,1.6-1.6,2.8-3.1,2.8ZM893,416.45c-1.5,0-2.8-1.1-3-2.6-.4-3-.6-6.1-.6-9.1,0-2.1.1-4.3.3-6.4.3-3.1.8-6.2,1.4-9.3.3-1.6,1.9-2.7,3.6-2.3,1.6.3,2.7,1.9,2.3,3.6-.6,2.8-1.1,5.7-1.3,8.6-.2,1.9-.3,3.9-.3,5.8,0,2.8.2,5.6.5,8.3.2,1.6-.9,3.1-2.6,3.4h-.3ZM1168.5,407.55c-.8,0-1.7-.3-2.3-1-5.1-5.9-10.6-11.7-16.3-17.1-1.2-1.1-1.2-3-.1-4.2s3-1.2,4.2-.1c5.8,5.6,11.4,11.4,16.7,17.5,1.1,1.2,1,3.1-.3,4.2-.5.4-1.2.7-1.9.7h0ZM1134.1,374.45c-.7,0-1.3-.2-1.9-.7-6.1-4.9-12.5-9.6-19.1-14-1.4-.9-1.8-2.8-.8-4.2.9-1.4,2.8-1.8,4.2-.8,6.7,4.4,13.2,9.2,19.5,14.3,1.3,1,1.5,2.9.5,4.2-.6.8-1.5,1.2-2.4,1.2h0ZM902.5,370.35c-.5,0-1-.1-1.4-.4-1.5-.8-2-2.6-1.2-4.1,3.9-7.1,8.8-13.8,14.6-19.8,1.1-1.2,3-1.2,4.2-.1s1.2,3,.1,4.2c-5.4,5.7-10,11.9-13.6,18.6-.6,1.1-1.7,1.6-2.7,1.6h0ZM1094.4,348.05c-.5,0-1-.1-1.4-.4-6.9-3.7-14.1-7.2-21.3-10.2-1.5-.6-2.2-2.4-1.6-3.9s2.4-2.2,3.9-1.6c7.4,3.1,14.7,6.7,21.8,10.5,1.5.8,2,2.6,1.2,4.1-.5.9-1.5,1.5-2.6,1.5ZM935,336.05c-1,0-2-.5-2.5-1.4-.9-1.4-.5-3.3.9-4.1,5.4-3.4,11-6.3,16.8-8.5,1.8-.7,3.6-1.4,5.4-2,1.6-.5,3.3.3,3.8,1.9s-.3,3.3-1.9,3.8c-1.7.6-3.4,1.2-5.1,1.8-5.4,2.1-10.7,4.8-15.8,8-.5.3-1.1.5-1.6.5h0ZM1050.5,329.35c-.3,0-.6,0-.9-.1-1.8-.6-3.5-1.1-5.3-1.6-5.9-1.7-11.8-3.2-17.5-4.3-1.6-.3-2.7-1.9-2.4-3.5.3-1.6,1.9-2.7,3.5-2.4,5.9,1.2,11.9,2.7,18,4.4,1.8.5,3.6,1.1,5.4,1.6,1.6.5,2.5,2.2,2,3.8-.4,1.3-1.5,2.1-2.8,2.1h0ZM979.8,320.85c-1.5,0-2.8-1.1-3-2.7s1-3.1,2.6-3.3c7.8-.9,16-1.1,24.4-.6,1.7.1,2.9,1.5,2.8,3.2-.1,1.7-1.5,2.9-3.2,2.8-8-.5-15.9-.3-23.3.5,0,.1-.2.1-.3.1ZM945.5,473.25h-.2c-4.2-.2-8.5-1-12.6-2.4-1.6-.5-2.4-2.2-1.9-3.8s2.2-2.4,3.8-1.9c3.6,1.2,7.3,1.9,11,2.1,1.7.1,2.9,1.5,2.8,3.1,0,1.7-1.3,2.9-2.9,2.9h0Z"/>
  <g>
    <g>
      <path class="st10" d="M1244.2,1736.65s-100.6,63.4-205.2,35.9-133.4-68.9-75.2-86.4,220.6,19.4,280.4,50.5Z"/>
      <path class="st26" d="M1006.2,1744.05h0c-.1-.8.5-1.6,1.4-1.9l49.4-12.3c-44.8-9.7-78.7-22-79-22.1-.8-.3-1-1.1-.6-1.9s1.4-1.2,2.1-.9c.3.1,34.4,12.5,79.5,22.2.5.1,1.1.2,1.7.4l-32.3-29.9c-.6-.5-.5-1.5.1-2.1s1.6-.7,2.2-.2l36.3,33.5c14.9,3,31.6,5.8,49.1,7.7l-39.7-24.7c-.7-.4-.8-1.3-.2-2.1.5-.7,1.5-1,2.2-.5l45.1,28c28.4,2.6,58.3,2.6,84.7-3.1.8-.2,1.6.3,1.7,1.1v.1c.1.8-.6,1.6-1.5,1.8-14.1,3.1-29.1,4.5-44.3,4.8h-.1l-107.3,21.5c-.9.2-1.6-.3-1.6-1.2,0-.8.6-1.6,1.5-1.8l92.9-18.6c-8.9-.2-17.8-.8-26.6-1.6-.3,0-.5,0-.7-.1-20.9-2-41.1-5.3-58.5-8.9l-55.6,13.8c-1.1.3-1.8-.2-1.9-1h0Z"/>
    </g>
    <g>
      <path class="st10" d="M1238.2,1745.55s-100.6-39.4-133.4-121.9-15.7-120.4,27.8-89c43.6,31.3,98.8,156.9,105.6,210.9Z"/>
      <path class="st26" d="M1109.9,1588.85h0c.6-.4,1.5-.4,2.1.1l34.9,27.8c-15.6-34.5-23.6-62.7-23.7-63-.2-.6.3-1.2,1.2-1.3.8-.1,1.6.4,1.8,1,.1.3,8.1,28.7,23.8,63.3.2.4.4.9.6,1.3l6.3-35c.1-.6.9-1,1.7-.8.8.2,1.4.8,1.3,1.4l-7.1,39.3c5.3,11.3,11.8,23.9,19.3,36.5l-1.5-37.7c0-.6.6-1.1,1.5-1.1.8,0,1.5.6,1.6,1.2l1.7,42.8c12.6,20.3,28,40.4,46,55.6.6.5.6,1.2,0,1.6h0c-.6.4-1.5.3-2.1-.2-9.6-8.1-18.5-17.5-26.5-27.7h-.1l-71.8-62.5c-.6-.5-.6-1.2,0-1.6s1.6-.3,2.1.2l62.2,54.2c-4.4-6.1-8.6-12.3-12.5-18.6-.2-.2-.3-.3-.3-.5-9.3-15-17-30-23.2-43.3l-39.3-31.2c-.5-.7-.5-1.4,0-1.8h0Z"/>
    </g>
    <g>
      <path class="st8" d="M1248.8,1738.75s-153.6,31.7-250.5-61.2c-97-92.9-101-164.3-25-156.8s230.5,144,275.5,218Z"/>
      <path class="st4" d="M1022.8,1672.15c.5-1.1,1.8-1.8,2.8-1.6l115,24.5c-9.7-5.1-19.2-10.6-28.3-16.4-.3-.1-.6-.3-.8-.5-21.8-13.8-41.7-29.2-58.5-43.3l-70.6-11.1c-1.1-.2-1.6-1.2-1.2-2.4.4-1.1,1.7-1.9,2.8-1.7l62.8,9.9c-42.9-37.1-72-71.8-72.3-72.1-.7-.8-.4-2.1.6-2.9s2.3-.9,3-.1c.3.3,29.6,35.3,72.8,72.5.5.5,1.1.9,1.6,1.4l-15.6-57.5c-.3-1,.4-2.3,1.6-2.8,1.1-.5,2.3-.1,2.6.9l17.5,64.5c14.4,12,31,24.8,49,36.7l-27.3-54.5c-.5-.9,0-2.2,1.1-2.9,1.1-.7,2.3-.5,2.8.4l30.9,61.9c29.6,18.8,62.6,34.7,95.6,41.1,1.1.2,1.6,1.3,1.1,2.4-.4,1-1.5,1.8-2.6,1.7h-.2c-17.6-3.4-35.1-9.5-52.2-17.2h-.1l-132.8-28.3c-1.1-.4-1.6-1.5-1.1-2.6Z"/>
    </g>
  </g>
  <g>
    <path class="st16" d="M1627.2,412.15s32.8,159.9,19.5,366.2c126.3-25.5,187.1-18.8,268.2-.5-27.4-134.4-131.7-318.4-131.7-318.4l-156-47.3Z"/>
    <path class="st20" d="M1990.2,671.35s-42.1-10.3-75.2,106.5c-46.8-141.3-94-227.6-127.3-275.9,84.1,52.1,181.2,122.3,202.5,169.4ZM1646.8,778.25s-96.7-41.9-161.6-60.3l86.5-314,55.5,8.1c0,.1,53.6,188.9,19.6,366.2Z"/>
    <path class="st16" d="M1520.4,381.75s-109.8,119.4-203.8,302.7c-94.9-88.4-150.3-114.7-229-141.8,92.1-100.4,275.2-202.8,275.2-202.8l157.6,41.9h0Z"/>
    <path class="st20" d="M1077.7,411.95s41.3,13.4,9.9,130.6c112.2-96.1,196.6-145,249.8-168.8-98.6.4-217.5,9.2-259.7,38.2h0ZM1316.6,684.45s104.1,15.2,168.9,33.6l86.5-314-51.6-22.3s-142.3,133.1-203.8,302.7Z"/>
    <path class="st2" d="M1759.8,500.65s135.9,69.3,231.9,172.4c-107.4-204.1-151.9-219.8-209.9-262-61.9-45.4-80-61.7-80-61.7,0,0,56.7,67.5,58,151.3h0Z"/>
    <path class="st11" d="M1599.9,324.65s7.7-24.3,1.4-26.1c-6.4-1.8-12.6,23-12.6,23l11.2,3.1Z"/>
    <polygon class="st11" points="1418.9 937.95 1430.1 941.15 1575.9 411.85 1564.6 408.65 1418.9 937.95"/>
    <path class="st17" d="M1322.4,1124.35c33.3,9.5,68.5-12.7,78.6-49.3l36.3-131.8c2.2-7.8-1.9-15.8-8.9-17.8-7.1-2-14.6,2.7-16.7,10.5l-36.3,131.7c-5.8,21.1-26.1,33.8-45.2,28.3-19.1-5.4-29.9-27-24.1-48l9.6-34.8c2.2-7.8-1.9-15.8-8.9-17.8-7.1-2-14.6,2.7-16.7,10.5l-9.6,34.8c-10.2,36.7,8.6,74.2,41.9,83.7h0Z"/>
    <g>
      <polygon class="st2" points="1549.4 496.75 1546.7 493.45 1617 437.15 1619.8 440.55 1549.4 496.75"/>
      <polygon class="st2" points="1545.8 502.25 1545 497.95 1702.7 468.15 1703.5 472.35 1545.8 502.25"/>
      <polygon class="st2" points="1802.8 533.75 1545.1 502.25 1545.7 497.95 1803.4 529.45 1802.8 533.75"/>
      <polygon class="st2" points="1650.4 541.95 1544.6 502.15 1546.2 498.05 1652 537.85 1650.4 541.95"/>
      <polygon class="st2" points="1543.6 495.15 1512.2 409.95 1516.3 408.45 1547.7 493.65 1543.6 495.15"/>
      <polygon class="st2" points="1543.9 501.65 1424.3 393.05 1427.3 389.85 1546.9 498.55 1543.9 501.65"/>
      <polygon class="st2" points="1544.5 502.05 1308 393.15 1309.9 389.25 1546.3 498.15 1544.5 502.05"/>
      <polygon class="st2" points="1544.9 502.25 1434.2 480.45 1435 476.25 1545.8 497.95 1544.9 502.25"/>
    </g>
    <path class="st7" d="M1529.2,295.05c52.3,18.7,66.7,21.8,66.7,21.8,0,0,13.9,4.9,68.1,16.5,68.9,13.8,93.5,84.1,95.8,167.3-60.9-31.7-194.6-72.6-194.6-72.6,0,0-135.1-35.5-203.4-40.5,44.5-69.9,101.4-117,167.4-92.5h0Z"/>
    <path class="st2" d="M1361.8,387.45s-151.5-12.4-286.3,25.1c196.1-117.9,242.1-107.8,313.3-113.3,76.1-6.2,99.9-10.6,99.9-10.6,0,0-83,27.9-126.9,98.8ZM1528.2,525.15l20.6,5.9c.3.1.7-.1.8-.5l10.9-39.6c.1-.4-.1-.7-.4-.8l-20.6-5.9c-.3-.1-.7.1-.8.5l-10.9,39.6c-.1.3.1.7.4.8Z"/>
  </g>
  <g>
    <g>
      <path class="st10" d="M1825.4,1172.55s53.5-147,117.5-200.8,106.2-57.1,94.4-16.1c-11.9,41.2-164.2,191.4-211.9,216.9Z"/>
      <g>
        <path class="st26" d="M1897.3,1086.15v-.1c12.8-32.9,44.3-66.3,68.5-88.5,26.1-24,49.6-40.4,49.8-40.6.5-.4,1.3-.2,1.7.3.4.5.3,1.2-.2,1.6-.2.2-23.6,16.5-49.6,40.4-24,22-55.2,55.1-67.9,87.6-.2.6-.9.9-1.5.6-.6-.2-.9-.8-.8-1.3Z"/>
        <path class="st26" d="M1961.4,1003.85l14.5-41.5c.2-.6.9-.9,1.5-.7s1,.9.7,1.5l-13.1,37.4,36.7-9.8c.6-.2,1.3.2,1.5.8s-.2,1.2-.8,1.4l-41,10.9h0Z"/>
        <path class="st26" d="M1912.5,1057.65v-.2l29.5-72c.2-.6.9-.9,1.5-.6.6.2.9.9.7,1.5l-29.5,72c-.2.6-.9.9-1.5.6-.6-.1-.9-.7-.7-1.3Z"/>
        <path class="st26" d="M1931,1033.45c.1-.3.3-.6.6-.7l39.6-17.8c.6-.3,1.3,0,1.6.6.3.6.1,1.3-.5,1.5l-39.6,17.8c-.6.3-1.3,0-1.6-.6-.2-.3-.2-.5-.1-.8Z"/>
      </g>
    </g>
    <g>
      <path class="st8" d="M1840.8,1179.95s-83.8-143.9-16-300.8,142.8-202.9,159.5-118.1c16.6,84.8-79.1,328.1-143.5,418.9Z"/>
      <g class="st15">
        <path class="st3" d="M1847.7,1127.15v-.3c-7.2-71.2,19.8-160.7,43.6-223.3,25.8-67.7,53.7-119.4,54-119.9.6-1.1,2.1-1.6,3.3-1.1,1.2.6,1.7,1.9,1.1,3.1-.3.5-28.1,51.9-53.8,119.4-23.7,62.1-50.5,150.9-43.4,221.3.1,1.3-.9,2.4-2.2,2.6-1.2.1-2.3-.6-2.6-1.8h0Z"/>
        <path class="st3" d="M1889.1,919.15l-12.1-88.2c-.2-1.3.8-2.4,2.1-2.6,1.4-.2,2.6.7,2.8,1.9l10.9,79.3,58.7-52.2c1-.9,2.6-.9,3.5,0s.9,2.4-.1,3.3l-65.8,58.5Z"/>
        <path class="st3" d="M1849.2,1061.85v-.3l-12.9-157.1c-.1-1.3.9-2.4,2.3-2.5s2.5.8,2.6,2.1l12.9,157.1c.1,1.3-.9,2.4-2.3,2.5-1.3.1-2.4-.7-2.6-1.8h0Z"/>
        <path class="st3" d="M1860.6,1000.95c-.2-.6,0-1.3.5-1.9l56.5-69.5c.8-1,2.4-1.2,3.5-.5,1.1.8,1.3,2.2.4,3.2l-56.5,69.5c-.8,1-2.4,1.2-3.5.5-.4-.3-.7-.8-.9-1.3Z"/>
      </g>
    </g>
  </g>
  <g>
    <path class="st6" d="M1515.5,1729.85v11.4c0,15.2-12.3,27.5-27.5,27.5h-396c-10.6,0-19.3-8.6-19.3-19.3,0-5.3,2.2-10.1,5.6-13.6,3.5-3.5,8.3-5.6,13.6-5.6h129.6c18.9,0,32.2-18.7,26-36.6l-44.9-128.1-27.4-78.1,258.1-23,31.7,101.1,49,156.1c1.1,2.6,1.5,5.4,1.5,8.2h0Z"/>
    <g>
      <path class="st17" d="M1483.8,1729.85v11.4c0,15.2-12.3,27.5-27.5,27.5h-396c-10.6,0-19.3-8.6-19.3-19.3,0-5.3,2.2-10.1,5.7-13.6s8.3-5.6,13.6-5.6h129.6c18.9,0,32.2-18.7,26-36.6l-44.9-128.1h262.5l49,156.1c.9,2.6,1.3,5.4,1.3,8.2h0Z"/>
      <polygon class="st6" points="1433.5 1565.45 1171.1 1565.45 1143.7 1487.35 1401.8 1464.35 1433.5 1565.45"/>
    </g>
    <path class="st6" d="M1878.3,826.85l-87.3,649.5c-2.7,20-20.4,36.2-39.5,36.2h-847.9c-19.1,0-32.5-16.2-29.8-36.2l84.2-626.1,3.1-23.3c2.7-20,20.4-36.2,39.5-36.2h848c19.1-.1,32.4,16.1,29.7,36.1h0Z"/>
    <path class="st17" d="M1851.8,826.85l-87.3,649.5c-2.7,20-20.4,36.2-39.5,36.2h-848c-19.1,0-32.5-16.2-29.8-36.2l85.8-638.2,1.5-11.3c2.7-20,20.4-36.2,39.5-36.2h848c19.2,0,32.5,16.2,29.8,36.2Z"/>
    <path class="st18" d="M1818.4,840.85l-71.1,528.8-12.5,92.8c-1.5,11.4-11.6,20.7-22.6,20.7h-814.5c-10.9,0-18.5-9.3-17-20.7l12.5-92.8,69.5-517.2,1.6-11.7c1.5-11.4,11.6-20.7,22.6-20.7h814.5c10.9.1,18.5,9.4,17,20.8h0Z"/>
    <path class="st21" d="M1747.3,1369.75l-12.5,92.8c-1.5,11.4-11.6,20.7-22.6,20.7h-814.5c-10.9,0-18.5-9.3-17-20.7l12.5-92.8h854.1Z"/>
    <path class="st6" d="M1563.5,1483.15l-3.8,29.5h-682.7c-19.1,0-32.5-16.2-29.8-36.2l12.2-90.7,73.6-547.5,24.9,12,4.8,2.3-69.5,517.2-2.5,18.3-10,74.5c-1.5,11.4,6.1,20.7,17,20.7h665.8v-.1h0Z"/>
    <polygon class="st21" points="1639.5 886.65 1577.9 1369.75 893.2 1369.75 962.7 852.55 1154.7 945.25 1163.7 949.55 1539.2 832.15 1639.5 886.65"/>
    <polygon class="st24" points="1154.7 945.25 1100.7 1369.75 893.2 1369.75 962.7 852.55 1154.7 945.25"/>
    <path class="st5" d="M1325,1426.45c-2.4,17.8-18.2,32.3-35.2,32.3s-29-14.5-26.6-32.3c2.4-17.9,18.2-32.3,35.2-32.3s29,14.4,26.6,32.3Z"/>
    <path class="st17" d="M893.2,1369.75l-2.5,18.3-10,74.5c-1.5,11.4,6.1,20.7,17,20.7h665.8l14.5-113.4h-684.8v-.1ZM1325,1426.45c-2.4,17.8-18.2,32.3-35.2,32.3s-29-14.5-26.6-32.3c2.4-17.9,18.2-32.3,35.2-32.3s29,14.4,26.6,32.3Z"/>
  </g>
  <g>
    <g>
      <g>
        <path class="st12" d="M1293.4,765.55c26.6,11.4,20.4.5,51.5-11.3s48.5-58.3,48.5-58.3c0,0-26.6-15.7-28-21.9-.7-3.3-3.6-11.1-4.1-25.7-.4-12.9-.7-24.5-.7-24.5l-55.4-.7-11.8-.1s3.5,8.6,6,18.1c1.3,4.9,2.3,10,2.4,14.3.3,8.5-.3,12.1-1.5,18.5-.6,3.2-9.5,5.4-9.5,5.4,0,0-35.1,27.2-39.3,47-4,19.7,15.3,27.8,41.9,39.2Z"/>
        <path class="st25" d="M1301.9,655.45c.3,8.5-1.6,19.6-2.8,26,3.8,13.4,12.1,22.4,26.4,10.3,10.4-8.8,23.9-26.2,35.9-43.3-.4-12.9-.7-24.5-.7-24.5l-55.4-.7c-2.4,5.9-4.4,12.1-5.8,18,1.2,4.8,2.2,9.9,2.4,14.2Z"/>
      </g>
      <g>
        <path class="st14" d="M1255,543.65l103.6,104.3s23.9-6,39.4-29.2c11.6-17.5,25.6-69.2-2.2-108.7h0c-1.7-1.3-108.6-86.1-139.4,28.6-.5,1.7-.9,3.4-1.4,5h0Z"/>
        <g>
          <path class="st14" d="M1299.7,482.05s-33.3,6.5-42.8,29.9-4.8,46-4.8,46l47.6-75.9h0Z"/>
          <path class="st12" d="M1390.7,607.65c-.1,9.6-20.5,17.7-20.5,17.7,0,0-9.8,26.7-14,35.2-3.2,6.6-45.2,15.3-68,17.5h-.1c-15.9.8-12.6-12.1-19.8-21.9-7.5-10.2-14.8-37-15.3-38.7v-.1c-.4-3.5-.7-6.7-.6-9.3.4-18.2,7.1-26.1,1.6-36.9s2.5-32.7,2.5-32.7l21.4-.2s8.6,10.8,34.3,11.2,46.8-9.4,50.4-7.7c3.6,1.8-4.6,29.7-4.5,38.7.1,9.1-5.3,15.2,2.5,15.7,7.9.5,15.6-17.7,25.3-14.7,9.6,3.3,4.9,16.6,4.8,26.2h0Z"/>
          <path class="st14" d="M1276,588.95c0,4.2-2.1,7.6-4.9,7.6s-4.9-3.4-5-7.5c0-4.2,2.1-7.6,4.9-7.6s4.9,3.4,5,7.5Z"/>
          <ellipse class="st14" cx="1319.06" cy="590.81" rx="4.9" ry="7.6" transform="translate(-4.7 10.61) rotate(-.46)"/>
          <path class="st1" d="M1287.2,598.75c5.1,8.7-5.5,10.4-7,17.1-1,4.4,2.6,4.6,4.3,7.5,1.3,2.3,4.4,0,3.1-2.3-.8-1.4-3.7-3-3.3-4.9.2-.9,2.6-2.9,3.1-3.4,1.1-1.2,2.4-2.4,3.4-3.8,2.9-4,1.8-8.6-.5-12.6-1.3-2.2-4.4.1-3.1,2.4h0Z"/>
          <path class="st14" d="M1261.8,575.05c-.5.3,3.9-5.3,7-5.8,3.1-.6,6.1-1,7,.7.6,1.1,2.1,3.8,0,3.8-1.8,0-9.5-1.1-14,1.3ZM1313.9,571.55s-.7,3.3,0,4.2,4.3-.4,8.2,1.7c3.9,2.1,7.3,3.7,7.3,3.7,0,0-2-5-4.6-7.9s-10.6-4.7-10.9-1.7Z"/>
          <path class="st23" d="M1277.5,585.35c0,1.4-1.1,2.6-2.5,2.6s-2.6-1.1-2.6-2.5,1.1-2.6,2.5-2.6c1.4-.1,2.6,1.1,2.6,2.5ZM1325.3,586.95c0,1.4-1.1,2.6-2.5,2.6s-2.6-1.1-2.6-2.5,1.1-2.6,2.5-2.6c1.5,0,2.6,1.1,2.6,2.5Z"/>
          <g>
            <path class="st23" d="M1321.6,573.35h0Z"/>
            <path class="st23" d="M1268.9,574.95h0Z"/>
          </g>
          <path class="st14" d="M1277.8,538.45s13-11.3,44.4-10.1c31.5,1.2,40.3,13.6,40.3,13.6,0,0-10.7,18.3-46.9,14.4-36-3.8-37.8-17.9-37.8-17.9Z"/>
          <path class="st1" d="M1369.3,601.75s13-18,15.9-12.6c2.8,5.4-2.8,22.4-5.9,23.7-3.1,1.4-11.8,3.2-8.4-2.1s1.5-6.7-1.5-4.2c-2.9,2.6-3.2-.9-.1-4.8h0Z"/>
          <g>
            <path class="st1" d="M1286.9,643.95c10.8-1.6,20.9-6.1,29.4-13,1.5-1.2-.6-3.4-2.2-2.2-8,6.5-17.8,10.7-28,12.2-1.9.4-1.1,3.3.8,3h0Z"/>
            <path class="st1" d="M1294.3,651.65c.7-.1,1.4-.3,2.1-.4.2,0,.4-.1.5-.3.2-.1.3-.3.4-.4.1-.2.2-.4.2-.6v-.6c-.1-.4-.3-.7-.7-.9-.1-.1-.2-.1-.4-.2-.3-.1-.5-.1-.8,0-.7.1-1.4.3-2.1.4-.2,0-.4.1-.5.3-.2.1-.3.3-.4.4-.1.2-.2.4-.2.6v.6c.1.4.3.7.7.9.1.1.2.1.4.2.3.1.6.1.8,0h0Z"/>
          </g>
        </g>
      </g>
    </g>
    <path class="st11" d="M1452.2,995.75s29.3,104.9,32.2,132.2c2.9,27.3.6,41.9,1.9,48.7s28.6,194.3,28.6,194.3h-143.2l-33.8-118.3-39.3,117.7h-138.7s24.7-190,30.6-226.5c5.8-36.5,15.5-65,15.5-65l246.2-83.1h0Z"/>
    <path class="st21" d="M1596.1,929.25c-4.4,5.4-64.3,57.9-69.6,57.9-.9,0-2.9-1.1-5.5-3.1-9.4-7.1-27-24.9-32-35.1-1.3-2.7-1.8-4.8-1-6.1,4.4-7.8,33.1-39,33.1-39l-35.6-40.2s-11.6,67.5-15.9,92.3c-.8,4.7-1.4,7.9-1.5,8.8-.7,3.9-.9,30.6-1,44.8v8.8s4.4,28.9,7.3,36.9c2.9,7.9,7.8,24.5,4.4,31.3s-102.2,39-154.3,40.9c-52.1,2-75.5-4.9-98.4-10.7s-31.2-3.4-32.1-18.5c-1-15.1,5.8-20.9,7.8-30.7,1.9-9.7,11.2-84.7,11.2-84.7,0,0-21.4,27.8-40.9,40.9s-39.4,9.7-46.3,3.4c-6.8-6.3-93.5-122.2-87.6-132.4,5.8-10.2,59.9-52.6,64.8-49.2,4.9,3.4,37.5,43.8,37.5,43.8,0,0,45.3-145.1,57.5-157.8,7.6-7.9,41-26.6,64.9-39.4,14.2-7.6,25-13.2,25-13.2,0,0,20.9,27.7,24.1,27.7s53.8-34.6,53.8-34.6c0,0,6.9,3,17.4,7.6,31.1,13.6,94,41.3,105.3,47.6,15.3,8.4,25,27.9,26,29.5s83.3,131,86.7,143.6c3.2,12.9-.7,23.6-5.1,28.9h0Z"/>
    <path class="st19" d="M1306.9,1124.95c-37.6,0-57.5-5.1-76.7-10.1l-3.4-.9c-5-1.3-9.3-2.2-13.1-2.9-13.2-2.7-16.3-3.4-16.9-13-.6-9,1.8-14.5,4.2-19.8,1.4-3.1,2.8-6.4,3.6-10.1,1.9-9.7,10.8-81.9,11.2-84.9l1.3-10.4-6.4,8.3c-.2.3-21.4,27.5-40.2,40.3-10.4,7-20,8.5-26.3,8.5-8.3,0-14-2.6-16.4-4.8-2.9-2.7-24.7-30.9-47-62.6-39-55.5-40.1-65.2-40-66.5,2.6-4.2,15.1-15.6,30.1-27.3,18-14,28.2-19.8,31-20.5,4.5,3.9,24.4,28,36.4,42.9l3.4,4.2,1.6-5.1c12.5-40.2,47.2-146.6,56.8-156.6,5.7-5.9,28.5-19.7,64.2-38.9,10.3-5.6,19-10.1,22.8-12,2,2.6,5.6,7.3,9.5,12,12.1,14.9,13.8,14.9,15.5,14.9,1.3,0,2.8,0,29.7-17.8,10.5-7,20.9-14,24.4-16.4,2.5,1.1,8.3,3.6,16,7,27.7,12.1,93.5,41,105.1,47.5,6.1,3.4,15.2,10.9,24.4,27.7.2.4.4.7.5.8.1.2,1,1.5,2.5,3.9,73,115.5,83,135.7,83.9,139,3.1,11.6-.4,21.3-4.3,26.2-4.4,5.4-59.5,53.5-67.4,56.8-.5-.2-1.6-.8-3.7-2.4-9.2-7-26.4-24.4-31.1-34.1-1.3-2.6-1.1-3.5-1.1-3.5,3.4-6.1,24.8-29.8,32.7-38.4l1.8-1.9-41.3-46.6-1,5.9s-11.6,67.5-15.9,92.3c-.8,4.7-1.4,7.9-1.5,8.8-.7,4.1-.9,30.1-1,45.2v9.2c.2,1.2,4.5,29.3,7.4,37.4,3.8,10.5,6.9,23.9,4.6,28.9-5.9,6.2-99.1,37.5-152,39.5-6.5.2-12.3.3-17.9.3h0Z"/>
    <g>
      <path class="st21" d="M1209.2,782.75c.6,26.5,1.1,53,1.7,79.5.6,26.2,1.6,52.4.8,78.6-.4,14.6-1.4,29.3-3.6,43.8.8-.2,1.6-.4,2.4-.6-.7-.9-1.3-1.7-2-2.6-1.1-1.5-3.1.6-2,2,.7.9,1.3,1.7,2,2.6.6.8,2.2.4,2.4-.6,3.9-25.9,4.2-52.1,3.8-78.2-.4-26.5-1.1-53.1-1.7-79.6-.3-14.9-.6-29.8-1-44.7.1-2.1-2.8-2.1-2.8-.2h0ZM1140.1,892.45c12.4,19.9,22.8,41,31.1,62.9,2.3,6.1,4.4,12.3,6.4,18.5.6,1.7,3.3,1,2.8-.8-7.1-22.4-16.4-44.2-27.7-64.8-3.2-5.9-6.6-11.6-10.1-17.3-1-1.5-3.4,0-2.5,1.5h0Z"/>
      <path class="st21" d="M1138.9,891.75c10.6,12.9,20.1,26.7,28.5,41.2,2.4,4.1,4.7,8.3,6.9,12.6.8,1.6,3.3.2,2.5-1.4-7.8-15.1-16.8-29.5-27-43.1-2.9-3.8-5.8-7.6-8.8-11.2-1.2-1.5-3.3.5-2.1,1.9h0ZM1456.9,754.85c-8.4,12-9.6,27.4-6.9,41.5,3,15.6,11,29.6,19.4,42.8,5,7.9,10.2,15.7,14.7,23.9.9,1.6,3.4.2,2.5-1.4-7.8-14-17.5-27-24.9-41.3-6.7-13-11.2-27.4-10-42.1.7-7.8,3.1-15.4,7.7-21.9,1-1.5-1.5-3-2.5-1.5h0Z"/>
      <path class="st21" d="M1485.7,861.05c-2.4-2.4-5.4-3.8-8.4-5.2-3.5-1.7-7-3.3-10.5-5-7-3.3-13.9-6.7-20.9-10-1.7-.8-3.1,1.7-1.4,2.5,6.8,3.3,13.7,6.5,20.5,9.8,3.4,1.6,6.8,3.3,10.2,4.9,3,1.4,6.1,2.7,8.5,5,1.3,1.3,3.3-.7,2-2h0ZM1522.6,904.95c4-4.8,10.3-7.1,15.9-9.4,6.4-2.6,12.9-4.7,19.5-6.3,1.8-.4,1-3.2-.8-2.8-6.9,1.7-13.8,4-20.4,6.7-5.8,2.4-12.2,4.9-16.3,9.8-1.1,1.4.9,3.4,2.1,2h0Z"/>
    </g>
    <path class="st11" d="M1321.8,748.15s-2.3,58.4,0,114.3,21.7,127.2,30.5,146.1,12.3,21.4,10.7,25.6c-1.6,4.2-34.4,51.9-38,49.7-3.6-2.3-40.9-36.7-41.9-46.4s-1.6-154.5,2.3-213.9,12.7-75.3,12.7-75.3h23.7v-.1h0Z"/>
    <path class="st6" d="M1287.7,711.45s5.5,45.8,7.8,48.2,11.5,3.2,19.2,3.6c7.6.3,22.7-32.8,20.8-41.1-2-8.3-35.5-11.7-47.8-10.7Z"/>
    <path class="st21" d="M1380.7,689.35c-6.5,9.4-38.3,41.5-45.8,43.5-7.5,1.9-23-25.8-23-25.8,0,0-15.6,21.3-22.1,21.3-4.9,0-20-24.3-27.1-36.2,14.2-7.6,25-13.2,25-13.2,0,0,20.9,27.7,24.1,27.7s53.8-34.6,53.8-34.6c0,0,6.9,3,17.4,7.6.4,3.2-.1,6.5-2.3,9.7Z"/>
    <g>
      <path class="st11" d="M1539.4,1031.15l-4.4,5.5c-2.8,3.4-7.9,4-11.3,1.2l-247.3-200.6c-3.4-2.8-4-7.9-1.2-11.3l4.4-5.5c2.8-3.4,7.9-4,11.3-1.2l247.3,200.6c3.5,2.7,4,7.8,1.2,11.3Z"/>
      <path class="st17" d="M1489.2,986.45l-8.2,10.2c-2.7,3.3-7.5,3.8-10.8,1.1l-124.8-101.2-2.2-1.8-14-11.3-2.2-1.8-14-11.3-2.2-1.8-14-11.3-2.2-1.8-14-11.3-2.2-1.8-14-11.4-2.2-1.8-14-11.4-2.2-1.8-14-11.4-2.2-1.8-9.5-7.7c-3.3-2.7-3.8-7.5-1.1-10.8l8.3-10.2c2.7-3.3,7.5-3.8,10.8-1.1l10.4,8.5,2.2,1.8,13.9,11.3,2.2,1.8,13.9,11.3,2.2,1.8,13.9,11.2,2.2,1.8,13.9,11.3,2.2,1.8,13.9,11.3,2.2,1.8,13.9,11.3,2.2,1.8,13.9,11.3,2.2,1.8,124.5,100.8c3.3,2.7,3.8,7.5,1.1,10.8h0Z"/>
      <path class="st6" d="M1250.8,783.15c-6.1,7.3-12.4,14.4-18.9,21.4l-2.2-1.8c6.5-7,12.8-14.1,18.9-21.4l2.2,1.8ZM1266.9,796.25c-6.1,7.3-12.3,14.4-18.8,21.4l-2.2-1.8c6.4-7,12.7-14.1,18.8-21.4l2.2,1.8ZM1283,809.35c-6.1,7.3-12.3,14.5-18.7,21.5l-2.2-1.8c6.4-7,12.7-14.2,18.7-21.5l2.2,1.8ZM1299.2,822.45c-6,7.3-12.2,14.5-18.6,21.6l-2.2-1.8c6.4-7,12.6-14.2,18.7-21.5l2.1,1.7ZM1315.3,835.55c-6,7.4-12.2,14.6-18.6,21.6l-2.2-1.8c6.4-7,12.5-14.3,18.6-21.6l2.2,1.8ZM1331.5,848.65c-6,7.4-12.1,14.6-18.5,21.7l-2.2-1.8c6.3-7.1,12.5-14.3,18.5-21.7l2.2,1.8ZM1347.6,861.65c-.1.2-.3.3-.4.5-5.8,7.2-11.8,14.3-18,21.3l-2.2-1.8c6.3-7.1,12.5-14.4,18.4-21.8l2.2,1.8ZM1363.7,874.75c-.6.7-1.2,1.5-1.7,2.2-5.4,6.7-10.9,13.2-16.6,19.6l-2.2-1.8c6.3-7.1,12.4-14.4,18.3-21.8l2.2,1.8h0Z"/>
    </g>
    <path class="st12" d="M1521,984.15c-2.4,4.6-5.7,10.2-10.1,14.8-9.2,9.7-12.9,5.1-16.1,6.3s-11,12.4-12.2,12.4-5.4-.2-9-2.9c-3.7-2.7-2.7-4.9-2.7-4.9,0,0-1.8,0-3.9-.3-1.9-.2-4-.7-4.9-1.7-1.9-1.9-3.4-8.8-3.4-8.8,0,0-4.6-1-6.6-3.4-1.9-2.4-2.4-8-2.4-8,0,0-4.9-.5-6.3-4.1-1.5-3.7,2.9-12.7,4.1-13.6s15.1-12.4,19.2-13.1c.6-.1,1.6-.4,2.8-.7,5-1.6,14.2-5,19.4-7,5.1,10.1,22.7,27.9,32.1,35Z"/>
    <g>
      <path class="st21" d="M1211.1,978.05c14.2,24.1,29.9,47.2,47.1,69.2,4.8,6.1,9.7,12.2,14.8,18.2,1.2,1.4,3.2-.6,2-2-17.9-21.2-34.3-43.5-49.2-66.9-4.2-6.6-8.3-13.2-12.2-20-1-1.5-3.4-.1-2.5,1.5h0ZM1213.4,988.55c3.4,15.2,8.3,30.1,14.7,44.3,1.8,4.1,3.8,8.1,5.8,12.1.8,1.6,3.3.2,2.5-1.4-7.1-13.7-12.8-28.1-17-42.9-1.2-4.2-2.3-8.5-3.2-12.8-.4-1.8-3.2-1.1-2.8.7h0ZM1460.9,1049.55c-14.3,7.5-28.9,14.3-43.9,20.3s-30.2,11.1-45.7,15.5c-8.7,2.5-17.6,4.6-26.4,6.6-1.8.4-1,3.1.8,2.8,15.9-3.4,31.6-7.7,47-12.9,15.3-5.1,30.4-11,45.1-17.7,8.3-3.8,16.5-7.8,24.6-12.1,1.6-.9.2-3.4-1.5-2.5h0ZM1339.5,1101.75c13.8-.6,27.4-2.6,40.8-6.1,1.8-.5,1-3.2-.8-2.8-13.1,3.4-26.5,5.5-40,6-1.8.1-1.8,3,0,2.9h0ZM1387,714.95c-13.8,11-28.3,21.2-43.3,30.5-4.2,2.6-8.5,5.2-12.8,7.7-1.6.9-.2,3.4,1.4,2.5,15.5-8.9,30.4-18.7,44.8-29.4,4-3,8-6.1,12-9.2,1.4-1.2-.6-3.3-2.1-2.1h0Z"/>
      <path class="st21" d="M1330.3,758.95c18.7-1.2,37.3-3.2,55.9-5.9,1.8-.3,1-3-.8-2.8-18.3,2.7-36.7,4.6-55.1,5.8-1.9.1-1.9,3,0,2.9h0Z"/>
    </g>
    <g>
      <path class="st17" d="M1294.3,1194.05c13.3,10.9,29.6,16.9,45.9,21.5,4.7,1.3,9.3,2.5,14,3.7,1.8.5,2.5-2.3.8-2.8-16.1-4.1-32.4-8.3-47-16.6-4.1-2.3-8-5-11.7-8-1.4-.9-3.4,1.1-2,2.2h0ZM1298.1,1230.25c15.6-.9,31.2-1.7,46.7-2.6,1.8-.1,1.8-3,0-2.9-15.6.9-31.2,1.7-46.7,2.6-1.8.1-1.8,3,0,2.9h0Z"/>
      <path class="st17" d="M1327.6,1229.25c2.1,8.8,4.8,17.4,8,25.9.6,1.7,3.4,1,2.8-.8-3.2-8.5-5.9-17.1-8-25.9-.5-1.7-3.2-1-2.8.8h0ZM1202.4,1121.85c8,3.4,16.2,6.1,24.7,7.9,1.8.4,2.6-2.4.8-2.8-8.2-1.7-16.3-4.3-24-7.6-1.7-.7-3.1,1.8-1.5,2.5h0ZM1244.1,1132.65c25.7,1.7,51.4,3.5,77.1,3.3,25.5-.2,50.9-2.7,76.2-6.3,14.1-2,28.2-4.4,42.3-6.7,1.8-.3,1-3.1-.8-2.8-25.1,4.2-50.2,8.4-75.5,10.8s-50.7,2.6-76.1,1.4c-14.4-.6-28.8-1.6-43.2-2.6-1.8-.1-1.8,2.8,0,2.9h0ZM1443.7,1105.45c4.4,17.3,8.2,34.6,11.6,52.1.3,1.8,3.1,1,2.8-.8-3.3-17.5-7.2-34.9-11.6-52.1-.4-1.8-3.2-1-2.8.8h0ZM1458.9,1173.25c2.6,22.2,5.5,44.3,8.6,66.4,3.1,22,6.6,43.9,10.2,65.8,2.1,12.4,4.3,24.8,6.6,37.2.3,1.8,3.1,1,2.8-.8-4-21.8-7.7-43.7-11.2-65.6-3.5-22-6.6-44-9.5-66-1.6-12.3-3.2-24.7-4.6-37-.3-1.8-3.1-1.9-2.9,0h0ZM1329.5,1266.85c-11,8-22,16.1-32.9,24.1-1.5,1.1,0,3.6,1.4,2.5,11-8,22-16.1,32.9-24.1,1.5-1.1.1-3.6-1.4-2.5h0Z"/>
    </g>
    <g>
      <path class="st11" d="M1128.2,930.05c-50,128.9-149.1,161.8-173,168-1.7.5-3.5.7-5.2.6l-33-.4c1.7,0,3.5-.2,5.2-.6,23.9-6.2,123.1-39.1,173-168,38.6-99.5,47-150.4,48.6-171.8.6-7.6-2.5-14.6-8.1-18.7l-160.4-115.8c-3.1-2.3-6.8-3.4-10.6-3.5l33,.4c3.8,0,7.5,1.2,10.6,3.5l160.5,115.9c5.6,4.1,8.6,11.1,8.1,18.7-1.7,21.3-10.1,72.1-48.7,171.7h0Z"/>
      <path class="st6" d="M1143.8,757.95c-1.6,21.4-10,72.2-48.6,171.8-50,128.9-149.1,161.8-173,168-1.7.5-3.5.7-5.2.6-1.7,0-3.4-.3-5.1-.8-22.6-6.7-115-41.6-139.1-171.3-18.6-100.2-16.9-151.1-14.2-172.4,1-7.6,5.4-14.5,11.8-18.5l183.2-112.2c3.6-2.2,7.5-3.3,11.3-3.2,3.8,0,7.5,1.2,10.6,3.5l160.4,115.9c5.4,4,8.5,11,7.9,18.6h0Z"/>
      <path class="st8" d="M962.4,643.25l-21.6,216.3-155.9-1.7c-7.6-59.4-5.7-90.8-4.1-103.3,0-.4.2-.7.3-.8l179.7-110.1c.5-.3,1.1-.4,1.6-.4Z"/>
      <path class="st9" d="M1096.6,861.25l-155.9-1.7,21.6-216.3c.5,0,1,.2,1.5.5l157.4,113.7c.1.1.1.4.1.8-.9,12.4-5.2,43.9-24.7,103Z"/>
      <path class="st9" d="M940.8,859.55l-21.6,216.3c-.3,0-.5,0-.8-.1-10.8-3.4-35-12.8-59.7-34.8-32.9-29.4-54.4-69.9-63.8-120.6-4.4-23.6-7.6-44.4-9.9-62.5l155.8,1.7Z"/>
      <path class="st10" d="M1096.6,861.25c-5.9,18.1-13.3,38.7-22.4,62.2-19.5,50.3-49.1,90.4-87.8,118.9-29,21.4-55.1,30.3-66.5,33.4-.3.1-.5.1-.8.1l21.6-216.3,155.9,1.7Z"/>
      <path class="st18" d="M913.8,913.55c-6.3-.1-12.1-2.4-16.5-6.7l-44.9-44.4c-6.3-6.2-5.8-16.7,1.1-23.5,6.9-6.8,17.5-7.2,23.8-1l39.5,39.1,96-96.6c6.8-6.8,17.5-7.4,23.8-1.3,6.4,6.1,6,16.6-.8,23.5l-101.8,102.5c-5.1,5.1-11.7,8.1-18.6,8.4h-1.6Z"/>
      <path class="st26" d="M903.5,1052.15c-.2,0-.4-.1-.6-.2-52-39.5-74.9-84.6-85-115.5-10.9-33.5-9.5-58.1-9.5-58.3,0-.6.5-1.1,1.1-1.1s1,.4,1,1c0,.2-1.4,24.5,9.5,57.7,10,30.6,32.8,75.4,84.3,114.5.4.3.5,1,.1,1.4-.3.3-.6.5-.9.5h0ZM802.4,833.75c-.5,0-.9-.4-.9-.9l-4.1-66.6c0-.6.4-1.1,1-1.2.6-.1,1.1.3,1.1.9l4.1,66.6c0,.6-.4,1.1-1,1.2h-.2,0ZM1045.1,946.05c-.1,0-.3,0-.4-.1-.5-.2-.7-.9-.4-1.4,20.8-36.1,30.6-67.1,30.7-67.4.2-.6.8-.9,1.3-.8.6.1.9.7.7,1.2-.1.3-10,31.6-30.9,67.9-.2.4-.6.6-1,.6h0Z"/>
    </g>
  </g>
  <g>
    <path class="st7" d="M1766.3,1162.65c-2.5-7.2-9.2-12-16.8-12h-13.8s-3.6-23.4-26.7-23.4-26.7,23.4-26.7,23.4h-13.8c-7.6,0-14.3,4.8-16.8,12l-6.4,18.6h127.4l-6.4-18.6h0ZM1709,1156.45c-5,0-9-4-9-9s4-9,9-9,9,4,9,9-4,9-9,9Z"/>
    <path class="st6" d="M1895.6,1206.55v536.7c0,14-11.4,25.4-25.4,25.4h-329.1c-14,0-25.4-11.4-25.4-25.4v-536.7c0-14,11.4-25.4,25.4-25.4h329.1c14,0,25.4,11.4,25.4,25.4Z"/>
    <path class="st2" d="M1775.3,1162.65c-2.5-7.2-9.2-12-16.8-12h-13.8s-3.6-23.4-26.7-23.4-26.7,23.4-26.7,23.4h-13.8c-7.6,0-14.3,4.8-16.8,12l-6.4,18.6h127.4l-6.4-18.6h0ZM1718,1156.45c-5,0-9-4-9-9s4-9,9-9,9,4,9,9-4,9-9,9Z"/>
    <path class="st17" d="M1908.8,1206.55v536.7c0,14-11.4,25.4-25.4,25.4h-329.1c-14,0-25.4-11.4-25.4-25.4v-536.7c0-14,11.4-25.4,25.4-25.4h329.1c14,0,25.4,11.4,25.4,25.4Z"/>
    <path class="st19" d="M1889.3,1214.45v520.9c0,6.7-5.4,12.1-12.1,12.1h-316.7c-6.7,0-12.1-5.4-12.1-12.1v-521.7c.4-6.3,5.7-11.4,12.1-11.4h316.7c6.4,0,11.7,5,12.1,11.4v.8h0Z"/>
    <path class="st21" d="M1889.3,1213.75h-340.9c.4-6.3,5.7-11.4,12.1-11.4h316.7c6.4,0,11.7,5,12.1,11.4h0Z"/>
    <path class="st7" d="M1783.2,1213.75h-128.7c-9.3,0-16.9-7.5-16.9-16.9v-10.4c0-9.3,7.5-16.9,16.9-16.9h128.7c9.3,0,16.9,7.5,16.9,16.9v10.4c-.1,9.3-7.6,16.9-16.9,16.9Z"/>
    <g>
      <path class="st21" d="M1841.8,1373.75h-165.2c-1.2,0-2.1-.9-2.1-2.1v-.3c0-1.2.9-2.1,2.1-2.1h165.2c1.2,0,2.1.9,2.1,2.1v.3c0,1.1-1,2.1-2.1,2.1ZM1785,1390.15h-108.5c-1.2,0-2.1-.9-2.1-2.1v-.3c0-1.2.9-2.1,2.1-2.1h108.5c1.2,0,2.1.9,2.1,2.1v.3c0,1.1-.9,2.1-2.1,2.1Z"/>
      <g>
        <circle class="st8" cx="1614.82" cy="1380.8" r="33.9"/>
        <path class="st19" d="M1609.3,1394.05c-1.3,0-2.5-.5-3.5-1.3l-10.1-9.1c-1.4-1.3-1.5-3.4-.3-4.8s3.4-1.5,4.8-.3l8.9,8,17.6-20.1c1.2-1.4,3.4-1.6,4.8-.3,1.4,1.2,1.6,3.4.3,4.8l-18.7,21.4c-.9,1.1-2.2,1.7-3.6,1.8,0-.1-.1-.1-.2-.1h0Z"/>
      </g>
    </g>
    <g>
      <path class="st21" d="M1841.8,1468.65h-165.2c-1.2,0-2.1-.9-2.1-2.1v-.3c0-1.2.9-2.1,2.1-2.1h165.2c1.2,0,2.1.9,2.1,2.1v.3c0,1.2-1,2.1-2.1,2.1ZM1785,1485.05h-108.5c-1.2,0-2.1-.9-2.1-2.1v-.3c0-1.2.9-2.1,2.1-2.1h108.5c1.2,0,2.1.9,2.1,2.1v.3c0,1.2-.9,2.1-2.1,2.1Z"/>
      <g>
        <circle class="st8" cx="1614.83" cy="1475.8" r="33.9"/>
        <path class="st19" d="M1609.3,1489.05c-1.3,0-2.5-.5-3.5-1.3l-10.1-9.1c-1.4-1.3-1.5-3.4-.3-4.8,1.3-1.4,3.4-1.5,4.8-.3l8.9,8,17.6-20.1c1.2-1.4,3.4-1.6,4.8-.3,1.4,1.2,1.6,3.4.3,4.8l-18.7,21.4c-.9,1.1-2.2,1.7-3.6,1.8,0-.1-.1-.1-.2-.1h0Z"/>
      </g>
    </g>
    <g>
      <path class="st21" d="M1841.8,1563.65h-165.2c-1.2,0-2.1-.9-2.1-2.1v-.3c0-1.2.9-2.1,2.1-2.1h165.2c1.2,0,2.1.9,2.1,2.1v.3c0,1.2-1,2.1-2.1,2.1ZM1785,1580.05h-108.5c-1.2,0-2.1-.9-2.1-2.1v-.3c0-1.2.9-2.1,2.1-2.1h108.5c1.2,0,2.1.9,2.1,2.1v.3c0,1.2-.9,2.1-2.1,2.1Z"/>
      <g>
        <circle class="st8" cx="1614.79" cy="1570.75" r="33.9"/>
        <path class="st19" d="M1609.3,1584.05c-1.3,0-2.5-.5-3.5-1.3l-10.1-9.1c-1.4-1.3-1.5-3.4-.3-4.8,1.3-1.4,3.4-1.5,4.8-.3l8.9,8,17.6-20.1c1.2-1.4,3.4-1.6,4.8-.3,1.4,1.2,1.6,3.4.3,4.8l-18.7,21.4c-.9,1.1-2.2,1.7-3.6,1.8,0-.1-.1-.1-.2-.1h0Z"/>
      </g>
    </g>
    <rect class="st21" x="1583.5" y="1654.95" width="58" height="39.1"/>
    <path class="st5" d="M1835.2,1681.85c-15.7-1.1-31.5-1.4-47.3-1-4.5.1-8.9.3-13.4.5-1.5.1-2.7,1.2-2.7,2.7,0,1.4,1.2,2.8,2.7,2.7,15.8-.8,31.6-.9,47.3-.3,4.5.2,8.9.4,13.4.7,1.5.1,2.7-1.3,2.7-2.7s-1.2-2.5-2.7-2.6h0ZM1824.8,1695.05h-9.9c-1.4,0-2.8,1.2-2.7,2.7.1,1.5,1.2,2.7,2.7,2.7h9.9c1.4,0,2.8-1.2,2.7-2.7-.1-1.4-1.2-2.7-2.7-2.7Z"/>
    <path class="st21" d="M1824.4,1303.05h-211.2c-5.2,0-9.5-4.2-9.5-9.5v-34c0-5.2,4.2-9.5,9.5-9.5h211.2c5.2,0,9.5,4.2,9.5,9.5v34c0,5.2-4.2,9.5-9.5,9.5Z"/>
  </g>
  <g>
    <g>
      <g>
        <path class="st6" d="M196.4,1717.95s-27.8.1-32.4.9c-4.6.8-76.3,52-85,51.4s-17.1-5.5-19.7-9.9c-2.6-4.4-3.5-12.7-2-14.7,1.4-2,93.8-132,93.8-132,0,0,9.5,4.2,20,14.2s34.8,33.4,34.8,33.4l-9.5,56.7h0ZM745.9,1653.55s13.4,41.7,17.1,44.9c3.7,3.2,77.3,31,82.4,38.4,5.1,7.4,6,17.1,3.7,21.8-2.3,4.6-9.3,10.2-12,10.2h-180.1s-2.3-10.2,0-24.5c2.3-14.4,7.9-47.7,7.9-47.7l81-43.1h0Z"/>
        <path class="st11" d="M757.9,1685.95c-2.8,5.5-54.8,19.4-58,20.1-3.1.7-40.4,4.2-44.3-4.9-4-9-18.5-108.3-29-154.9-10.4-46.5-13.9-102.1-13.9-102.1,0,0-2.5.9-6.5,2.5-12.1,4.6-38.6,14.7-57.3,22.5-25,10.4-70.1,28.2-70.1,28.2l-2.8,18.3s-10.4,186.1-16.3,197.2-18.4,16-34.4,16.7-117.7-4.2-117.7-4.2l-115.6,4.2s-6.9-18.8-6.2-41.7c.7-22.9,1.4-42.4,6.2-47.2,4.9-4.9,123.6-38.9,123.6-38.9,0,0-9.8-123.6-13.6-180.5-3.8-56.9,5.7-87.9,8.9-92.6,3.3-4.7,240.8-25.8,240.8-25.8,0,0,40-9.9,47.4-10.7,7.4-.8,94.9-8.2,106.5-2.6s29.6,39.8,31.5,52.8c1.8,13-.5,37-.5,40.3s19.9,247,21.3,265c1.4,18.2,2.8,32.8,0,38.3h0Z"/>
        <g>
          <path class="st17" d="M502.2,1382.55c-9.8,13.4-20.2,26.2-31.4,38.5-1.2,1.3.7,3.2,1.9,1.9,11.3-12.4,22-25.5,31.8-39,1.1-1.4-1.3-2.8-2.3-1.4h0ZM448.1,1441.85c17.7-6.8,35.6-13.2,53.6-19.1,5.1-1.7,10.3-3.3,15.4-4.9,1.7-.5,1-3.1-.7-2.6-18.1,5.6-36.1,11.6-53.9,18.2-5.1,1.9-10.1,3.8-15.1,5.7-1.7.7-1,3.3.7,2.7h0Z"/>
          <path class="st17" d="M485.5,1428.75c-.6,3.1-.9,6.2-1.4,9.3-.9,6.2-1.7,12.5-2.6,18.7-1.9,13.9-3.8,27.8-5.7,41.6-.5,3.8-.9,7.6-1.7,11.3-.3,1.7,2.3,2.4,2.6.7.6-3.1.9-6.2,1.4-9.3.9-6.2,1.7-12.5,2.6-18.7,1.9-13.9,3.8-27.8,5.7-41.6.5-3.8.9-7.6,1.7-11.3.4-1.7-2.3-2.5-2.6-.7h0ZM610.7,1350.55c-4.6,25.4-5.9,51.4-3.9,77.1.6,7.3,1.4,14.6,2.5,21.8.3,1.7,2.9,1,2.6-.7-3.8-25.1-4.3-50.7-1.7-76,.8-7.2,1.8-14.3,3.1-21.4.4-1.8-2.3-2.6-2.6-.8h0Z"/>
          <path class="st17" d="M595.1,1416.85c3.6,10,7.4,19.9,11.5,29.6.3.7.9,1.2,1.7.9.6-.2,1.2-1,.9-1.7-4.1-9.8-7.9-19.7-11.5-29.6-.6-1.5-3.2-.8-2.6.8h0ZM393.1,1348.55c10.8-.9,21.6-2.4,32.3-4.3,1.7-.3,1-2.9-.7-2.6-10.5,1.9-21,3.3-31.6,4.2-1.7.1-1.7,2.9,0,2.7h0ZM452.7,1338.85c23.5-3.8,47.1-7,70.8-9.6,6.7-.7,13.4-1.4,20.1-2,1.7-.2,1.7-2.9,0-2.7-24,2.2-47.9,5.1-71.7,8.6-6.7,1-13.3,2-20,3.1-1.7.3-.9,2.9.8,2.6h0ZM313.5,1606.95c12.7,1.7,25.5.8,38.1,2.6,11.6,1.6,23,4.8,33.7,9.5,6.1,2.7,11.9,5.8,17.5,9.4,1.5.9,2.8-1.4,1.4-2.3-10.1-6.5-21-11.5-32.4-15-11.7-3.5-23.7-5.1-35.8-5.6-7.5-.3-15-.4-22.5-1.3-.7-.1-1.4.7-1.4,1.4s.6,1.2,1.4,1.3h0ZM341.7,1616.75c4.8,4.7,10,9,15.5,12.8,1.4,1,2.8-1.4,1.4-2.3-5.3-3.7-10.3-7.8-14.9-12.4-1.3-1.2-3.2.7-2,1.9h0ZM723,1349.65c-10,11.9-20.5,23.5-31.3,34.7-1.2,1.3.7,3.2,1.9,1.9,10.9-11.2,21.3-22.7,31.3-34.7,1.1-1.3-.8-3.3-1.9-1.9h0ZM690.2,1394.95c7.7-1.8,15.4-3.3,23.2-4.2,1.7-.2,1.7-2.9,0-2.7-8.1,1-16.1,2.4-24,4.3-1.6.4-.9,3,.8,2.6h0ZM219.9,1649.35c1.4,15,3.6,30,6.4,44.8.3,1.7,3,1,2.6-.7-2.8-14.6-4.9-29.3-6.3-44.1-.1-1.7-2.8-1.7-2.7,0h0ZM697.7,1691.95c7.8-1.8,15.6-3.6,23.4-5.3,7.5-1.7,15.1-3.3,22.6-5.2,3.8-1,7.6-2.3,10.9-4.5,1.4-1,.1-3.3-1.4-2.3-5.9,4-13.4,5-20.2,6.5-7.7,1.7-15.3,3.5-23,5.2-4.4,1-8.8,2-13.1,3-1.6.3-.9,2.9.8,2.6h0Z"/>
        </g>
        <path class="st14" d="M606.2,1446.75c-12.1,4.6-38.6,14.7-57.3,22.5-25,10.4-70.1,28.2-70.1,28.2l8.2-60.4s15.4,1.2,55.9-4.3c40.5-5.6,53.4-12.5,53.4-12.5l9.6,24.6s.2.7.3,1.9h0Z"/>
      </g>
      <path class="st23" d="M604,839.25s-2.5-19.9-14.6-32.4c-12-12.5-36.6-32.4-36.6-32.4l-30.7,46.4s21.4,41.1,32.6,45.7c11.1,4.6,49.3-27.3,49.3-27.3Z"/>
      <path class="st23" d="M342.2,793.85s46.3-46.8,54.6-47.7,43.6,7.9,43.6,7.9l17.5,64.8-77.8,24.1-37.9-49.1h0Z"/>
      <path class="st6" d="M688.9,1039.55c-7.1,10.2-21,17-38.6,17s-63.3-1.1-63.3-1.1c0,0-7.6,31.2-9,51.4-1.4,20.1.7,24.3,6.3,46.5s-2.8,104.2.7,116,10.4,9.7,7.6,21.5c-1.8,7.8-19.3,9.2-40.9,12.1-11,1.5-23.1,3.3-34.8,6.6-34.7,9.7-100.2,13-105.8,13.4-2.6.2-22.5,5.3-43.5,10.3-23.3,5.5-47.9,10.8-52.3,9.1-8.3-3.2-13-7.4-11.6-17.1s-9.3-15.3-12-29.6c-2.8-14.4,7.9-33.8,9.3-41.2,1.4-7.4-3.2-31-1.4-38.9,1.8-7.9,5.1-18.1,1.8-24.1-3.2-6,4.2-20.4,5.6-26.4s-10.2-35.2-13-43.1,12.5-86.1,12-87.5-8.3-6-28.2-11.1c-19.9-5.1-84.3-20.8-93.5-27.8-9.3-6.9-16.2-46.8-16.2-59.7s32.9-62.5,74.5-88.4c41.7-25.9,106-67.6,110.6-67.6s30.6,53.7,31.9,61.6c1.4,7.9-53.2,44.4-63.4,53.2-10.2,8.8-36.1,38.4-36.1,38.4l17.6-2.8c17.6-2.8,28.7-7.4,46.8-11.1,18.1-3.7,42.1-1.8,42.1-1.8,0,0,45.8,23.6,76.9,27.3,31,3.7,55.6-10.2,57.4-10.2s50-4.2,50-4.2c0,0-21.8-54.6-22.2-60.6s38-44.9,45.4-44.4,14.4,10.6,35.6,45.4c21.3,34.7,60.8,120.1,63.9,131.5,3.1,11.5-3.1,27.2-10.2,37.4h0Z"/>
      <path class="st17" d="M551.7,1302.95c-11,1.5-23.1,3.3-34.8,6.6-34.7,9.7-100.2,13-105.8,13.4-2.6.2-22.5,5.3-43.5,10.3,1.4-10.9,3.5-25.9,3.2-37.2-.5-19.4-3.7-25-.9-48.2,2.8-23.1,5.1-31,25.9-35.2s132.4-9.7,143.1,4.2c10.6,13.9,1.8,36.5,6,46.5s6,16,6,28.5c.1,2.8.4,6.7.8,11.1h0Z"/>
      <g>
        <path class="st11" d="M303.9,1035.15c17.3-3.1,34.1-8.7,49.8-16.5,4.4-2.2,8.8-4.6,13-7.1,1.5-.9.1-3.2-1.4-2.3-14.9,8.9-31.1,15.7-47.9,20.1-4.7,1.2-9.5,2.3-14.3,3.2-1.6.3-.9,2.9.8,2.6h0ZM312.1,1038.55c8.9.6,17.9.7,26.9.5,1.7,0,1.8-2.8,0-2.7-9,.2-17.9.1-26.9-.5-1.8-.2-1.8,2.5,0,2.7h0ZM286,931.35c-12.1,13.2-24.8,25.8-38.2,37.7-1.3,1.2.6,3.1,1.9,1.9,13.4-11.9,26.1-24.5,38.2-37.7,1.2-1.3-.7-3.2-1.9-1.9h0ZM273.6,959.55c1.9-.8,3.7-1.6,5.6-2.5.7-.3.9-1.3.5-1.9-.4-.7-1.2-.8-1.9-.5-1.9.8-3.7,1.6-5.6,2.5-.7.3-.9,1.3-.5,1.9.5.7,1.2.8,1.9.5h0ZM574.7,929.65c5.8,16.5,12.2,32.7,19.2,48.6,2,4.5,4.1,9,6.2,13.5.7,1.6,3.1.2,2.3-1.4-7.4-15.6-14.1-31.6-20.2-47.7-1.7-4.6-3.4-9.2-5-13.8-.4-1.5-3-.8-2.5.8h0ZM601.5,978.45c.5,1.9,1.3,3.8,2.5,5.4.2.3.4.5.8.6.3.1.8,0,1-.1.6-.4.9-1.2.5-1.9-.5-.7-1-1.5-1.4-2.4,0-.1-.1-.2-.1-.3s0-.1-.1-.2c.07.13.07.17,0,.1-.1-.2-.2-.4-.2-.7-.2-.4-.3-.9-.4-1.4-.2-.7-1-1.2-1.7-.9-.7.4-1.1,1.1-.9,1.8h0ZM580.2,978.95c6.1,18.7,7.1,38.5,7,58,0,5.5-.2,11-.3,16.5,0,1.8,2.7,1.8,2.7,0,.5-19.7.9-39.5-2.7-58.9-1-5.5-2.4-11-4.1-16.3-.5-1.7-3.1-1-2.6.7h0Z"/>
        <path class="st11" d="M593.8,1038.25c-1.9,4.1-3.4,8.5-4.3,12.9-.2.7.2,1.5.9,1.7s1.5-.2,1.7-.9c.9-4.2,2.3-8.3,4.1-12.3.3-.7.2-1.5-.5-1.9-.7-.3-1.6-.1-1.9.5h0ZM295.7,1123.15c14.5,14.7,31.3,27,49.3,37,18.2,10.1,37.6,18,57.4,24.4,11.1,3.6,22.4,6.8,33.7,9.6,1.7.4,2.4-2.2.7-2.6-20.1-5-39.9-11-59.1-18.8-18.9-7.7-37.2-17.2-53.9-29.1-9.4-6.7-18.2-14.2-26.2-22.4-1.2-1.3-3.1.7-1.9,1.9h0Z"/>
        <path class="st11" d="M305.4,1135.75c8.6,14.8,18.4,28.8,29.3,42,1.1,1.3,3-.6,1.9-1.9-10.8-13-20.4-26.8-28.9-41.4-.8-1.6-3.2-.3-2.3,1.3h0ZM305,1173.65c1.2,2.5,2.4,5,3.6,7.5.3.6,1.3.9,1.9.5.7-.4.8-1.2.5-1.9-1.2-2.5-2.4-5-3.6-7.5-.3-.6-1.3-.9-1.9-.5s-.8,1.2-.5,1.9h0ZM579.9,1082.55c-6.4,12.6-14.4,24.4-23.8,34.9-2.7,3-5.5,5.9-8.4,8.7-1.3,1.2.7,3.1,1.9,1.9,10.3-10,19.4-21.3,26.8-33.6,2.1-3.5,4-7,5.9-10.6.8-1.5-1.6-2.9-2.4-1.3h0ZM517.2,1158.15c16.4-1.6,32.8-3.9,49-6.9,1.7-.3,1-2.9-.7-2.6-16,2.9-32.1,5.2-48.3,6.8-1.8.1-1.8,2.8,0,2.7h0ZM302.9,1259.55c15.7,11.2,32.8,20.3,50.8,27.3,5.1,2,10.2,3.8,15.4,5.4,1.7.5,2.4-2.1.7-2.6-18.3-5.6-35.8-13.5-52.1-23.5-4.6-2.8-9.1-5.8-13.5-8.9-1.3-1-2.7,1.3-1.3,2.3h0ZM302.4,1277.65c5.3,5,10.4,10.3,15.2,15.8,1.2,1.3,3.1-.6,1.9-1.9-4.8-5.5-9.9-10.8-15.2-15.8-1.3-1.3-3.2.7-1.9,1.9h0ZM309.2,1337.75c16.4-5.9,33.1-11,50-15.2,1.7-.4,1-3-.7-2.6-16.9,4.2-33.6,9.3-50,15.2-1.7.5-1,3.2.7,2.6h0ZM366.6,1319.75c20.2-4.3,40.6-8,61.1-11,5.8-.9,11.5-1.7,17.3-2.4.7-.1,1.4-.6,1.4-1.4,0-.7-.6-1.5-1.4-1.4-20.6,2.7-41.2,6-61.6,10-5.8,1.1-11.7,2.3-17.5,3.6-1.7.3-1,2.9.7,2.6h0ZM577,1234.75c-13.4,10.5-28,19.3-43.5,26.3-1.6.7-.2,3.1,1.4,2.3,15.7-7.1,30.5-16.1,44-26.7,1.4-1.1-.5-3-1.9-1.9h0Z"/>
      </g>
      <path class="st11" d="M316.5,1141.55s45.3,57.2,54.3,59.5c9.1,2.3,53-7.9,53-7.9,0,0-94.5-35-107.3-51.6ZM578.3,1094.75s-6.2,35.2-9.3,37.7c-3,2.5-32.6,7.2-32.6,7.2,0,0,35.6-31.4,41.9-44.9h0ZM574.7,1022.05s-42.7,46.8-57.9,55.6c-15.3,8.8-111.6,50.5-106.5,51.9s94-14.8,98.6-19,65.8-88.5,65.8-88.5h0Z"/>
      <path class="st17" d="M401.4,921.05c2.7,26.7,6.4,53.3,11.3,79.7,1.4,7.4,2.8,14.9,4.4,22.3.4,1.7,3,1,2.6-.7-5.4-26-9.8-52.3-13.1-78.7-.9-7.5-1.8-15-2.5-22.6-.2-1.7-2.9-1.7-2.7,0h0ZM517.8,936.45c-2.1,21.9-3.2,43.9-3.4,65.9-.1,6.3,0,12.6.1,18.9,0,1.7,2.7,1.8,2.7,0-.3-22,.2-44,1.8-66,.4-6.3,1-12.5,1.6-18.8.1-1.8-2.6-1.8-2.8,0h0Z"/>
      <g>
        <circle class="st24" cx="421.98" cy="1030.79" r="11.5"/>
        <circle class="st24" cx="517.3" cy="1026.15" r="9"/>
      </g>
      <path class="st6" d="M389.6,917.35s-23.4-45.2-28.5-69.8c-5.1-24.5-.9-51.4,1.9-62.5s42.1-63,60.2-77.3c18.1-14.4,55.4-19.9,69.2-18.5,13.7,1.4,40.6,13.4,46.1,21.8s43.1,87.5,43.1,116.7-42.1,76.8-43.5,86.1-1.4,22.7-19,27.8c-17.7,5-70.7,15.4-129.5-24.3h0Z"/>
      <path class="st11" d="M513.7,909.25c-.8,1-2.2,2.1-4.2,3.2-4.6,2.6-11.9,5.4-19.5,7.8-4.1,1.3-8.4,2.5-12.2,3.5-8.8,2.3-16,3.6-17,3.1-2.1-1-18.4-15-28.5-26.8-2.4-2.8-4.5-5.5-5.9-7.9-3.2-5.2-7.9-16.5-12.5-28.2-6.2-15.8-12-32.4-13.1-35.7-1.9-5.8,3.6-12.3,31.2-38.3.9-.9,1.8-1.7,2.7-2.6,2-1.9,3.9-3.7,5.7-5.5,1.5-1.4,2.9-2.9,4.3-4.3,4.5-4.4,8.6-8.7,12.4-12.7,14.1-14.9,23.1-25.8,23.1-25.8,8.2,3.6,26.5,16.4,42.2,33.6,3.2,3.5,6.2,7.1,9.1,10.8,3.2,4.3,6.2,8.7,8.7,13.3,4.2,7.6,7.3,15.5,8.4,23.4,5.6,37.5-28.7,81.3-34.9,89.1h0Z"/>
      <g>
        <g>
          <path class="st13" d="M509.5,912.45c-4.6,2.6-11.9,5.4-19.5,7.8-3.1,3.6-7.1,5.3-12.2,3.5-8.8,2.3-16,3.6-17,3.1-2.1-1-18.4-15-28.5-26.8,1-3.9,3-11,3.4-22.4v-1.3c.4-11.9.6-22.3.6-22.3l25.2-.3,27.8-.3,11.2-.1s-2.7,6.7-5,14.8c-.2.8-.5,1.7-.7,2.6-.1.3-.2.7-.2,1-1.1,4.3-1.9,8.8-2,12.6-.2,8.2.3,11.6,1.4,17.7v.1h0c.3,1.1,1.6,2.1,3.1,2.9,2.6,1.3,5.9,2.2,5.9,2.2,0,0,2.7,1.9,6.5,5.2h0Z"/>
          <path class="st25" d="M495.3,909.15c-1.2,4.4-3,8.3-5.3,11-3.1,3.6-7.1,5.3-12.2,3.5-2.3-.8-4.9-2.3-7.7-4.7-6.6-5.6-14.6-14.9-22.6-25.4-4-5.2-7.9-10.7-11.8-16.1v-1.2c.4-11.9.6-22.3.6-22.3l25.2-.3,27.8-.3c2,4.9,3.7,10.2,5,15.1.2.7.4,1.4.5,2.1-.1.3-.2.7-.2,1-1.1,4.3-1.9,8.8-2,12.6-.2,5.5.6,12.2,1.5,17.8h0c.1.9.3,1.7.4,2.5.3,1.9.5,3.4.8,4.7h0Z"/>
        </g>
        <g>
          <path class="st14" d="M531.6,783.35l-70,70.4-23.3,23.4s-1-.2-2.6-.8c-.2-.1-.4-.1-.6-.2-4.4-1.6-12.8-5.2-21.2-12.3-6.2-15.8-12-32.4-13.1-35.7-1.9-5.8,3.6-12.3,31.2-38.3.9-.9,1.8-1.7,2.7-2.6,2-1.9,3.9-3.7,5.7-5.5,1.5-1.4,2.9-2.9,4.3-4.3,4.5-4.4,8.6-8.7,12.4-12.7,14.1-14.9,23.1-25.8,23.1-25.8,8.2,3.6,26.5,16.4,42.2,33.6,3.3,3.4,6.3,7,9.2,10.8h0Z"/>
          <path class="st13" d="M540,839.15c.1,2.4-.2,5.5-.6,8.9v.1c-.4,1.6-7.4,27.2-14.6,37-6.9,9.4-3.8,21.7-19,20.9h-.1c-2.6-.3-5.5-.6-8.5-1-.9-.1-1.8-.3-2.7-.4-16.4-2.4-36.6-6.7-47-11h0c-3.7-1.5-6.1-3-6.8-4.3-1.3-2.6-3.1-6.9-5-11.6h0c-.2-.5-.4-1-.6-1.5-3.9-9.8-7.8-20.5-7.8-20.5,0,0-19.5-7.8-19.6-17s-4.6-22,4.7-24.8c9.3-2.8,16.7,14.6,24.2,14.1s2.4-6.3,2.4-15c0-5.2-2.8-16.8-4.3-25.6,2-1.9,3.9-3.7,5.7-5.5,1.5-1.4,2.9-2.9,4.3-4.3,8.9,2.3,22.7,5.9,38.2,5.7,24.6-.4,32.8-10.7,32.8-10.7l6.9.1c3.2,3.5,6.2,7.1,9.1,10.8,3.2,4.3,6.2,8.7,8.7,13.3-.2,2.7-.7,5.2-1.8,7.2-5.4,10.2,1,17.8,1.4,35.1h0Z"/>
          <path class="st14" d="M426.1,820.75s23.7-8.8,53.2-11.4c29.5-2.6,54.4-1.6,55.7.1,1.2,1.7,2.9,13.9,2.9,14.7s-10.8,3.9-18.5,4.6c-7.7.8-15.9-.9-18.2-.5-2.3.5-10.5,4.2-16.5,5.2s-14.8,2.5-32.3-1.1c-17.4-3.4-24.1-6.1-26.3-11.6h0Z"/>
          <path class="st14" d="M517.4,820.75c0,4,2,7.3,4.6,7.3s4.7-3.2,4.8-7.2c0-4-2-7.3-4.6-7.3s-4.8,3.2-4.8,7.2ZM471.6,822.45c0,4,2,7.3,4.6,7.3s4.7-3.2,4.8-7.2c0-4-2-7.3-4.6-7.3s-4.8,3.2-4.8,7.2Z"/>
          <path class="st1" d="M506.6,830.05c-4.9,8.3,5.2,10,6.7,16.4,1,4.2-2.5,4.4-4.1,7.2-1.2,2.2-4.2,0-3-2.2.8-1.4,3.5-2.8,3.1-4.6-.2-.9-2.5-2.8-3-3.3-1.1-1.2-2.3-2.3-3.3-3.6-2.8-3.8-1.8-8.2.5-12,1.4-2.3,4.4,0,3.1,2.1h0Z"/>
          <path class="st14" d="M531,807.45c.5.2-3.8-5-6.7-5.6-2.9-.5-5.9-.9-6.7.6-.6,1-2.1,3.6,0,3.6,1.7.1,9.1-.9,13.4,1.4ZM481.1,804.05s.6,3.2,0,4c-.7.9-4.1-.4-7.8,1.7s-7,3.6-7,3.6c0,0,1.9-4.8,4.4-7.6,2.3-2.7,10.2-4.5,10.4-1.7Z"/>
          <path class="st23" d="M515.9,817.25c0,1.4,1.1,2.5,2.4,2.5,1.4,0,2.5-1.1,2.5-2.4s-1.1-2.5-2.4-2.5-2.5,1.1-2.5,2.4ZM470.2,818.85c0,1.4,1.1,2.5,2.4,2.5,1.4,0,2.5-1.1,2.5-2.4,0-1.4-1.1-2.5-2.4-2.5-1.4-.1-2.5,1-2.5,2.4Z"/>
          <g>
            <path class="st23" d="M473.7,805.85h0Z"/>
            <path class="st23" d="M524.2,807.35h0Z"/>
          </g>
          <path class="st14" d="M515.6,772.45s-1.7,13.5-36.2,17.2c-20.8,2.2-32.8-3.2-39-7.9,1.5-1.4,2.9-2.9,4.3-4.3,4.5-4.4,8.6-8.7,12.4-12.7,4.5-1,9.8-1.7,16-1.9,30.1-1.2,42.5,9.6,42.5,9.6h0Z"/>
          <path class="st1" d="M428.1,832.95s-12.5-17.2-15.2-12.1c-2.7,5.2,2.7,21.4,5.6,22.7s11.3,3.1,8.1-2c-3.3-5.1-1.4-6.4,1.4-4,2.8,2.5,3.1-.8.1-4.6h0Z"/>
        </g>
        <path class="st1" d="M492.7,872.85c5.7-3.8,13.2-4.3,19.3-1.1,1.7.9,3.1-1.6,1.5-2.5-7-3.6-15.7-3.3-22.2,1.1-1.6,1-.2,3.5,1.4,2.5h0ZM503,877.25c.7.1,1.3.2,2,.4.2.1.4.1.6,0,.2,0,.4-.1.5-.2.2-.1.3-.2.4-.4.1-.1.2-.3.3-.5.1-.4.1-.8-.1-1.1s-.5-.6-.9-.7c-.7-.1-1.3-.2-2-.4-.2-.1-.4-.1-.6,0-.2,0-.4.1-.5.2-.2.1-.3.2-.4.4-.1.1-.2.3-.3.5-.1.4-.1.8.1,1.1s.5.6.9.7h0Z"/>
      </g>
    </g>
    <g>
      <path class="st21" d="M355.1,1376.75v166.7c0,6.6-5.4,12-12,12h-169.9c-6.6,0-12-5.3-12-12v-231.4c0-6.6,5.4-11.9,12-11.9h133c1.6,0,3.2.3,4.7,1,2.3,1,4.4,2.8,5.7,5l37,64.7c.7,1.2,1.2,2.5,1.4,3.9,0,.6.1,1.3.1,2h0Z"/>
      <path class="st24" d="M354.9,1374.75h-37.1c-3.8,0-7-3.1-7-7v-66.7c2.3,1,4.4,2.8,5.7,5l37,64.7c.7,1.3,1.2,2.6,1.4,4Z"/>
      <g>
        <circle class="st17" cx="258.03" cy="1420.31" r="55.4" transform="translate(-1185.27 1393.02) rotate(-78.62)"/>
        <path class="st21" d="M282.6,1436.15c.9.9.9,2.4,0,3.4l-5.2,5.2c-.9.9-2.4.9-3.4,0l-15.9-15.9-15.9,15.9c-.9.9-2.4.9-3.4,0l-5.2-5.2c-.9-.9-.9-2.4,0-3.4l15.9-15.9-15.9-15.9c-.9-.9-.9-2.4,0-3.4l5.2-5.2c.9-.9,2.4-.9,3.4,0l15.9,15.9,15.9-15.9c.9-.9,2.4-.9,3.4,0l5.2,5.2c.9.9.9,2.4,0,3.4l-15.9,15.9,15.9,15.9Z"/>
      </g>
      <rect class="st24" x="205.8" y="1506.85" width="106.3" height="8.8"/>
    </g>
    <g>
      <g>
        <path class="st24" d="M204.6,1184.05c4.4-1.6,9.1-3.3,13.9-3.1,4.2.2,7.7,2.5,10.6,5.3,2.5,2.4,6.4-1.4,3.8-3.8-3.8-3.7-8.3-6.3-13.6-6.8-5.5-.5-11,1.4-16.1,3.2-1.4.5-2.3,1.8-1.9,3.3.3,1.4,1.9,2.5,3.3,1.9h0Z"/>
        <path class="st24" d="M175.8,1176.85c-2.1-1.3-4.1-2.9-6.3-4.1-2.5-1.2-5.1-1.9-7.9-1.5-4.8.7-9.4,4-12.9,7.2-1.1,1-1,2.8,0,3.8,1.1,1.1,2.8,1,3.8,0,1.5-1.4,3.1-2.6,4.9-3.6,1.6-.9,3.3-2,5.2-2.2,3.9-.5,7.3,3,10.4,4.9,3,2.1,5.8-2.6,2.8-4.5h0ZM170.4,1189.05c-3.2-.5-6.4-.9-9.6-1.1-1.4-.1-2.9-.1-4.2.4-1.4.5-2.7,1.3-4,2.1-4.7,3-9,6.7-12.6,10.8-1,1.1-1.1,2.8,0,3.8,1,1,2.9,1.1,3.8,0,3.2-3.6,6.8-6.9,10.9-9.5,1-.6,2-1.4,3.1-1.9,1-.4,2-.4,3.1-.3,2.7.2,5.4.5,8.1.9,1.5.2,2.9-.4,3.3-1.9.3-1.2-.5-3.1-1.9-3.3h0ZM165.3,1211.85c-2.8-.9-5.7-1.7-8.6-1.7-3.1,0-5.9,1.1-8.3,3-4.4,3.5-7.6,8.5-10.5,13.2-1.8,3,2.9,5.7,4.7,2.7,2.5-4.1,5.2-8.2,8.8-11.4,1.5-1.3,3.2-2.1,5.3-2.1,2.5,0,4.9.8,7.2,1.5,1.4.4,3-.5,3.3-1.9.4-1.4-.4-2.8-1.9-3.3h0ZM166.5,1225.45c-6.4,1.2-11.8,5.4-15.6,10.6-4.2,5.9-6,13.1-7.6,20-.8,3.4,4.4,4.9,5.2,1.4,1.5-6.3,3-12.7,6.7-18.1,3-4.4,7.5-7.7,12.7-8.6,1.4-.3,2.3-2,1.9-3.3-.4-1.6-1.9-2.3-3.3-2h0ZM206.1,1196.55c5,.4,10.3-1.4,15.3-.2,4.6,1.2,7.2,5.4,10.7,8.2,1.1.9,2.7,1.1,3.8,0,1-1,1.1-2.9,0-3.8-2-1.6-3.6-3.6-5.5-5.3-2.1-1.9-4.4-3.4-7.2-4.2-5.6-1.6-11.4.3-17.1-.1-1.5-.1-2.7,1.3-2.7,2.7,0,1.5,1.3,2.5,2.7,2.7h0ZM208.7,1215.25h10.8c1.3,0,2.7-.1,3.9.5,1.3.7,2.3,1.9,3.4,2.9,4.6,4.5,8.5,9.5,11.8,15,1.8,3,6.5.3,4.7-2.7-3.6-6.1-8.1-11.8-13.2-16.7-1.2-1.2-2.5-2.5-4-3.3-1.7-.9-3.6-1.2-5.5-1.2h-11.8c-3.6.1-3.6,5.5-.1,5.5h0ZM205,1230.15c2.9,1.5,5.9,3,8.8,4.6,2.3,1.3,4.7,2.4,6,4.9,1.3,2.6,2,5.7,2.8,8.5,1,3.2,1.9,6.4,3,9.5.5,1.4,1.9,2.3,3.3,1.9,1.3-.4,2.4-2,1.9-3.3-1.2-3.3-2.2-6.6-3.2-9.9-1-3.2-1.8-6.8-3.4-9.8-1.6-2.9-4.4-4.6-7.2-6.2-3.1-1.7-6.2-3.3-9.3-4.9-1.3-.7-3-.3-3.7,1-.7,1.2-.3,3,1,3.7h0Z"/>
      </g>
      <circle class="st24" cx="188.5" cy="1165.85" r="14.5"/>
      <path class="st24" d="M218.2,1207.85c0,14.1-5,26.6-12.7,34.4-5.1,5.2-11.4,8.2-18.2,8.2s-12.5-2.8-17.5-7.5c-8.1-7.7-13.4-20.5-13.4-35.1,0-23.5,13.8-42.6,30.9-42.6h1.4c16.4,1.1,29.5,19.8,29.5,42.6Z"/>
      <path class="st21" d="M187.3,1165.35s3.8,37.6-14.2,71.6c-1.2,2.2-2.2,4.2-3.3,6.1-8.1-7.7-13.4-20.5-13.4-35.1,0-23.6,13.8-42.6,30.9-42.6Z"/>
      <path class="st21" d="M218.2,1207.85c0,14.1-5,26.6-12.7,34.4-9.9-26.2-21.4-61.8-16.8-76.9,16.4,1,29.5,19.7,29.5,42.5Z"/>
    </g>
    <g>
      <g>
        <path class="st24" d="M646.1,733.25c3.6.3,7.3.5,10.5,2.2,2.8,1.4,4.5,4.1,5.7,7,1,2.5,4.8,1,3.9-1.5-1.5-3.7-3.7-6.9-7.3-9s-8-2.5-12.1-2.8c-1.1-.1-2.2.6-2.4,1.7-.1,1.1.6,2.3,1.7,2.4h0Z"/>
        <path class="st24" d="M628.5,719.35c-1.1-1.6-1.9-3.3-3.1-4.8-1.3-1.6-2.9-2.9-5-3.5-3.5-1-7.7-.1-11.1,1-1.1.3-1.6,1.6-1.2,2.7.4,1.1,1.6,1.5,2.7,1.2,1.5-.5,3-.8,4.5-1,1.4-.1,2.9-.3,4.2.1,2.9.9,4.1,4.4,5.6,6.6,1.5,2.2,4.9-.1,3.4-2.3h0ZM621,726.05c-2-1.3-4.1-2.6-6.3-3.8-.9-.5-2-.9-3-1.1-1.1-.1-2.3,0-3.4.2-4.2.6-8.3,1.8-12.1,3.5-1,.5-1.6,1.6-1.2,2.7.4,1,1.6,1.7,2.7,1.2,3.3-1.5,6.8-2.6,10.5-3.2.9-.1,1.8-.3,2.7-.3.8,0,1.5.4,2.2.7,1.8,1,3.6,2,5.3,3.2.9.6,2.1.7,2.9-.3.6-.7.6-2.2-.3-2.8h0ZM610.4,740.15c-1.6-1.5-3.4-3-5.4-3.9-2.1-1-4.4-1.1-6.7-.5-4.1,1-7.9,3.5-11.4,5.8-2.2,1.5.2,4.8,2.4,3.4,3-2,6.2-4,9.6-5.1,1.5-.5,2.9-.5,4.3.2,1.7.8,3.1,2.1,4.5,3.3.8.7,2.2.6,2.9-.3.8-.9.6-2.1-.2-2.9h0ZM607,749.85c-4.8-1.2-9.8,0-14.1,2.4-4.7,2.7-8.2,7.1-11.5,11.4-1.6,2.1,1.5,4.7,3.2,2.6,3-3.9,6-7.8,10.3-10.4,3.4-2.1,7.5-3,11.5-2,1.1.3,2.2-.7,2.4-1.7.1-1.1-.8-2-1.8-2.3h0ZM643.3,742.35c3.3,1.9,7.6,2.2,10.6,4.6,2.8,2.2,3.3,6,4.8,9,.5,1,1.5,1.6,2.7,1.2,1-.4,1.7-1.7,1.2-2.7-.9-1.7-1.4-3.6-2.1-5.4-.8-2-2-3.8-3.6-5.2-3.4-2.9-8-3.3-11.7-5.4-1-.5-2.3.1-2.7,1-.7,1.2-.2,2.3.8,2.9h0ZM639.2,756.05c2.5,1.1,5,2.2,7.4,3.4.9.4,1.9.8,2.5,1.6.7.9,1,2.1,1.4,3.1,1.8,4.5,2.9,9.2,3.5,14,.3,2.6,4.4,2.2,4.1-.4-.6-5.3-1.9-10.6-3.9-15.6-.5-1.2-1-2.5-1.8-3.5-.9-1.2-2.1-1.9-3.4-2.5-2.7-1.3-5.4-2.5-8.2-3.7-2.3-1.2-4,2.5-1.6,3.6h0ZM632,765.15c1.6,2,3.1,3.9,4.6,5.9,1.2,1.6,2.5,3.2,2.6,5.2.1,2.2-.4,4.6-.7,6.8-.3,2.5-.7,5-.9,7.5-.1,1.1.6,2.2,1.7,2.4,1,.2,2.3-.6,2.4-1.7.2-2.6.6-5.2.9-7.8.3-2.5.9-5.2.7-7.8-.2-2.5-1.6-4.6-3-6.5-1.6-2.1-3.2-4.2-4.9-6.3-.7-.9-1.9-1.2-2.9-.5-.8.6-1.2,1.9-.5,2.8h0Z"/>
      </g>
      <circle class="st24" cx="640.65" cy="715.59" r="10.9"/>
      <path class="st24" d="M648,753.95c-4.4,9.7-11.7,16.8-19.4,19.8-5.1,2-10.4,2.1-15.1,0-4.5-2-7.8-5.8-9.7-10.6-3.2-7.8-2.8-18.3,1.7-28.4,7.3-16.2,22.8-25,34.6-19.7.3.1.6.3.9.5,11,5.6,14.2,22.6,7,38.4Z"/>
      <path class="st21" d="M640,714.95s-9.1,27.1-32.1,44.9c-1.5,1.1-2.9,2.2-4.2,3.2-3.2-7.8-2.8-18.3,1.7-28.4,7.4-16.2,22.9-25.1,34.6-19.7Z"/>
      <path class="st21" d="M648,753.95c-4.4,9.7-11.7,16.8-19.4,19.8,1.3-21.2,4.6-49.3,12.4-58.3,11,5.7,14.2,22.7,7,38.5Z"/>
    </g>
    <g>
      <circle class="st21" cx="298.8" cy="736.55" r="30.2"/>
      <path class="st24" d="M283.9,694.85c2.7,5.7,5.5,11.4,8.2,17.1.5,1,1.8,1.2,2.7.7,1-.6,1.2-1.7.7-2.7-2.7-5.7-5.5-11.4-8.2-17.1-.5-1-1.8-1.2-2.7-.7-1,.6-1.2,1.8-.7,2.7h0ZM261.8,713.65c4.3,2.1,8.6,4.2,12.9,6.3,1,.5,2.1.3,2.7-.7.5-.9.3-2.2-.7-2.7-4.3-2.1-8.6-4.2-12.9-6.3-1-.5-2.1-.3-2.7.7-.5.9-.3,2.2.7,2.7h0ZM272.8,727.75c-5.6,1-11.3,2-16.9,3.1-1,.2-1.6,1.5-1.4,2.4.3,1.1,1.4,1.6,2.4,1.4,5.6-1,11.3-2,16.9-3.1,1-.2,1.6-1.5,1.4-2.4-.2-1.1-1.3-1.6-2.4-1.4h0ZM269.7,746.55c-3.6,3.4-7.2,6.8-10.8,10.2-.8.7-.8,2.1,0,2.8s2,.7,2.8,0c3.7-3.3,7.3-6.7,10.8-10.2.7-.7.8-2.1,0-2.8-.9-.7-2-.7-2.8,0h0ZM282.1,740.45c2.1,1,4.2,2,6.3,3.1.5.2,1,.3,1.5.2s1-.5,1.2-.9c.5-.9.3-2.2-.7-2.7-2.1-1-4.2-2-6.3-3.1-.5-.2-1-.3-1.5-.2s-1,.5-1.2.9c-.5.9-.3,2.2.7,2.7h0ZM284.2,727.55c3.7,1.9,7.3,3.9,10.8,6.1.9.5,2.2.2,2.7-.7.5-1,.2-2.1-.7-2.7-3.5-2.2-7.1-4.2-10.8-6.1-.9-.5-2.2-.3-2.7.7-.5.9-.3,2.2.7,2.7h0ZM312,696.05c-1.8,6.6-3.8,13.1-6,19.6-.3,1,.4,2.2,1.4,2.4,1.1.3,2.1-.4,2.4-1.4,2.2-6.4,4.2-13,6-19.6.6-2.4-3.2-3.4-3.8-1h0ZM301.3,721.75c.6-2.7.9-5.5.9-8.3,0-1-.9-2-2-2s-2,.9-2,2c0,1.3-.1,2.5-.2,3.8,0,.1,0,.3-.1.4,0,.1,0,.7,0,.1,0,.3-.1.6-.1.9-.1.6-.2,1.3-.4,1.9-.2,1,.3,2.2,1.4,2.4,1.1.4,2.3-.2,2.5-1.2h0ZM335,707.05c-5.3,3.8-10.6,7.7-15.6,11.8-.8.7-.7,2.1,0,2.8.8.8,2,.7,2.8,0,4.8-3.9,9.8-7.6,14.8-11.2.9-.6,1.3-1.7.7-2.7-.5-.9-1.8-1.3-2.7-.7h0ZM322.6,734.25c6.4.7,12.9,1.2,19.4,1.4,2.5.1,2.5-3.9,0-3.9-6.5-.2-13-.7-19.4-1.4-1.1-.1-2,1-2,2,0,1.1.9,1.8,2,1.9h0ZM312.6,736.15c1.6,1,3.2,1.9,4.8,2.9.9.5,2.2.2,2.7-.7.5-1,.2-2.1-.7-2.7-1.6-1-3.2-1.9-4.8-2.9-.9-.5-2.2-.2-2.7.7-.5,1-.2,2.2.7,2.7h0ZM317.8,748.15c5.4,4.1,10.5,8.7,15.2,13.6,1.8,1.8,4.5-1,2.8-2.8-5-5.1-10.3-9.9-16-14.2-.8-.6-2.2-.1-2.7.7-.6,1-.1,2.1.7,2.7h0ZM327.8,745.55c1.4.5,2.8,1,4.1,1.6-.2-.1-.3-.1-.5-.2.9.4,1.7.7,2.5,1.1.5.2,1,.3,1.5.2s1-.5,1.2-.9c.5-.9.3-2.2-.7-2.7-2.3-1.1-4.7-2.1-7.1-2.9-1-.3-2.2.4-2.4,1.4-.2,1.1.4,2,1.4,2.4h0ZM300,743.65c.1.1.3.2.4.3-.1,0-.2-.2-.4-.3.9.7,1.8,1.6,2.5,2.5-.1-.1-.2-.3-.3-.4.2.2.3.4.5.7.3.4.7.8,1.2.9.5.1,1.1.1,1.5-.2s.8-.7.9-1.2.1-1.1-.2-1.5c-.6-.8-1.2-1.6-1.8-2.3-.7-.7-1.4-1.3-2.2-1.9-.4-.3-1.1-.3-1.5-.2-.5.1-1,.5-1.2.9-.2.5-.4,1-.2,1.5.1.2.1.3.2.5.1.3.3.6.6.7h0ZM307.4,753.75c5.3,4.4,10.5,8.8,15.8,13.2.8.7,2,.8,2.8,0,.7-.7.8-2.1,0-2.8-5.3-4.4-10.5-8.8-15.8-13.2-.8-.7-2-.8-2.8,0-.7.7-.8,2.1,0,2.8h0ZM298.4,757.45c.5,7,1.1,14,1.6,21,.1,1.1.8,2,2,2,1,0,2-.9,2-2-.5-7-1.1-14-1.6-21-.1-1.1-.8-2-2-2-1.1,0-2.1.9-2,2h0ZM283.8,757.75c-2.6,4.2-5.1,8.4-7.5,12.8-.5.9-.2,2.1.7,2.7.9.5,2.2.2,2.7-.7,2.4-4.3,4.9-8.6,7.5-12.8.6-.9.2-2.2-.7-2.7-.9-.6-2.1-.2-2.7.7h0ZM269,737.55c-5.2.1-10.3.5-15.4,1.1-1.1.1-2,.8-2,2,0,1,.9,2.1,2,2,5.1-.6,10.3-1,15.4-1.1,2.6-.1,2.6-4.1,0-4h0Z"/>
      <g>
        <circle class="st24" cx="263.1" cy="711.95" r="6.2"/>
        <circle class="st24" cx="285.1" cy="693.85" r="6.2"/>
        <circle class="st24" cx="314.2" cy="696.25" r="6.2"/>
        <circle class="st24" cx="301.1" cy="711.15" r="6.2"/>
        <path class="st24" d="M291.3,723.15c0,3.4-2.8,6.2-6.2,6.2s-6.2-2.8-6.2-6.2,2.8-6.2,6.2-6.2,6.2,2.8,6.2,6.2Z"/>
        <circle class="st24" cx="338" cy="706.35" r="6.2"/>
        <circle class="st24" cx="343.9" cy="731.15" r="6.2"/>
        <circle class="st24" cx="339.4" cy="747.45" r="6.2"/>
        <circle class="st24" cx="337.7" cy="763.85" r="6.2"/>
        <circle class="st24" cx="325" cy="766.35" r="6.2"/>
        <path class="st24" d="M285.1,772.55c0,3.4-2.8,6.2-6.2,6.2s-6.2-2.8-6.2-6.2,2.8-6.2,6.2-6.2,6.2,2.8,6.2,6.2Z"/>
        <circle class="st24" cx="261.3" cy="760.25" r="6.2"/>
        <circle class="st24" cx="255.1" cy="731.15" r="6.2"/>
        <circle class="st24" cx="302.7" cy="781.35" r="6.2"/>
      </g>
    </g>
    <g>
      <circle class="st21" cx="596.1" cy="1195.55" r="40.4"/>
      <path class="st24" d="M576.2,1139.85c3.7,7.6,7.3,15.3,11,22.9.6,1.3,2.4,1.6,3.6.9,1.3-.8,1.6-2.3.9-3.6-3.7-7.6-7.3-15.3-11-22.9-.6-1.3-2.4-1.6-3.6-.9-1.3.8-1.5,2.3-.9,3.6h0ZM546.7,1164.95c5.7,2.8,11.5,5.6,17.2,8.5,1.3.6,2.8.3,3.6-.9.7-1.2.3-3-.9-3.6-5.7-2.8-11.5-5.6-17.2-8.5-1.3-.6-2.8-.3-3.6.9-.7,1.2-.4,3,.9,3.6h0ZM561.4,1183.75c-7.5,1.4-15,2.7-22.5,4.1-1.4.3-2.2,2-1.8,3.2.4,1.5,1.8,2.1,3.2,1.8,7.5-1.4,15-2.7,22.5-4.1,1.4-.3,2.2-2,1.8-3.2-.3-1.4-1.8-2-3.2-1.8h0ZM557.2,1208.95c-4.8,4.6-9.6,9.1-14.5,13.6-1,.9-1,2.8,0,3.7,1.1,1,2.6,1,3.7,0,4.9-4.5,9.7-9,14.5-13.6,1-1,1-2.8,0-3.7-1-1-2.6-1-3.7,0h0ZM573.8,1200.75c2.8,1.4,5.6,2.7,8.4,4.1.6.3,1.3.5,2,.3.6-.2,1.3-.6,1.6-1.2.6-1.2.4-3-.9-3.6-2.8-1.4-5.6-2.7-8.4-4.1-.6-.3-1.3-.5-2-.3-.6.2-1.3.6-1.6,1.2-.7,1.2-.5,3,.9,3.6h0ZM576.6,1183.55c4.9,2.5,9.7,5.2,14.4,8.2,1.2.7,2.9.3,3.6-.9.7-1.3.3-2.8-.9-3.6-4.7-2.9-9.5-5.6-14.4-8.2-1.2-.6-2.9-.4-3.6.9-.6,1.2-.4,2.9.9,3.6h0ZM613.7,1141.45c-2.3,8.8-5,17.5-8,26.1-.5,1.3.5,2.9,1.8,3.2,1.4.4,2.8-.5,3.2-1.8,3-8.6,5.7-17.3,8-26.1.9-3.2-4.2-4.6-5-1.4h0ZM599.5,1175.75c.8-3.6,1.2-7.3,1.2-11,0-1.4-1.2-2.7-2.6-2.6-1.4.1-2.6,1.2-2.6,2.6,0,1.7-.1,3.4-.3,5.1,0,.2,0,.4-.1.6,0,.2-.1.9,0,.2,0,.4-.1.8-.2,1.2-.1.9-.3,1.7-.5,2.6-.3,1.3.4,2.9,1.8,3.2,1.4.2,3-.5,3.3-1.9h0ZM644.5,1156.15c-7.1,5-14.1,10.3-20.9,15.8-1.1.9-.9,2.8,0,3.7,1.1,1.1,2.6.9,3.7,0,6.4-5.2,13.1-10.2,19.8-15,1.2-.8,1.7-2.3.9-3.6-.6-1.1-2.4-1.7-3.5-.9h0ZM627.8,1192.55c8.6,1,17.2,1.6,25.9,1.9,3.4.1,3.4-5.1,0-5.3-8.7-.3-17.3-.9-25.9-1.9-1.4-.2-2.6,1.3-2.6,2.6,0,1.6,1.2,2.5,2.6,2.7h0ZM614.5,1195.05c2.2,1.3,4.3,2.6,6.5,3.9,1.2.7,2.9.3,3.6-.9.7-1.3.3-2.8-.9-3.6-2.2-1.3-4.3-2.6-6.5-3.9-1.2-.7-2.9-.3-3.6.9-.7,1.2-.3,2.8.9,3.6h0ZM621.5,1211.05c7.2,5.5,14,11.6,20.3,18.1,2.4,2.4,6.1-1.3,3.7-3.7-6.6-6.9-13.8-13.2-21.3-19-1.1-.9-2.9-.2-3.6.9-.8,1.4-.2,2.8.9,3.7h0ZM634.8,1207.55c1.9.6,3.7,1.3,5.5,2.1-.2-.1-.4-.2-.6-.3,1.1.5,2.3,1,3.4,1.5.6.3,1.3.5,2,.3.6-.2,1.3-.6,1.6-1.2.6-1.2.4-3-.9-3.6-3.1-1.5-6.3-2.8-9.5-3.9-1.3-.4-2.9.5-3.2,1.8-.4,1.5.3,2.8,1.7,3.3h0ZM597.8,1205.05c.2.1.4.3.6.4-.2-.1-.4-.2-.6-.4,1.3,1,2.4,2.1,3.3,3.3-.1-.2-.3-.4-.4-.5.2.3.4.6.7.9.4.6.9,1,1.6,1.2.6.2,1.5.1,2-.3.6-.4,1.1-.9,1.2-1.6.2-.7.1-1.4-.3-2-.7-1.1-1.6-2.1-2.5-3s-1.9-1.8-3-2.5c-.5-.4-1.4-.4-2-.3-.6.2-1.3.6-1.6,1.2s-.5,1.3-.3,2l.3.6c.3.5.6.8,1,1h0ZM607.6,1218.55c7,5.9,14,11.7,21,17.6,1.1.9,2.7,1.1,3.7,0,.9-.9,1.1-2.8,0-3.7-7-5.9-14-11.7-21-17.6-1.1-.9-2.7-1.1-3.7,0-.9.9-1.1,2.7,0,3.7h0ZM595.5,1223.45c.7,9.4,1.4,18.7,2.1,28.1.1,1.4,1.1,2.6,2.6,2.6,1.3,0,2.7-1.2,2.6-2.6-.7-9.4-1.4-18.7-2.1-28.1-.1-1.4-1.1-2.6-2.6-2.6-1.3,0-2.7,1.2-2.6,2.6h0ZM576.1,1223.75c-3.5,5.6-6.9,11.3-10,17.1-.7,1.2-.3,2.9.9,3.6s2.9.3,3.6-.9c3.2-5.8,6.5-11.5,10-17.1.8-1.2.3-2.9-.9-3.6-1.2-.8-2.8-.3-3.6.9h0ZM556.4,1196.85c-6.9.1-13.8.6-20.6,1.5-1.4.2-2.6,1.1-2.6,2.6,0,1.3,1.2,2.8,2.6,2.6,6.8-.8,13.7-1.3,20.6-1.5,3.4,0,3.4-5.3,0-5.2h0Z"/>
      <g>
        <circle class="st24" cx="548.37" cy="1162.59" r="8.3"/>
        <circle class="st24" cx="577.73" cy="1138.53" r="8.3"/>
        <circle class="st24" cx="616.7" cy="1141.75" r="8.3"/>
        <circle class="st24" cx="599.23" cy="1161.53" r="8.3"/>
        <circle class="st24" cx="577.8" cy="1177.65" r="8.3"/>
        <circle class="st24" cx="648.37" cy="1155.31" r="8.3"/>
        <circle class="st24" cx="656.31" cy="1188.29" r="8.3"/>
        <circle class="st24" cx="650.23" cy="1210.07" r="8.3"/>
        <circle class="st24" cx="648" cy="1231.96" r="8.3"/>
        <circle class="st24" cx="631.06" cy="1235.39" r="8.3"/>
        <circle class="st24" cx="569.51" cy="1243.68" r="8.3" transform="translate(-712.61 766.97) rotate(-45)"/>
        <circle class="st24" cx="546" cy="1227.15" r="8.3"/>
        <circle class="st24" cx="537.79" cy="1188.27" r="8.3"/>
        <circle class="st24" cx="601.33" cy="1255.23" r="8.3" transform="translate(-758.72 1550.95) rotate(-76.67)"/>
      </g>
    </g>
  </g>
  <g>
    <path class="st22" d="M1958.7,1785.35H66.8c-2.3,0-4.2-1.9-4.2-4.2v-8.2c0-2.3,1.9-4.2,4.2-4.2h1891.9c2.3,0,4.2,1.9,4.2,4.2v8.2c0,2.3-1.9,4.2-4.2,4.2h0Z"/>
    <g>
      <rect class="st22" x="181.9" y="1808.75" width="687" height="6.8"/>
      <rect class="st22" x="940.4" y="1808.75" width="955.1" height="6.8"/>
    </g>
  </g>
  <g>
    <path class="st16" d="M961.3,459.85l-18.4,109.3c-.9,5.5-6.2,10-11.7,10.1l-180.4,1.4c-5.5,0-9.3-4.4-8.3-9.9l18.4-109.3c.5-2.8,2-5.3,4.1-7.1s4.8-3,7.6-3l180.4-1.4c5.5,0,9.2,4.4,8.3,9.9h0Z"/>
    <ellipse class="st10" cx="955.33" cy="459.23" rx="29.8" ry="25" transform="translate(-59.37 765.71) rotate(-42.48)"/>
    <path class="st7" d="M948.5,459.85l-18.4,109.3c-.9,5.5-6.2,10-11.7,10.1l-180.4,1.4c-5.5,0-9.3-4.4-8.3-9.9l18.4-109.3c.5-2.8,2-5.3,4.1-7.1s4.8-3,7.6-3l180.4-1.4c5.5,0,9.3,4.4,8.3,9.9h0Z"/>
    <path class="st2" d="M948.5,459.85l-.4,2.7-98.1,54.8c-5.6,3.1-12.1,3-16.4-.3l-81-62.3c-.1-.1-.3-.2-.4-.3,2.1-1.8,4.8-3,7.6-3l180.4-1.4c5.5-.1,9.3,4.3,8.3,9.8h0Z"/>
    <ellipse class="st8" cx="942.55" cy="459.26" rx="29.8" ry="25" transform="translate(-62.75 757.08) rotate(-42.48)"/>
  </g>
  <g>
    <path class="st11" d="M1095.4,1483.15l-5,29.5h-213.4c-19.1,0-32.5-16.2-29.8-36.2l12.2-90.7,31.3,2.3-10,74.5c-1.5,11.4,6.1,20.7,17,20.7h197.7v-.1h0Z"/>
    <path class="st6" d="M1084.6,1404.15l-11.9,79h-176.8c-9.8,0-16.6-9.3-15.2-20.7l9-74.5,194.9,16.2Z"/>
  </g>
  <g>
    <path class="st20" d="M1075.4,1420.45h-221.6c-16,0-23-17.4-12.5-31.3l144.7-192c10.5-13.9,30.5-13.9,36.1,0l77,192c5.5,13.9-7.6,31.3-23.7,31.3h0Z"/>
    <path class="st16" d="M1061.9,1420.45h-221.7c-16,0-23-17.4-12.5-31.3l144.7-192c10.5-13.9,30.5-13.9,36.1,0l77,192c5.6,13.9-7.5,31.3-23.6,31.3Z"/>
    <path class="st2" d="M1072.8,1404.15c-1,1.4-4,4.6-8.8,4.6h-221.7c-4.8,0-6.6-3.2-7.1-4.6-.6-1.4-1.5-5,1.6-9.2l144.7-192c3.1-4.1,7.2-4.6,8.8-4.6s5.5.4,7.1,4.6l77,192c1.6,4.2-.6,7.8-1.6,9.2h0Z"/>
    <path class="st19" d="M963.5,1350.05c4.1,0,7.1,1.2,9.2,3.6,2.1,2.4,2.8,5.5,2.1,9.2-.6,3.7-2.4,6.7-5.3,9.1-2.9,2.4-6.4,3.6-10.5,3.6s-7.1-1.2-9.1-3.6c-2.1-2.4-2.8-5.4-2.1-9.1.6-3.7,2.4-6.7,5.3-9.2,2.9-2.4,6.3-3.6,10.4-3.6h0ZM975.8,1336.85h-20.1l12-84.4h25.8l-17.7,84.4Z"/>
  </g>
  <g>
    <path class="st2" d="M1891.3,949.25l-7.4,84.7c-.7,7.5-7.3,13.7-14.9,13.7h-108.2c-7.5,0-13.1-6.1-12.5-13.7l7.4-84.7c.6-7.2,6.7-13.1,13.8-13.6h110.2c7.1.5,12.2,6.5,11.6,13.6h0Z"/>
    <path class="st20" d="M1837.9,977.45c-.6,7.1-5.5,13.1-11.8,15.6l-2.1,23.7c-.3,3.3-3.2,5.9-6.5,5.9h-.9c-3.3,0-5.7-2.7-5.4-5.9l2.1-23.7c-5.9-2.5-9.7-8.6-9.1-15.6.8-9.3,9-16.9,18.4-16.9s16.1,7.6,15.3,16.9ZM1880.5,928.05l-.7,7.7h-13.7l.7-7.6c2-22.8-14.9-41.3-37.7-41.3s-43,18.5-45,41.3l-.7,7.6h-13.7l.7-7.7c2.7-30.4,29.6-55.1,59.9-55.1,30.3-.1,52.8,24.7,50.2,55.1h0Z"/>
  </g>
</svg>