<?xml version="1.0" encoding="UTF-8"?>
<svg id="Medalwithribbon" xmlns="http://www.w3.org/2000/svg" version="1.1" viewBox="0 0 3000 3000">
  <!-- Generator: Adobe Illustrator 29.8.2, SVG Export Plug-In . SVG Version: 2.1.1 Build 3)  -->
  <defs>
    <style>
      .st0 {
        fill: #81ddff;
      }

      .st1 {
        fill: #e6e6e6;
      }

      .st2 {
        fill: #e603ff;
      }

      .st3 {
        fill: #612879;
      }

      .st4 {
        fill: #1e2030;
      }

      .st5 {
        fill: #205fac;
      }

      .st6 {
        fill: #954c9d;
      }

      .st7 {
        fill: #08356d;
      }

      .st8 {
        fill: #87ddfd;
      }
    </style>
  </defs>
  <path class="st3" d="M1446.69,1070.9l-61.48,233.37c-5,18.95-2.9,39.05,5.9,56.57l108.27,215.67c25.96,51.71-9.56,113.09-67.34,116.36l-240.92,13.63c-19.56,1.12-38.04,9.32-51.98,23.09l-171.66,169.61c-41.16,40.67-110.51,25.86-131.47-28.06l-16.25-41.83c-13-33.45-33.77-86.91-46.77-120.33-13.54-32.49-26.52-89.82-62.42-105.07-22.37-11.61-188.03-97.21-214.37-110.86-51.39-26.57-58.74-97.11-13.92-133.72l186.91-152.64c15.17-12.39,25.29-29.9,28.47-49.23l39.19-238.11c9.39-57.11,74.2-85.89,122.87-54.57l73.67,47.4,117.26,75.45c19.4,14.35,43.14,23.9,67.63,19.61,13.24-2.32,87.31-13.08,101.95-15.53l136.62-20.8c57.21-8.7,104.61,44.04,89.86,99.99h0Z"/>
  <path class="st4" d="M664.81,1285.6c-4.2,1.87-9.29.78-12.34-2.95-3.65-4.47-2.99-11.06,1.48-14.72l39.13-31.96c22.33-18.23,37.2-43.94,41.86-72.39l7.04-42.78c.94-5.7,6.32-9.56,12.02-8.62,5.7.94,9.56,6.32,8.62,12.02l-7.04,42.78c-5.5,33.47-22.99,63.73-49.27,85.2l-39.13,31.96c-.74.6-1.54,1.09-2.38,1.46h0ZM558.15,1372.7c-4.2,1.87-9.29.78-12.34-2.95-3.65-4.47-2.99-11.06,1.48-14.72l70.83-57.84c4.47-3.65,11.06-2.99,14.71,1.49,3.65,4.47,2.99,11.06-1.48,14.72l-70.83,57.84c-.74.6-1.54,1.09-2.38,1.46h0Z"/>
  <path class="st1" d="M1446.69,1070.9l-61.48,233.37c-5,18.95-2.9,39.05,5.9,56.57l108.27,215.67c25.96,51.71-9.56,113.09-67.34,116.36l-240.92,13.63c-19.56,1.12-38.04,9.32-51.98,23.09l-171.66,169.61c-41.16,40.67-110.51,25.86-131.47-28.06l-26.14-67.26c440.94-193,499.1-574.15,410.36-812.16l136.62-20.8c57.21-8.7,104.61,44.05,89.86,99.99h0Z"/>
  <path class="st3" d="M2634.19,1660.32l-47.3,24.01c-3.84,1.95-6.83,5.23-8.43,9.24l-19.58,49.29c-4.7,11.82-19.96,14.96-28.95,5.95l-37.45-37.56c-3.04-3.05-7.09-4.88-11.39-5.16l-52.93-3.39c-12.69-.81-20.4-14.36-14.61-25.69l4.49-8.78c3.59-7.02,9.33-18.25,12.92-25.26,3.36-6.97,10.87-17.48,8.13-25.6-1.36-5.37-11.52-45.08-13.13-51.4-3.15-12.32,7.36-23.84,19.92-21.83l52.38,8.38c4.25.68,8.6-.22,12.24-2.52l44.82-28.37c10.75-6.8,24.95-.37,26.92,12.2l2.99,19.02,4.75,30.28c.48,5.28,2.38,10.58,6.67,13.97,2.32,1.83,14.91,12.42,17.45,14.47l23.38,19.39c9.79,8.12,8.06,23.61-3.28,29.37h0Z"/>
  <path class="st4" d="M2484.67,1563.33c-.92-.42-1.49-1.41-1.32-2.46.2-1.25,1.38-2.11,2.63-1.91l10.97,1.75c6.26,1,12.65-.32,18-3.71l8.05-5.1c1.07-.68,2.49-.36,3.17.71.68,1.07.36,2.49-.71,3.17l-8.05,5.1c-6.3,3.99-13.82,5.54-21.19,4.36l-10.97-1.75c-.21-.03-.4-.09-.59-.18h0ZM2454.78,1558.55c-.92-.42-1.49-1.41-1.32-2.46.2-1.25,1.38-2.11,2.63-1.91l19.85,3.17c1.25.2,2.11,1.38,1.91,2.63s-1.38,2.11-2.63,1.91l-19.85-3.17c-.21-.03-.4-.09-.59-.18h0Z"/>
  <path class="st1" d="M2634.19,1660.32l-47.3,24.01c-3.84,1.95-6.83,5.23-8.43,9.24l-19.58,49.29c-4.7,11.82-19.96,14.96-28.95,5.95l-37.45-37.56c-3.04-3.05-7.09-4.88-11.39-5.16l-52.93-3.39c-12.69-.81-20.4-14.36-14.61-25.69l7.22-14.12c96.13,44.18,167.2-1.97,193.31-51.33l23.38,19.39c9.79,8.12,8.06,23.61-3.28,29.37h0Z"/>
  <path class="st3" d="M2486.61,2064.36l-47.3,24.01c-3.84,1.95-6.83,5.23-8.43,9.24l-19.58,49.29c-4.7,11.82-19.96,14.96-28.95,5.95l-37.45-37.56c-3.04-3.05-7.09-4.88-11.39-5.16l-52.93-3.39c-12.69-.81-20.4-14.36-14.61-25.69l4.49-8.78c3.59-7.02,9.33-18.25,12.92-25.26,3.36-6.97,10.87-17.48,8.13-25.6-1.36-5.37-11.52-45.08-13.13-51.4-3.15-12.32,7.36-23.84,19.92-21.83l52.38,8.38c4.25.68,8.6-.22,12.24-2.52l44.82-28.37c10.75-6.81,24.95-.37,26.92,12.2l2.99,19.02,4.75,30.28c.48,5.28,2.38,10.58,6.67,13.97,2.32,1.83,14.91,12.42,17.45,14.47l23.38,19.39c9.79,8.12,8.06,23.61-3.28,29.37h0Z"/>
  <path class="st4" d="M2337.1,1967.37c-.92-.42-1.49-1.41-1.32-2.46.2-1.25,1.38-2.11,2.63-1.91l10.97,1.75c6.26,1,12.65-.32,18-3.71l8.05-5.1c1.07-.68,2.49-.36,3.17.71.68,1.07.36,2.49-.71,3.17l-8.05,5.1c-6.3,3.99-13.82,5.54-21.19,4.36l-10.97-1.75c-.21-.03-.4-.09-.59-.18h0ZM2307.21,1962.59c-.92-.42-1.49-1.41-1.32-2.46.2-1.25,1.38-2.11,2.63-1.91l19.85,3.17c1.25.2,2.11,1.38,1.91,2.63s-1.38,2.11-2.63,1.91l-19.85-3.17c-.21-.03-.4-.09-.59-.18h0Z"/>
  <path class="st1" d="M2486.61,2064.36l-47.3,24.01c-3.84,1.95-6.83,5.23-8.43,9.24l-19.58,49.29c-4.7,11.82-19.96,14.96-28.95,5.95l-37.45-37.56c-3.04-3.05-7.09-4.88-11.39-5.16l-52.93-3.39c-12.69-.81-20.4-14.36-14.61-25.69l7.22-14.12c96.13,44.18,167.2-1.97,193.31-51.33l23.38,19.39c9.79,8.12,8.06,23.61-3.28,29.37h0Z"/>
  <path class="st3" d="M1349.59,2299.35l-33.17,41.39c-2.69,3.36-4.07,7.59-3.86,11.89l2.51,52.98c.6,12.7-12.01,21.87-23.91,17.37l-49.61-18.76c-4.03-1.52-8.47-1.52-12.5,0l-49.62,18.76c-11.9,4.5-24.51-4.67-23.91-17.37l.47-9.85c.37-7.88.97-20.47,1.34-28.34.18-7.73,2.69-20.41-3.17-26.68-3.46-4.33-29.1-36.3-33.17-41.39-7.95-9.92-3.14-24.75,9.13-28.1l51.17-13.99c4.15-1.14,7.75-3.75,10.11-7.35l29.11-44.34c6.98-10.63,22.57-10.63,29.55,0l10.57,16.09,16.82,25.62c2.62,4.61,6.53,8.65,11.84,9.97,2.87.71,18.7,5.16,21.87,5.98l29.3,8.01c12.27,3.36,17.08,18.18,9.13,28.1h0Z"/>
  <path class="st4" d="M1173.37,2272.72c-1.01,0-1.94-.67-2.22-1.69-.33-1.22.39-2.49,1.61-2.82l10.71-2.93c6.11-1.67,11.39-5.51,14.87-10.81l5.23-7.97c.7-1.06,2.12-1.36,3.18-.66,1.06.7,1.36,2.12.66,3.18l-5.23,7.97c-4.09,6.23-10.31,10.75-17.5,12.72l-10.71,2.93c-.2.06-.41.08-.61.08h0ZM1144.18,2280.7c-1.01,0-1.94-.67-2.22-1.69-.33-1.22.39-2.49,1.61-2.82l19.39-5.3c1.22-.33,2.49.39,2.82,1.61.33,1.22-.39,2.49-1.61,2.82l-19.39,5.3c-.2.06-.41.08-.61.08Z"/>
  <path class="st1" d="M1349.59,2299.35l-33.17,41.39c-2.69,3.36-4.07,7.59-3.86,11.89l2.51,52.98c.6,12.7-12.01,21.87-23.91,17.37l-49.61-18.76c-4.03-1.52-8.47-1.52-12.5,0l-49.62,18.76c-11.9,4.5-24.51-4.67-23.91-17.37l.75-15.84c105.8.57,151.48-70.81,154.89-126.54l29.3,8.01c12.27,3.36,17.08,18.18,9.13,28.1h0Z"/>
  <path class="st3" d="M2511.87,1250.54l-52.76,5.48c-4.28.44-8.25,2.43-11.17,5.6l-35.94,39.01c-8.62,9.35-24,6.82-29.16-4.81l-21.51-48.48c-1.75-3.93-4.87-7.1-8.78-8.9l-48.21-22.13c-11.56-5.3-13.9-20.72-4.44-29.21l7.34-6.59c5.87-5.27,15.25-13.69,21.11-18.96,5.63-5.31,16.41-12.43,16.76-20.99.65-5.5,5.39-46.21,6.15-52.69,1.47-12.63,15.41-19.62,26.42-13.24l45.9,26.58c3.73,2.16,8.11,2.88,12.33,2.03l52.01-10.43c12.47-2.5,23.42,8.59,20.76,21.03l-4.03,18.83-6.41,29.97c-1.45,5.1-1.57,10.73,1.22,15.43,1.5,2.54,9.47,16.94,11.11,19.76l14.88,26.48c6.23,11.09-.94,24.93-13.58,26.24h0Z"/>
  <path class="st4" d="M2407.01,1106.43c-.71-.72-.88-1.85-.35-2.77.64-1.1,2.04-1.47,3.14-.84l9.61,5.57c5.48,3.17,11.92,4.24,18.14,2.99l9.34-1.87c1.25-.25,2.46.56,2.71,1.8.25,1.24-.56,2.46-1.8,2.71l-9.34,1.87c-7.31,1.47-14.89.22-21.34-3.52l-9.61-5.57c-.18-.1-.34-.23-.49-.38h0ZM2380.82,1091.26c-.71-.72-.88-1.85-.35-2.77.64-1.1,2.04-1.47,3.14-.84l17.39,10.07c1.1.64,1.47,2.04.84,3.14s-2.04,1.47-3.14.84l-17.39-10.07c-.18-.1-.34-.23-.49-.38h0Z"/>
  <path class="st1" d="M2511.87,1250.54l-52.76,5.48c-4.28.44-8.25,2.43-11.17,5.6l-35.94,39.01c-8.62,9.35-24,6.82-29.16-4.81l-21.51-48.48c-1.75-3.93-4.87-7.1-8.78-8.9l-48.21-22.13c-11.56-5.3-13.9-20.72-4.44-29.21l11.8-10.6c73.92,75.69,156.81,58.05,198.87,21.32l14.89,26.48c6.23,11.09-.94,24.93-13.58,26.24h0Z"/>
  <path class="st3" d="M1725.19,683.32l-52.76,5.48c-4.28.44-8.26,2.43-11.17,5.6l-35.94,39.01c-8.62,9.35-24,6.82-29.16-4.81l-21.51-48.48c-1.75-3.93-4.87-7.1-8.78-8.9l-48.21-22.13c-11.56-5.3-13.9-20.72-4.44-29.21l7.34-6.59c5.87-5.27,15.25-13.69,21.11-18.96,5.63-5.31,16.41-12.43,16.76-20.99.65-5.5,5.39-46.21,6.15-52.69,1.47-12.63,15.41-19.62,26.42-13.24l45.9,26.58c3.72,2.16,8.11,2.88,12.33,2.03l52.01-10.43c12.47-2.5,23.42,8.59,20.76,21.03l-4.03,18.83-6.41,29.97c-1.44,5.1-1.57,10.73,1.22,15.43,1.51,2.54,9.47,16.94,11.11,19.76l14.88,26.48c6.23,11.09-.94,24.93-13.58,26.24h0Z"/>
  <path class="st4" d="M1620.33,539.21c-.71-.72-.88-1.85-.35-2.77.64-1.1,2.04-1.47,3.14-.84l9.61,5.56c5.48,3.17,11.92,4.24,18.14,2.99l9.34-1.87c1.24-.25,2.46.56,2.71,1.8.25,1.24-.56,2.46-1.8,2.71l-9.34,1.87c-7.31,1.47-14.89.22-21.34-3.52l-9.61-5.56c-.18-.1-.34-.23-.48-.38h0ZM1594.14,524.04c-.71-.72-.88-1.85-.35-2.77.64-1.1,2.04-1.47,3.14-.84l17.39,10.07c1.1.64,1.47,2.04.84,3.14s-2.04,1.47-3.14.84l-17.39-10.07c-.18-.1-.34-.23-.48-.38Z"/>
  <path class="st1" d="M1725.19,683.32l-52.76,5.48c-4.28.44-8.26,2.43-11.17,5.6l-35.94,39.01c-8.62,9.35-24,6.82-29.16-4.81l-21.51-48.48c-1.75-3.93-4.87-7.1-8.78-8.9l-48.21-22.13c-11.56-5.3-13.9-20.72-4.44-29.21l11.8-10.6c73.92,75.69,156.81,58.05,198.87,21.32l14.89,26.48c6.23,11.09-.94,24.93-13.58,26.24Z"/>
  <path class="st3" d="M2299.46,1520.03l-27.91,14.17c-2.27,1.15-4.03,3.09-4.97,5.45l-11.56,29.09c-2.77,6.97-11.78,8.83-17.08,3.51l-22.1-22.17c-1.79-1.8-4.18-2.88-6.72-3.05l-31.24-2c-7.49-.48-12.04-8.48-8.62-15.16l2.65-5.18c2.12-4.15,5.51-10.77,7.62-14.91,1.98-4.11,6.42-10.32,4.8-15.11-.8-3.17-6.8-26.6-7.75-30.33-1.86-7.27,4.34-14.07,11.76-12.88l30.91,4.94c2.51.4,5.08-.13,7.23-1.49l26.45-16.74c6.34-4.02,14.72-.22,15.89,7.2l1.76,11.23,2.8,17.87c.28,3.12,1.41,6.24,3.93,8.24,1.37,1.08,8.8,7.33,10.3,8.54l13.8,11.44c5.78,4.79,4.75,13.93-1.94,17.33h0Z"/>
  <path class="st4" d="M2211.22,1462.8c-.54-.25-.88-.83-.78-1.45.12-.74.81-1.24,1.55-1.12l6.47,1.03c3.69.59,7.47-.19,10.62-2.19l4.75-3.01c.63-.4,1.47-.21,1.87.42.4.63.21,1.47-.42,1.87l-4.75,3.01c-3.72,2.35-8.16,3.27-12.5,2.57l-6.47-1.03c-.12-.02-.24-.05-.35-.1h0ZM2193.58,1459.98c-.54-.25-.88-.83-.78-1.45.12-.74.81-1.24,1.55-1.12l11.71,1.87c.74.12,1.24.81,1.12,1.55-.12.74-.81,1.24-1.55,1.12l-11.71-1.87c-.12-.02-.24-.05-.35-.1h0Z"/>
  <path class="st1" d="M2299.46,1520.03l-27.91,14.17c-2.27,1.15-4.03,3.09-4.97,5.45l-11.56,29.09c-2.77,6.97-11.78,8.83-17.08,3.51l-22.1-22.17c-1.79-1.8-4.18-2.88-6.72-3.05l-31.24-2c-7.49-.48-12.04-8.48-8.62-15.16l4.26-8.33c56.73,26.07,98.68-1.16,114.08-30.29l13.8,11.44c5.78,4.79,4.75,13.93-1.94,17.33h0Z"/>
  <path class="st3" d="M2162.67,1937l-27.91,14.17c-2.27,1.15-4.03,3.09-4.97,5.45l-11.56,29.09c-2.77,6.97-11.78,8.83-17.08,3.51l-22.1-22.17c-1.79-1.8-4.18-2.88-6.72-3.05l-31.24-2c-7.49-.48-12.04-8.48-8.62-15.16l2.65-5.18c2.12-4.15,5.51-10.77,7.62-14.91,1.98-4.11,6.42-10.32,4.8-15.11-.81-3.17-6.8-26.6-7.75-30.33-1.86-7.27,4.34-14.07,11.76-12.88l30.91,4.94c2.51.4,5.08-.13,7.23-1.49l26.45-16.74c6.34-4.02,14.72-.22,15.89,7.2l1.76,11.23,2.8,17.87c.28,3.12,1.41,6.24,3.93,8.24,1.37,1.08,8.8,7.33,10.3,8.54l13.8,11.44c5.78,4.79,4.75,13.93-1.94,17.33h0Z"/>
  <path class="st4" d="M2074.43,1879.77c-.54-.25-.88-.83-.78-1.45.12-.74.81-1.24,1.55-1.12l6.47,1.04c3.69.59,7.47-.19,10.62-2.19l4.75-3.01c.63-.4,1.47-.21,1.87.42.4.63.21,1.47-.42,1.87l-4.75,3.01c-3.72,2.35-8.16,3.27-12.5,2.57l-6.47-1.04c-.12-.02-.24-.06-.35-.1h0ZM2056.8,1876.94c-.54-.25-.88-.83-.78-1.45.12-.74.81-1.24,1.55-1.12l11.71,1.87c.74.12,1.24.81,1.12,1.55-.12.74-.81,1.24-1.55,1.12l-11.71-1.87c-.12-.02-.24-.06-.35-.1h0Z"/>
  <path class="st1" d="M2162.67,1937l-27.91,14.17c-2.27,1.15-4.03,3.09-4.97,5.45l-11.56,29.09c-2.77,6.97-11.78,8.83-17.08,3.51l-22.1-22.17c-1.79-1.8-4.18-2.88-6.72-3.05l-31.24-2c-7.49-.48-12.04-8.48-8.62-15.16l4.26-8.33c56.73,26.07,98.67-1.17,114.08-30.29l13.8,11.44c5.78,4.79,4.75,13.93-1.94,17.33h0Z"/>
  <path class="st3" d="M698.94,1779.19l-9.72,29.76c-.79,2.42-.67,5.04.34,7.37l12.4,28.74c2.97,6.89-2.09,14.57-9.6,14.56l-31.3-.05c-2.54,0-5,.92-6.91,2.6l-23.51,20.67c-5.64,4.96-14.51,2.52-16.81-4.62l-1.79-5.54c-1.43-4.43-3.72-11.51-5.15-15.93-1.51-4.31-2.76-11.83-7.29-14.08-2.81-1.67-23.62-14-26.93-15.97-6.46-3.83-6.88-13.02-.8-17.42l25.35-18.36c2.06-1.49,3.5-3.68,4.06-6.16l6.86-30.54c1.65-7.32,10.26-10.56,16.32-6.14l9.18,6.69,14.62,10.65c2.41,2,5.41,3.42,8.61,3.05,1.73-.2,11.4-1.04,13.32-1.24l17.85-1.67c7.47-.7,13.22,6.49,10.89,13.62h0Z"/>
  <path class="st4" d="M596.08,1801.12c-.56.21-1.21.03-1.58-.47-.44-.61-.3-1.45.3-1.89l5.31-3.84c3.03-2.19,5.15-5.41,5.97-9.06l1.23-5.49c.16-.73.89-1.19,1.62-1.03.73.16,1.19.89,1.03,1.62l-1.23,5.49c-.96,4.29-3.46,8.08-7.02,10.66l-5.31,3.84c-.1.07-.21.13-.32.17ZM581.61,1811.59c-.56.21-1.21.03-1.58-.47-.44-.61-.3-1.45.3-1.89l9.61-6.96c.61-.44,1.46-.3,1.89.3.44.61.3,1.45-.3,1.89l-9.61,6.96c-.1.07-.21.13-.32.17Z"/>
  <path class="st1" d="M698.94,1779.19l-9.72,29.76c-.79,2.42-.67,5.04.34,7.37l12.4,28.74c2.97,6.89-2.09,14.57-9.6,14.56l-31.3-.05c-2.54,0-5,.92-6.91,2.6l-23.51,20.67c-5.64,4.96-14.51,2.52-16.81-4.62l-2.88-8.91c58.55-21.68,68.95-70.6,59.25-102.09l17.85-1.67c7.47-.7,13.22,6.49,10.89,13.62h0Z"/>
  <path class="st3" d="M1925.26,2388.74l-9.72,29.76c-.79,2.42-.67,5.04.34,7.37l12.4,28.74c2.97,6.89-2.09,14.57-9.6,14.56l-31.3-.05c-2.54,0-5,.92-6.91,2.6l-23.51,20.67c-5.64,4.96-14.51,2.52-16.81-4.62l-1.79-5.54c-1.43-4.43-3.72-11.51-5.15-15.93-1.51-4.31-2.76-11.83-7.29-14.08-2.81-1.67-23.62-14-26.93-15.97-6.46-3.83-6.88-13.02-.8-17.42l25.35-18.36c2.06-1.49,3.5-3.68,4.06-6.16l6.86-30.54c1.65-7.32,10.26-10.56,16.32-6.14l9.18,6.69,14.62,10.65c2.41,2,5.41,3.42,8.61,3.05,1.73-.2,11.4-1.04,13.32-1.24l17.85-1.67c7.47-.7,13.22,6.49,10.89,13.62h0Z"/>
  <path class="st4" d="M1822.39,2410.66c-.56.21-1.21.03-1.58-.47-.44-.61-.3-1.45.3-1.89l5.31-3.84c3.03-2.19,5.15-5.41,5.97-9.06l1.23-5.49c.17-.73.89-1.19,1.62-1.03s1.19.89,1.03,1.62l-1.23,5.49c-.96,4.29-3.46,8.08-7.02,10.66l-5.31,3.84c-.1.07-.21.13-.32.17h0ZM1807.93,2421.14c-.56.21-1.21.03-1.58-.47-.44-.61-.3-1.45.3-1.89l9.61-6.96c.61-.44,1.45-.3,1.89.3.44.61.3,1.45-.3,1.89l-9.61,6.96c-.1.07-.21.13-.32.17Z"/>
  <path class="st1" d="M1925.26,2388.74l-9.72,29.76c-.79,2.42-.67,5.04.34,7.37l12.4,28.74c2.97,6.89-2.09,14.57-9.6,14.56l-31.3-.05c-2.54,0-5,.92-6.91,2.6l-23.51,20.67c-5.64,4.96-14.51,2.52-16.81-4.62l-2.88-8.91c58.55-21.68,68.95-70.6,59.25-102.09l17.85-1.67c7.47-.7,13.22,6.49,10.89,13.62h0Z"/>
  <path class="st3" d="M2163.59,2241.48l-9.72,29.76c-.79,2.42-.67,5.04.34,7.37l12.4,28.74c2.97,6.89-2.09,14.57-9.6,14.56l-31.3-.05c-2.54,0-5,.92-6.91,2.6l-23.5,20.67c-5.64,4.96-14.51,2.52-16.81-4.62l-1.79-5.54c-1.43-4.43-3.72-11.51-5.15-15.93-1.51-4.31-2.76-11.83-7.29-14.08-2.81-1.67-23.62-14-26.93-15.97-6.46-3.83-6.88-13.02-.8-17.42l25.35-18.36c2.06-1.49,3.5-3.68,4.06-6.16l6.86-30.54c1.65-7.32,10.25-10.56,16.32-6.14l9.18,6.69,14.62,10.65c2.41,2,5.41,3.42,8.61,3.05,1.73-.2,11.4-1.04,13.32-1.24l17.85-1.67c7.47-.7,13.22,6.49,10.89,13.62h0Z"/>
  <path class="st4" d="M2060.73,2263.41c-.56.21-1.21.03-1.58-.47-.44-.61-.3-1.45.3-1.89l5.31-3.84c3.03-2.19,5.15-5.41,5.97-9.06l1.23-5.49c.17-.73.89-1.19,1.62-1.03.73.16,1.19.89,1.03,1.62l-1.23,5.49c-.96,4.29-3.46,8.08-7.02,10.66l-5.31,3.84c-.1.07-.21.13-.32.17ZM2046.26,2273.88c-.56.21-1.21.03-1.58-.47-.44-.61-.3-1.45.3-1.89l9.61-6.96c.61-.44,1.46-.3,1.89.3.44.61.3,1.45-.3,1.89l-9.61,6.96c-.1.07-.21.13-.32.17Z"/>
  <path class="st1" d="M2163.59,2241.48l-9.72,29.76c-.79,2.42-.67,5.04.34,7.37l12.4,28.74c2.97,6.89-2.09,14.57-9.6,14.56l-31.3-.05c-2.54,0-5,.92-6.91,2.6l-23.5,20.67c-5.64,4.96-14.51,2.52-16.81-4.62l-2.88-8.91c58.55-21.68,68.95-70.6,59.25-102.09l17.85-1.67c7.47-.7,13.22,6.49,10.89,13.62h0Z"/>
  <path class="st3" d="M1031.36,2073.6l-9.72,29.76c-.79,2.42-.67,5.04.34,7.37l12.4,28.74c2.97,6.89-2.09,14.57-9.6,14.56l-31.3-.05c-2.54,0-5,.92-6.91,2.6l-23.51,20.67c-5.64,4.96-14.51,2.52-16.81-4.62l-1.79-5.54c-1.43-4.43-3.72-11.51-5.15-15.93-1.51-4.31-2.76-11.83-7.29-14.08-2.81-1.67-23.62-14-26.93-15.97-6.46-3.83-6.88-13.02-.8-17.42l25.35-18.36c2.06-1.49,3.5-3.68,4.06-6.16l6.86-30.54c1.65-7.32,10.26-10.56,16.32-6.14l9.18,6.69,14.62,10.65c2.41,2,5.41,3.42,8.61,3.05,1.73-.2,11.4-1.04,13.32-1.24l17.85-1.67c7.47-.7,13.22,6.49,10.88,13.62h0Z"/>
  <path class="st4" d="M928.49,2095.52c-.56.21-1.21.03-1.58-.47-.44-.61-.3-1.45.3-1.89l5.31-3.84c3.03-2.19,5.15-5.41,5.97-9.06l1.23-5.49c.16-.73.89-1.19,1.62-1.03.73.16,1.19.89,1.03,1.62l-1.23,5.49c-.96,4.29-3.46,8.08-7.02,10.66l-5.31,3.84c-.1.07-.21.13-.32.17ZM914.03,2106c-.56.21-1.21.03-1.58-.47-.44-.61-.3-1.45.3-1.89l9.61-6.96c.61-.44,1.46-.3,1.89.3.44.61.3,1.45-.3,1.89l-9.61,6.96c-.1.07-.21.13-.32.17Z"/>
  <path class="st1" d="M1031.36,2073.6l-9.72,29.76c-.79,2.42-.67,5.04.34,7.37l12.4,28.74c2.97,6.89-2.09,14.57-9.6,14.56l-31.3-.05c-2.54,0-5,.92-6.91,2.6l-23.51,20.67c-5.64,4.96-14.51,2.52-16.81-4.62l-2.88-8.91c58.55-21.68,68.95-70.6,59.25-102.09l17.85-1.67c7.47-.7,13.22,6.49,10.88,13.62h0Z"/>
  <path class="st3" d="M2259.43,1066.61l-52,54.07c-4.22,4.39-6.7,10.16-6.96,16.25l-3.23,74.94c-.77,17.97-19.7,29.26-35.89,21.41l-67.48-32.75c-5.48-2.66-11.74-3.22-17.61-1.59l-72.27,20.09c-17.33,4.82-33.92-9.7-31.45-27.51l1.91-13.82c1.53-11.05,3.98-28.71,5.5-39.75,1.24-10.87,6.39-28.4-1.05-37.97-4.32-6.54-36.35-54.84-41.44-62.53-9.94-14.99-1.26-35.26,16.45-38.42l73.85-13.17c5.99-1.07,11.39-4.29,15.18-9.06l46.66-58.73c11.19-14.09,33.14-12.1,41.62,3.77l12.83,24.02,20.43,38.23c3.1,6.83,8.1,13.02,15.4,15.56,3.95,1.37,25.69,9.65,30.03,11.21l40.24,15.02c16.85,6.29,21.74,27.79,9.27,40.75h0Z"/>
  <path class="st4" d="M2014.64,1006.62c-1.42-.13-2.64-1.19-2.91-2.67-.32-1.77.86-3.46,2.63-3.77l15.46-2.76c8.82-1.57,16.75-6.3,22.32-13.32l8.38-10.55c1.12-1.41,3.16-1.64,4.57-.52,1.41,1.12,1.64,3.16.52,4.57l-8.38,10.55c-6.56,8.26-15.89,13.83-26.27,15.68l-15.46,2.76c-.29.05-.58.06-.87.04h0ZM1972.5,1014.14c-1.42-.13-2.64-1.19-2.91-2.67-.32-1.77.86-3.46,2.63-3.77l27.98-4.99c1.77-.32,3.46.86,3.77,2.63.32,1.77-.86,3.46-2.63,3.77l-27.98,4.99c-.29.05-.58.06-.87.04h0Z"/>
  <path class="st1" d="M2259.43,1066.61l-52,54.07c-4.22,4.39-6.7,10.16-6.96,16.25l-3.23,74.94c-.77,17.97-19.7,29.26-35.89,21.41l-67.48-32.75c-5.48-2.66-11.74-3.22-17.61-1.59l-72.27,20.09c-17.33,4.82-33.92-9.7-31.45-27.51l3.08-22.22c148.93,14.3,222.38-80.4,234.29-158.45l40.24,15.02c16.85,6.29,21.74,27.79,9.27,40.75h0Z"/>
  <path class="st7" d="M1343.57,1245.68h462.26c3.94,0,5.78-4.89,2.81-7.48l-730.66-638.03h-481.31l733.45,640.46c3.73,3.25,8.51,5.05,13.45,5.05h0Z"/>
  <path class="st2" d="M1861.51,1426.97h-45.48v-168.63c0-15.67-12.75-28.41-28.41-28.41h-422.13c-15.67,0-28.41,12.75-28.41,28.41v168.63h-45.48v-168.63c0-40.75,33.15-73.9,73.9-73.9h422.13c40.75,0,73.9,33.15,73.9,73.9v168.63h0Z"/>
  <circle class="st0" cx="1576.56" cy="1815.77" r="514.37"/>
  <circle class="st6" cx="1576.56" cy="1815.77" r="414.11"/>
  <path class="st2" d="M1845.84,1501.17c62.03,72.4,99.51,166.47,99.51,269.29,0,228.71-185.4,414.11-414.11,414.11-102.82,0-196.88-37.48-269.29-99.51,75.95,88.65,188.71,144.82,314.6,144.82,228.71,0,414.11-185.4,414.11-414.11,0-125.89-56.18-238.65-144.82-314.6h0Z"/>
  <path class="st2" d="M1636.03,1656.72l33.8,63.07c5.55,10.35,15.52,17.59,27.07,19.67l70.42,12.65c30.19,5.42,42.16,42.29,20.93,64.42l-49.54,51.63c-8.13,8.47-11.94,20.19-10.34,31.82l9.73,70.89c4.17,30.39-27.19,53.17-54.8,39.81l-64.41-31.16c-10.57-5.11-22.9-5.11-33.46,0l-64.41,31.16c-27.61,13.35-58.97-9.43-54.8-39.81l9.73-70.89c1.6-11.63-2.21-23.35-10.34-31.82l-49.54-51.63c-21.23-22.13-9.26-58.99,20.93-64.42l70.42-12.65c11.56-2.08,21.53-9.32,27.07-19.67l33.8-63.07c14.49-27.03,53.25-27.03,67.73,0h0Z"/>
  <path class="st4" d="M1610.42,1631.11l33.8,63.07c5.55,10.35,15.52,17.59,27.07,19.67l70.42,12.65c30.19,5.42,42.16,42.29,20.93,64.42l-49.54,51.63c-8.13,8.47-11.94,20.19-10.34,31.82l9.73,70.89c4.17,30.39-27.19,53.17-54.8,39.81l-64.41-31.16c-10.57-5.11-22.9-5.11-33.46,0l-64.41,31.16c-27.61,13.35-58.97-9.43-54.8-39.81l9.73-70.89c1.6-11.63-2.21-23.35-10.34-31.82l-49.54-51.63c-21.23-22.13-9.26-58.99,20.93-64.42l70.42-12.65c11.56-2.08,21.53-9.32,27.07-19.67l33.8-63.07c14.49-27.03,53.25-27.03,67.73,0h0Z"/>
  <path class="st5" d="M1809.54,1245.68h-462.26c-3.94,0-5.78-4.89-2.81-7.48l730.66-638.03h481.31l-733.45,640.46c-3.73,3.25-8.51,5.05-13.45,5.05h0Z"/>
  <polygon class="st8" points="1665.77 1245.68 1487.34 1245.68 2226.57 600.17 2404.99 600.17 1665.77 1245.68"/>
</svg>