<svg xmlns="http://www.w3.org/2000/svg" xml:space="preserve" id="Industry" x="0" y="0" enable-background="new 0 0 2500 2500" version="1.1" viewBox="0 0 2500 2500">
  <path fill="#1e2030" d="M2246.16,2038.84H362.26c-2.12,0-3.84-1.72-3.84-3.84c0-2.12,1.72-3.84,3.84-3.84h1883.9
								c2.12,0,3.84,1.72,3.84,3.84C2250,2037.12,2248.28,2038.84,2246.16,2038.84z" class="color030047 svgShape"></path>
  <path fill="#87ddfd" d="M1313.86,1285.09l-3.71-146.51c-0.11-4.32-3.7-7.73-8.02-7.62l-70.43,1.79
									c-3.66,0.09-6.85-2.38-7.75-5.92c-11.06-43.55-29.45-84.11-53.61-120.46c-2.02-3.04-1.71-7.04,0.8-9.69l48.58-51.17
									c2.97-3.13,2.84-8.08-0.28-11.05l-106.24-100.99c-3.13-2.98-8.08-2.85-11.06,0.28l-48.56,51.15
									c-2.52,2.65-6.51,3.17-9.65,1.29c-37.52-22.35-78.97-38.59-123.02-47.43c-3.58-0.72-6.21-3.77-6.3-7.42l-1.79-70.45
									c-0.11-4.32-3.7-7.73-8.02-7.62l-146.6,3.72c-4.32,0.11-7.73,3.7-7.62,8.02l1.79,70.45c0.09,3.65-2.37,6.83-5.91,7.73
									c-43.55,11.06-84.11,29.38-120.46,53.6c-3.04,2.03-7.06,1.72-9.71-0.8l-51.09-48.63c-3.13-2.98-8.08-2.86-11.06,0.28
									L453.17,953.87c-2.97,3.13-2.85,8.08,0.28,11.05l51.11,48.65c2.64,2.52,3.16,6.5,1.29,9.64
									c-22.29,37.53-38.6,78.97-47.44,123.03c-0.72,3.58-3.77,6.2-7.42,6.3l-70.45,1.79c-4.32,0.11-7.73,3.7-7.62,8.02
									l3.71,146.51c0.11,4.32,3.7,7.73,8.02,7.62l70.43-1.79c3.66-0.09,6.85,2.38,7.75,5.93c11.06,43.61,29.45,84.18,53.6,120.45
									c2.02,3.04,1.72,7.05-0.8,9.7l-48.57,51.17c-2.97,3.13-2.84,8.08,0.28,11.05l106.24,100.99c3.13,2.98,8.08,2.85,11.06-0.28
									l48.56-51.15c2.52-2.65,6.51-3.17,9.65-1.29c37.52,22.34,78.97,38.59,123.02,47.43c3.58,0.72,6.21,3.77,6.3,7.42l1.79,70.52
									c0.11,4.32,3.7,7.73,8.02,7.62l146.6-3.72c4.32-0.11,7.73-3.7,7.62-8.02l-1.79-70.52c-0.09-3.65,2.37-6.83,5.91-7.73
									c43.55-11.06,84.11-29.38,120.46-53.6c3.04-2.03,7.06-1.72,9.71,0.8l51.09,48.63c3.13,2.98,8.08,2.86,11.06-0.28
									l100.99-106.24c2.97-3.13,2.85-8.08-0.28-11.05l-51.1-48.64c-2.65-2.52-3.16-6.5-1.29-9.64
									c22.28-37.45,38.59-78.9,47.43-123.01c0.72-3.59,3.78-6.22,7.44-6.31l70.43-1.79
									C1310.56,1293,1313.97,1289.41,1313.86,1285.09z M861.46,1456.42c-138.22,10.57-254.83-100.21-251.37-238.88
									c2.96-118.72,96.87-217.5,215.28-226.47c138.3-10.47,254.84,100.37,251.3,238.94
									C1073.64,1348.66,979.8,1447.37,861.46,1456.42z" class="colore6f3fc svgShape"></path>
  <circle cx="843.39" cy="1223.75" r="143.92" fill="#87ddfd" class="colore6f3fc svgShape"></circle>
  <polygon fill="#205fac" points="1938.03 1588.33 1645.06 1588.33 1709.53 1077.56 1873.56 1077.56" class="color605efd svgShape"></polygon>
  <path fill="#1e2030" d="M1895.25,1103.8h-207.41c-3.54,0-6.42-2.87-6.42-6.42v-52.88c0-3.54,2.87-6.42,6.42-6.42h207.41
							c3.54,0,6.42,2.87,6.42,6.42v52.88C1901.67,1100.93,1898.79,1103.8,1895.25,1103.8z" class="color030047 svgShape"></path>
  <path fill="#87ddfd" d="M1918.92,945.12c-13.3,16.9-33.11,25.59-53.07,25.35c2.67,12.53-0.05,26.07-8.59,36.95
							c-15.25,19.42-43.31,22.77-62.69,7.53c-0.05-0.05-0.05-0.05-0.1-0.1c-0.53,0.87-1.17,1.7-1.8,2.52
							c-15.25,19.37-43.31,22.72-62.73,7.53c-19.37-15.25-22.72-43.36-7.48-62.74c4.76-6.07,10.78-10.54,17.38-13.35
							c-12.04-20.2-11.17-46.57,4.27-66.18c16.75-21.32,45.3-27.87,69.1-17.67c0.49-0.58,0.92-1.21,1.41-1.8
							c22.63-28.84,64.34-33.8,93.13-11.17C1936.55,874.61,1941.55,916.32,1918.92,945.12z" class="colore6f3fc svgShape"></path>
  <polygon fill="#205fac" points="1614.41 1588.33 1321.44 1588.33 1385.91 1077.56 1549.94 1077.56" class="color605efd svgShape"></polygon>
  <path fill="#1e2030" d="M2228.82,2035.07v-321.03c0-24.92-10.92-48.17-29.01-61.74L1905.6,1376.4h-813.51v658.67H2228.82z" class="color030047 svgShape"></path>
  <path fill="#205fac" d="M1884.16,1714.05v321.03h-792.91V1376.4l396.45,297.68V1376.4l367.44,275.91
									C1873.24,1665.88,1884.16,1689.13,1884.16,1714.05z" class="color605efd svgShape"></path>
  <rect width="222.48" height="350.87" x="1169.83" y="1684.2" fill="#612879" class="colorffffff svgShape"></rect>
  <rect width="17.56" height="350.87" x="1374.72" y="1684.2" fill="#87ddfd" class="colore6f3fc svgShape"></rect>
  <rect width="163.91" height="187.72" x="1450.49" y="1740" fill="#612879" class="colorffffff svgShape"></rect>
  <rect width="12.94" height="187.72" x="1601.45" y="1740" fill="#87ddfd" class="colore6f3fc svgShape"></rect>
  <rect width="163.91" height="187.72" x="1640.59" y="1740" fill="#612879" class="colorffffff svgShape"></rect>
  <rect width="12.94" height="187.72" x="1791.55" y="1740" fill="#87ddfd" class="colore6f3fc svgShape"></rect>
  <circle cx="1208.29" cy="1875.74" r="16.01" fill="#1e2030" class="color030047 svgShape"></circle>
  <g fill="#000000" class="color000000 svgShape">
    <path fill="#954c9d" d="M1995.93,1840.88h-62.07c-2.63,0-4.77-2.13-4.77-4.77v-62.07c0-2.63,2.13-4.77,4.77-4.77h62.07
								c2.63,0,4.77,2.13,4.77,4.77v62.07C2000.7,1838.75,1998.56,1840.88,1995.93,1840.88z" class="colorffcc3d svgShape"></path>
  </g>
  <g fill="#000000" class="color000000 svgShape">
    <path fill="#954c9d" d="M2089.99,1837.37h-62.07c-2.63,0-4.77-2.13-4.77-4.77v-62.07c0-2.63,2.13-4.77,4.77-4.77h62.07
								c2.63,0,4.77,2.13,4.77,4.77v62.07C2094.76,1835.24,2092.63,1837.37,2089.99,1837.37z" class="colorffcc3d svgShape"></path>
  </g>
  <g fill="#000000" class="color000000 svgShape">
    <path fill="#954c9d" d="M2184.05,1833.86h-62.07c-2.63,0-4.77-2.13-4.77-4.77v-62.07c0-2.63,2.13-4.77,4.77-4.77h62.07
								c2.63,0,4.77,2.13,4.77,4.77v62.07C2188.82,1831.73,2186.69,1833.86,2184.05,1833.86z" class="colorffcc3d svgShape"></path>
  </g>
  <g fill="#000000" class="color000000 svgShape">
    <path fill="#954c9d" d="M1995.93,1948.33h-62.07c-2.63,0-4.77-2.13-4.77-4.77v-62.07c0-2.63,2.13-4.77,4.77-4.77h62.07
								c2.63,0,4.77,2.13,4.77,4.77v62.07C2000.7,1946.19,1998.56,1948.33,1995.93,1948.33z" class="colorffcc3d svgShape"></path>
  </g>
  <g fill="#000000" class="color000000 svgShape">
    <path fill="#954c9d" d="M2089.99,1944.82h-62.07c-2.63,0-4.77-2.13-4.77-4.77v-62.07c0-2.63,2.13-4.77,4.77-4.77h62.07
								c2.63,0,4.77,2.13,4.77,4.77v62.07C2094.76,1942.68,2092.63,1944.82,2089.99,1944.82z" class="colorffcc3d svgShape"></path>
  </g>
  <g fill="#000000" class="color000000 svgShape">
    <path fill="#954c9d" d="M2184.05,1941.31h-62.07c-2.63,0-4.77-2.13-4.77-4.77v-62.07c0-2.63,2.13-4.77,4.77-4.77h62.07
								c2.63,0,4.77,2.13,4.77,4.77v62.07C2188.82,1939.17,2186.69,1941.31,2184.05,1941.31z" class="colorffcc3d svgShape"></path>
  </g>
  <g fill="#000000" class="color000000 svgShape">
    <path fill="#1e2030" d="M1571.63,1103.8h-207.41c-3.54,0-6.42-2.87-6.42-6.42v-52.88c0-3.54,2.87-6.42,6.42-6.42h207.41
							c3.54,0,6.42,2.87,6.42,6.42v52.88C1578.04,1100.93,1575.17,1103.8,1571.63,1103.8z" class="color030047 svgShape"></path>
  </g>
  <g fill="#000000" class="color000000 svgShape">
    <path fill="#87ddfd" d="M1595.3,945.12c-13.3,16.9-33.11,25.59-53.07,25.35c2.67,12.53-0.05,26.07-8.59,36.95
							c-15.25,19.42-43.31,22.77-62.69,7.53c-0.05-0.05-0.05-0.05-0.1-0.1c-0.53,0.87-1.17,1.7-1.8,2.52
							c-15.25,19.37-43.31,22.72-62.73,7.53c-19.37-15.25-22.72-43.36-7.48-62.74c4.76-6.07,10.78-10.54,17.38-13.35
							c-12.04-20.2-11.17-46.57,4.27-66.18c16.75-21.32,45.3-27.87,69.1-17.67c0.49-0.58,0.92-1.21,1.41-1.8
							c22.63-28.84,64.34-33.8,93.13-11.17C1612.92,874.61,1617.93,916.32,1595.3,945.12z" class="colore6f3fc svgShape"></path>
  </g>
  <g fill="#000000" class="color000000 svgShape">
    <polygon fill="#1e2030" points="873.17 2036.45 860.89 1819.37 451.63 1827.24 443.04 2036.45" class="color030047 svgShape"></polygon>
    <path fill="#612879" d="M1209.53,1367.87c-3.06,5.48-7.47,11.03-13.63,16.55c-19.61,17.51-54.52,59.22-62.21,68.51
											l-117.51-83.99l1.78,1.21l146.37-196.9c6.51-7.58,16.58-10.07,25.48-7.37c3.74,1.14,7.19,3.2,10.14,6.16
											c7.62,7.76,9.15,19.64,3.7,29.04l-40.14,69.5c0,0,20.96,4.27,22.53,24.48c0,0,0.14,0,0.46,0.03
											c2.92,0.18,18.01,2.46,19.89,25.84C1211.09,1322.42,1223.08,1343.95,1209.53,1367.87z" class="colorffffff svgShape"></path>
    <path fill="#1e2030" d="M1133.69,1456.76c-0.78,0-1.56-0.23-2.23-0.72l-117.51-83.99c-1.71-1.23-2.12-3.6-0.92-5.32
											c0.89-1.28,2.42-1.86,3.85-1.58l144.37-194.21c7.41-8.65,18.99-12,29.68-8.75c4.41,1.34,8.36,3.74,11.74,7.12
											c8.83,9,10.59,22.83,4.31,33.68l-37.73,65.32c7.85,3.09,17.9,10.28,20.22,23.33c5.62,1.23,18.17,6.29,20.56,27.01
											c2.78,2.25,5.15,6.44,6.61,10.17c2.39,6.09,6.8,22.28-3.77,40.92c-3.42,6.13-8.27,12.02-14.41,17.52
											c-20.3,18.13-57.62,63.03-61.81,68.1C1135.89,1456.28,1134.79,1456.76,1133.69,1456.76z M1023.35,1369.33l109.67,78.39
											c9.45-11.33,41.72-49.56,60.32-66.17c5.51-4.94,9.83-10.17,12.83-15.55c0.01-0.01,0.01-0.02,0.01-0.03
											c6.51-11.48,6.34-21.72,5.05-28.29c-1.52-7.74-5-12.49-6.19-13.17c-1.49-0.48-2.35-1.72-2.48-3.28
											c-1.65-20.4-13.86-22.16-16.3-22.31c-1.92-0.11-3.92-1.66-4.06-3.58c-1.32-17-18.74-20.86-19.48-21.02
											c-1.21-0.26-2.22-1.07-2.72-2.2c-0.5-1.13-0.44-2.42,0.18-3.49l40.14-69.5c4.56-7.87,3.28-17.92-3.12-24.43
											c-2.46-2.46-5.33-4.2-8.52-5.17c-7.77-2.37-16.19,0.07-21.45,6.19L1023.35,1369.33z" class="color030047 svgShape"></path>
    <path fill="#612879" d="M1147.34,1363.94c0,0-13.57,44.09,28.28,26.1c0,0,12.8-4.49,33.93-22.17
											c13.54-23.91,1.56-45.48-3.14-46.92L1147.34,1363.94z" class="colorffffff svgShape"></path>
    <path fill="#1e2030" d="M1158.77,1398.19c-4.73,0-8.6-1.32-11.54-3.96c-10.07-9.05-4.26-29.15-3.56-31.41
											c0.24-0.8,0.74-1.49,1.41-1.98l59.07-42.99c0.98-0.72,2.23-0.93,3.39-0.57c4.78,1.46,8.12,9.04,9.03,11.33
											c2.44,6.12,6.96,22.37-3.68,41.15c-0.23,0.41-0.53,0.76-0.88,1.06c-21.42,17.92-34.57,22.66-35.12,22.85
											C1169.9,1396.68,1163.84,1398.19,1158.77,1398.19z M1150.67,1366.26c-1.42,5.43-3.35,17.74,1.69,22.25
											c3.62,3.25,11.14,2.56,21.74-2c0.35-0.13,12.57-4.62,32.44-21.13c6.15-11.23,5.97-21.22,4.71-27.67
											c-1.14-5.84-3.39-9.97-4.94-11.94L1150.67,1366.26z" class="color030047 svgShape"></path>
    <path fill="#612879" d="M1122.29,1338.25c0.2-0.02,0.39,0,0.55-0.03c19.08-1.08,63.18-43.17,63.18-43.17
											c-1.55-20.24-22.5-24.48-22.5-24.48l-51.21,38.46C1099.76,1318.43,1106.58,1338.77,1122.29,1338.25z" class="colorffffff svgShape"></path>
    <path fill="#1e2030" d="M1121.72,1342.1c-8.48,0-15.72-5.16-18.58-13.29c-2.99-8.52-0.3-17.49,6.87-22.85l51.21-38.46
											c0.88-0.66,2-0.9,3.07-0.7c8.23,1.67,24.17,9.66,25.57,27.96c0.09,1.15-0.35,2.28-1.18,3.07
											c-4.62,4.41-45.69,43.09-65.61,44.23c-0.04,0-0.5,0.02-0.54,0.02l-0.23-3.83l0.13,3.84
											C1122.18,1342.09,1121.95,1342.1,1121.72,1342.1z M1122.29,1338.25h0.05H1122.29z M1164.33,1274.76l-49.72,37.34
											c-5.38,4.03-5.64,10.15-4.23,14.16c1.43,4.08,5.24,8.33,11.77,8.14v0.01c0.13-0.01,0.28-0.01,0.33-0.02
											c14.1-0.81,46.45-28.58,59.5-40.82C1180.07,1280.81,1168.58,1276.08,1164.33,1274.76z" class="color030047 svgShape"></path>
    <path fill="#612879" d="M1131.9,1361.15c20.52,15.96,74.51-40.2,74.51-40.2c-1.89-23.42-16.99-25.68-19.89-25.87
											C1186.52,1295.09,1111.56,1345.33,1131.9,1361.15z" class="colorffffff svgShape"></path>
    <path fill="#1e2030" d="M1140.78,1367.79c-4.19,0-8.01-1.09-11.24-3.61l0,0c-3.4-2.65-5.12-6.3-4.97-10.55
											c0.76-21.56,53.77-57.69,59.81-61.74c0.7-0.47,1.55-0.68,2.39-0.64c2.17,0.14,21.27,2.17,23.47,29.39
											c0.09,1.1-0.3,2.18-1.06,2.97C1204.23,1328.76,1165.87,1367.79,1140.78,1367.79z M1134.26,1358.13
											c12.69,9.89,47.97-17.93,68.16-38.57c-1.91-16.51-11.14-19.83-14.93-20.49c-21.61,14.66-54.77,41.79-55.24,54.84
											C1132.18,1355.7,1132.8,1356.99,1134.26,1358.13L1134.26,1358.13z" class="color030047 svgShape"></path>
    <path fill="#612879" d="M1013.52,1375.9l22.94-104.14c4.15-16.55,20.64-26.86,37.34-23.35l55.1,11.59
											c5.64,1.19,8.93,7.1,6.95,12.52l0,0c-4.81,13.19-18.02,21.37-31.97,19.82l-27.71-3.09l3.68,15.72
											c2.16,9.24,2.81,18.68,1.99,27.99" class="colorffffff svgShape"></path>
    <path fill="#1e2030" d="M1013.52,1379.74c-0.27,0-0.55-0.03-0.83-0.09c-2.07-0.46-3.38-2.51-2.93-4.58l22.94-104.14
											c4.7-18.74,23.09-30.23,41.87-26.28l55.1,11.59c3.78,0.8,7.02,3.19,8.9,6.57c1.88,3.38,2.19,7.4,0.87,11.03
											c-5.44,14.9-20.22,24.07-36.01,22.31l-22.31-2.49l2.44,10.42c2.24,9.59,2.94,19.41,2.08,29.2
											c-0.19,2.12-2.02,3.72-4.16,3.49c-2.11-0.18-3.67-2.05-3.49-4.16c0.79-8.98,0.15-17.99-1.91-26.78l-3.68-15.71
											c-0.28-1.22,0.04-2.49,0.87-3.43c0.83-0.93,2.05-1.39,3.3-1.27l27.71,3.09c12.23,1.38,23.72-5.75,27.94-17.31
											c0.57-1.56,0.44-3.22-0.37-4.67c-0.81-1.45-2.14-2.44-3.76-2.78l-55.1-11.59c-14.75-3.13-29.16,5.91-32.82,20.52
											l-22.91,104.03C1016.87,1378.52,1015.29,1379.74,1013.52,1379.74z" class="color030047 svgShape"></path>
    <path fill="#954c9d" d="M1151.45,1460.11l-125.46,226.38c-13.81,26.41-38.75,45.2-67.94,51.17
											c-6.65,1.35-13.31,2.03-19.93,2.03c-29.07,0-57.08-12.78-76.16-35.59l-137.72-175.92l-14.16-159.5l108.65,7.3
											c28.83,1.99,54.31,19.47,66.55,45.62l57.76,68.84l69.73-132.68L1151.45,1460.11z" class="colorffcc3d svgShape"></path>
    <g opacity=".4" fill="#000000" class="color000000 svgShape">
      <path fill="#612879" d="M1056.06,1636.84c-1.48,0-2.89-0.86-3.52-2.3l-85.12-193.6c-0.86-1.94,0.03-4.21,1.97-5.06
											c1.95-0.85,4.21,0.03,5.06,1.97l85.12,193.6c0.86,1.94-0.03,4.21-1.97,5.06
											C1057.1,1636.74,1056.58,1636.84,1056.06,1636.84z" class="colorffffff svgShape"></path>
    </g>
    <g opacity=".4" fill="#000000" class="color000000 svgShape">
      <path fill="#612879" d="M1092.09,1569.43c-1.48,0-2.89-0.86-3.52-2.3l-86.01-195.62c-0.86-1.94,0.03-4.21,1.97-5.06
											c1.95-0.85,4.21,0.03,5.06,1.97l86.01,195.62c0.86,1.94-0.03,4.21-1.97,5.06
											C1093.13,1569.32,1092.61,1569.43,1092.09,1569.43z" class="colorffffff svgShape"></path>
    </g>
    <g fill="#000000" class="color000000 svgShape">
      <path fill="#1e2030" d="M1025.99,1690.33c-0.63,0-1.27-0.16-1.86-0.48c-1.86-1.03-2.53-3.37-1.5-5.22l123.82-223.43
											l-132.39-97.7l-89.3,168.34c-0.99,1.88-3.31,2.59-5.19,1.59c-1.87-0.99-2.59-3.32-1.59-5.19l91.39-172.28
											c0.53-0.99,1.45-1.7,2.54-1.95c1.09-0.25,2.24-0.01,3.13,0.66l138.68,102.35c1.55,1.15,2.01,3.27,1.08,4.95
											l-125.45,226.39C1028.65,1689.62,1027.34,1690.33,1025.99,1690.33z" class="color030047 svgShape"></path>
    </g>
    <g fill="#000000" class="color000000 svgShape">
      <path fill="#954c9d" d="M873.29,1880.8l-432.78,7.47l-6.61-429.68c-0.7-50.26,39.43-91.62,89.69-92.43
												c41.59-0.67,81.24-1.13,102.01-0.89c68.08,0.82,142.95,8.36,142.95,8.36c47.15,10.5,80.53,51.25,80.53,98.22
												L873.29,1880.8z" class="colorffcc3d svgShape"></path>
      <path fill="#612879" d="M780.98 1886.24c-1.48 0-2.89-.86-3.52-2.3l-218.4-496.69c-.04-.1-.09-.2-.12-.31l-8.9-20.22c-.84-1.95.07-4.21 2.01-5.05 1.96-.84 4.21.07 5.04 2.02l8.99 20.43c.05.1.09.2.12.31l218.28 496.42c.86 1.94-.03 4.21-1.97 5.06C782.02 1886.14 781.49 1886.24 780.98 1886.24zM972.08 1737.52c-1.48 0-2.89-.86-3.52-2.3l-126.25-287.18c-.07-.13-.13-.27-.18-.41l-30.96-70.38c-.86-1.94.03-4.21 1.97-5.06 1.96-.85 4.21.03 5.06 1.97l31 70.46c.02.05.05.09.07.15l126.33 287.36c.86 1.94-.03 4.21-1.97 5.06C973.12 1737.42 972.59 1737.52 972.08 1737.52zM653.71 1888.45c-1.48 0-2.89-.86-3.52-2.3l-23.86-54.27c-.86-1.94.03-4.21 1.97-5.06 1.95-.85 4.21.03 5.06 1.97l23.86 54.27c.86 1.94-.03 4.21-1.97 5.06C654.75 1888.34 654.23 1888.45 653.71 1888.45zM560.73 1676.99c-1.48 0-2.89-.86-3.52-2.3l-68-154.68c-.86-1.94.03-4.21 1.97-5.06 1.96-.85 4.21.03 5.06 1.97l68 154.68c.86 1.94-.03 4.21-1.97 5.06C561.77 1676.88 561.24 1676.99 560.73 1676.99zM867.81 1792.08c-1.48 0-2.89-.86-3.52-2.3l-76.71-174.56c-.06-.1-.11-.21-.16-.32L679.2 1368.78c-.86-1.94.03-4.21 1.97-5.06 1.95-.84 4.21.03 5.06 1.97l108.1 245.84c.06.1.11.21.16.32l76.83 174.84c.85 1.94-.03 4.21-1.97 5.06C868.85 1791.97 868.32 1792.08 867.81 1792.08z" opacity=".4" class="colorffffff svgShape"></path>
      <path fill="#1e2030" d="M873.3,1884.64c-2.02,0-3.71-1.57-3.83-3.61l-21.4-356.12c-0.13-2.12,1.49-3.94,3.6-4.07
												c2.12-0.09,3.94,1.49,4.06,3.61l21.4,356.12c0.13,2.12-1.49,3.94-3.6,4.07C873.45,1884.64,873.38,1884.64,873.3,1884.64z
												" class="color030047 svgShape"></path>
    </g>
    <g fill="#000000" class="color000000 svgShape">
      <path fill="#612879" d="M789.28,1756.28c0.11,2.81-0.68,5.52-2.21,7.76c-2.21,3.35-5.77,6.3-10.11,6.76l-11.35-0.61
												c-0.78-0.18-1.64-0.28-2.49-0.28l-46.83-2.31l49.32,2.6c6.05,1.25,10.64,6.83,10.82,13.2c0.11,2.85-0.75,5.52-2.28,7.79
												c0,0,0,0.07-0.04,0.14c-2.92,4.38-8.11,6.73-13.35,6.48l-45.84-2.03l24.59,1.21c7.3,0.07,13.13,6.3,13.31,13.56
												c0.14,2.85-0.71,5.48-2.21,7.76c-2.14,3.38-5.77,6.3-10.07,6.76l-127.82-3.7l5.82-133.24l0.04,0.03l83.49-20.21
												c8.18-3.77,17.79,0.39,20.5,8.9c1.39,4.38,0.68,9.04-1.64,12.6c-1.39,2.03-3.13,3.67-5.3,4.91l-33.7,14.84l83.95,4.73
												c7.19,0.11,13.06,5.91,13.24,13.13c0.14,2.85-0.71,5.52-2.17,7.72c-2.21,3.42-5.8,6.37-10.14,6.8l-49.15-2.38l58.33,3.91
												C783.26,1743.22,789.1,1749.02,789.28,1756.28z" class="colorffffff svgShape"></path>
      <path fill="#1e2030" d="M740.56,1828.91c-0.04,0-0.08,0-0.11,0l-127.81-3.7c-1.03-0.03-2-0.47-2.7-1.23
												c-0.7-0.76-1.07-1.76-1.03-2.79l5.82-133.24c0.07-1.47,0.96-2.77,2.31-3.36c0.37-0.16,0.76-0.26,1.15-0.3l82.65-20.01
												c4.85-2.11,10.36-2.11,15.18,0.02c4.88,2.16,8.61,6.3,10.22,11.36c1.69,5.33,0.91,11.26-2.08,15.86
												c-1.78,2.61-3.99,4.65-6.61,6.15l-19.44,8.57l68,3.84c9.15,0.13,16.63,7.55,16.86,16.87c0.17,3.44-0.8,6.9-2.81,9.94
												c-0.58,0.91-1.22,1.75-1.9,2.52c8.2,1.1,14.63,8.1,14.85,16.73c0.13,3.62-0.86,7.09-2.87,10.05
												c-3.09,4.69-7.65,7.74-12.53,8.38c1.55,2.58,2.47,5.56,2.56,8.71c0.13,3.34-0.79,6.66-2.64,9.6
												c-0.02,0.06-0.05,0.11-0.08,0.16c-3.82,5.78-10.19,8.95-16.97,8.6l-6.67-0.3c1.67,2.65,2.68,5.78,2.76,9.11
												c0.17,3.4-0.81,6.88-2.84,9.96c-3,4.74-7.82,7.93-12.87,8.47C740.83,1828.9,740.7,1828.91,740.56,1828.91z
												 M616.75,1817.64l123.63,3.58c3.12-0.44,5.65-2.83,7-4.97c1.18-1.8,1.71-3.64,1.62-5.52c-0.14-5.46-4.4-9.86-9.51-9.91
												l-24.74-1.22c-2.12-0.11-3.75-1.9-3.65-4.02c0.1-2.11,1.94-3.83,4.01-3.66l45.83,2.03c3.94,0.21,7.6-1.5,9.74-4.42
												c0.08-0.17,0.18-0.34,0.29-0.51c1.14-1.69,1.7-3.59,1.63-5.51c-0.13-4.5-3.33-8.53-7.5-9.52l-49.01-2.59
												c-2.12-0.11-3.74-1.92-3.63-4.03c0.11-2.12,1.84-3.79,4.03-3.64h0.02l46.82,2.32c0.68-0.14,1.83,0.1,2.81,0.3l10.7,0.57
												c2.59-0.38,5.2-2.24,7.04-5.02c1.12-1.64,1.65-3.53,1.58-5.5c0-0.02,0-0.04,0-0.05c-0.13-5.21-4.3-9.34-9.49-9.42
												l-58.53-3.93c-2.1-0.14-3.7-1.95-3.58-4.05c0.12-2.11,1.9-3.78,4.02-3.62l48.84,2.37c2.61-0.35,5.22-2.22,7.04-5.03
												c0.79-1.2,1.68-3.07,1.56-5.45c-0.13-5.28-4.29-9.41-9.46-9.48l-84.11-4.74c-1.77-0.1-3.25-1.41-3.56-3.15
												c-0.32-1.75,0.61-3.49,2.23-4.2l33.7-14.84c1.27-0.76,2.6-1.98,3.68-3.57c1.7-2.62,2.15-6.11,1.15-9.27
												c-0.96-3.01-3.09-5.38-6-6.66c-2.93-1.29-6.3-1.26-9.23,0.09c-0.23,0.1-0.46,0.19-0.71,0.24l-80.72,19.54L616.75,1817.64
												z" class="color030047 svgShape"></path>
    </g>
    <g fill="#000000" class="color000000 svgShape">
      <path fill="#612879" d="M659.02,1431c-33.35,0-81.39-32.97-87.53-66.75l14.47-112.14l110.67,23.06l9.32,90.72
												C705.95,1365.89,717.24,1423.23,659.02,1431z" class="colorffffff svgShape"></path>
      <path fill="#1e2030" d="M659.03,1434.84c-34.33,0-84.77-33.9-91.3-69.91c-0.07-0.39-0.08-0.79-0.03-1.18l14.47-112.14
												c0.14-1.06,0.71-2.02,1.58-2.64c0.88-0.62,1.96-0.84,3.01-0.63l110.67,23.06c1.64,0.34,2.87,1.71,3.04,3.37l9.32,90.72
												c0.17,0.75,5.1,26.91-9.52,47.31c-8.71,12.15-22.41,19.55-40.72,21.99C659.37,1434.83,659.2,1434.84,659.03,1434.84z
												 M575.39,1364.13c6.27,31.86,52.71,62.85,83.39,63.02c15.97-2.18,27.82-8.5,35.21-18.78
												c12.69-17.65,8.25-41.52,8.2-41.76l-9.08-88.27l-103.86-21.64L575.39,1364.13z" class="color030047 svgShape"></path>
      <path fill="#612879" d="M585.66,1265.29c-29.5-55.78-21.2-121.77-21.2-121.77l131.77-55.81
													c2.82,2.44,79.92,37.44,86.54,134.61c5.42,79.63-56.08,119.18-146.15,91.92" class="colorffffff svgShape"></path>
      <path fill="#1e2030" d="M690.08,1326.69c-16.83,0-35.17-2.91-54.57-8.78c-2.03-0.62-3.18-2.76-2.56-4.79
													c0.62-2.03,2.77-3.18,4.79-2.56c46.52,14.08,86.4,10.49,112.27-10.1c21.25-16.91,31.25-43.85,28.93-77.88
													c-3.81-55.91-33.04-102.14-82.3-130.15c-0.26-0.15-0.5-0.29-0.72-0.42l-127.86,54.15c-1.07,11.75-4.62,68.89,21,117.32
													c0.99,1.88,0.28,4.2-1.6,5.19c-1.88,0.99-4.2,0.28-5.19-1.6c-29.73-56.21-21.95-121.3-21.61-124.04
													c0.17-1.36,1.05-2.52,2.31-3.06l131.77-55.81c1.35-0.58,2.9-0.32,4.01,0.63c0.14,0.08,0.78,0.43,1.69,0.95
													c51.58,29.32,82.18,77.73,86.16,136.3c2.5,36.66-8.5,65.85-31.81,84.41C737.93,1319.9,715.78,1326.69,690.08,1326.69z" class="color030047 svgShape"></path>
      <path fill="#1e2030" d="M647.56,1060.15c0,0-38.37-21.04-59.8-8.45c-21.42,12.59-4.03,50.97-4.03,50.97
												s-32.85-9.73-54.49,26.48s32.59,96.85,32.59,96.85l38.23-18.56c0,0,0.63,6.94,11.58-1.24
												c10.95-8.18,8.03-43.95,20.54-50.71c0,0,102.64,41.39,156.15-33.97c53.51-75.36-19.71-116.99-92.85-109.4
												C622.35,1019.71,647.56,1060.15,647.56,1060.15z" class="color030047 svgShape"></path>
      <path fill="#612879" d="M691.82,1195.74c-7.39-1.58-15.26,1.87-19.97,8.75" class="colorffffff svgShape"></path>
      <path fill="#1e2030" d="M671.85 1208.33c-.75 0-1.5-.21-2.17-.67-1.75-1.2-2.2-3.59-1-5.34 5.6-8.19 15.01-12.25 23.95-10.34 2.08.45 3.4 2.49 2.95 4.56-.44 2.07-2.5 3.42-4.56 2.95-5.89-1.27-12.16 1.56-16 7.17C674.27 1207.74 673.07 1208.33 671.85 1208.33zM740.11 1203.12c1.47 5.64 5.77 9.43 9.59 8.43 3.79-1 5.67-6.41 4.16-12.07-1.51-5.67-5.8-9.46-9.59-8.46C740.45 1192.05 738.6 1197.46 740.11 1203.12zM682.4 1219.41c1.51 5.66 5.8 9.42 9.62 8.42 3.79-.99 5.64-6.4 4.16-12.07-1.51-5.66-5.8-9.45-9.62-8.42C682.77 1208.34 680.92 1213.74 682.4 1219.41z" class="color030047 svgShape"></path>
      <path fill="#612879" d="M749.51,1179.44c-7.39-1.58-15.26,1.87-19.97,8.75" class="colorffffff svgShape"></path>
      <path fill="#1e2030" d="M729.53,1192.04c-0.75,0-1.5-0.22-2.17-0.67c-1.75-1.2-2.2-3.59-1-5.34
													c5.61-8.2,15.01-12.25,23.95-10.34c2.08,0.45,3.4,2.49,2.95,4.56s-2.49,3.4-4.56,2.95c-5.87-1.26-12.15,1.55-15.99,7.17
													C731.96,1191.45,730.76,1192.04,729.53,1192.04z" class="color030047 svgShape"></path>
      <g fill="#000000" class="color000000 svgShape">
        <path fill="#612879" d="M601.79,1208.31c0,0-34.86-30.28-52.65-22.54c-17.79,7.73-6.39,71.55,15.69,76.05
													c22.09,4.51,38.92-5.3,38.92-5.3" class="colorffffff svgShape"></path>
        <path fill="#1e2030" d="M576.64,1266.85c-3.94,0-8.15-0.37-12.57-1.27c-14.76-3.01-24.78-26.51-27.05-48.17
													c-1.92-18.3,2.04-31.44,10.59-35.16c19.43-8.48,52.95,19.9,56.7,23.16c1.6,1.39,1.77,3.82,0.38,5.42
													c-1.39,1.6-3.82,1.78-5.42,0.39c-9.19-7.98-35.84-27.45-48.61-21.92c-5.08,2.21-7.49,13.19-6.01,27.32
													c2.19,20.95,11.59,39.54,20.94,41.45c20.28,4.12,36.07-4.77,36.23-4.86c1.84-1.05,4.18-0.43,5.25,1.41
													c1.06,1.83,0.44,4.18-1.39,5.24C605.08,1260.19,593.41,1266.85,576.64,1266.85z" class="color030047 svgShape"></path>
      </g>
      <g fill="#000000" class="color000000 svgShape">
        <path fill="#1e2030" d="M565.36,1235.15c-1.36,0-2.68-0.72-3.37-2c-2.33-4.27-3.8-9.08-4.25-13.91
												c-0.41-4.39,0.51-7.61,2.79-9.84c1.94-1.9,4.87-2.81,7.82-2.48c2.08,0.24,4.15,1.07,6.33,2.51
												c2.67,1.78,5,4.14,6.74,6.84c1.15,1.79,0.63,4.16-1.15,5.31c-1.78,1.15-4.16,0.64-5.31-1.15
												c-1.17-1.82-2.73-3.41-4.53-4.6c-1.15-0.77-2.12-1.18-2.97-1.28c-0.75-0.08-1.33,0.12-1.57,0.35
												c-0.24,0.23-0.75,1.04-0.51,3.63c0.35,3.81,1.51,7.59,3.34,10.94c1.02,1.86,0.33,4.2-1.53,5.21
												C566.61,1235,565.98,1235.15,565.36,1235.15z" class="color030047 svgShape"></path>
      </g>
      <g fill="#000000" class="color000000 svgShape">
        <path fill="#612879" d="M723.03,1217.84c2.6,8.06,5.2,16.11,7.8,24.17c1.57,4.86,3.15,9.91,2.11,14.76s-5.5,9.45-11.47,9.61
												" class="colorffffff svgShape"></path>
        <path fill="#1e2030" d="M721.47,1270.22c-2.07,0-3.78-1.65-3.84-3.74c-0.06-2.12,1.62-3.89,3.74-3.95
												c4.19-0.11,7.15-3.47,7.82-6.57c0.85-3.94-0.61-8.43-2.01-12.78l-7.8-24.17c-0.65-2.02,0.46-4.19,2.48-4.84
												c2.01-0.64,4.18,0.46,4.83,2.48l7.8,24.17c1.55,4.81,3.48,10.8,2.21,16.75c-1.31,6.12-6.92,12.42-15.12,12.64
												C721.54,1270.22,721.5,1270.22,721.47,1270.22z" class="color030047 svgShape"></path>
      </g>
      <g fill="#000000" class="color000000 svgShape">
        <path fill="#1e2030" d="M693.51,1289.11c-5.37,0-10.77-1.74-15.1-4.91c-4.91-3.59-8.48-9.05-9.8-14.99
											c-0.46-2.07,0.84-4.13,2.91-4.59c2.09-0.46,4.12,0.84,4.58,2.92c0.92,4.15,3.42,7.96,6.84,10.46
											c3.43,2.51,7.81,3.73,12.04,3.36c2.12-0.11,3.98,1.38,4.16,3.49c0.19,2.11-1.38,3.98-3.49,4.16
											C694.95,1289.08,694.23,1289.11,693.51,1289.11z" class="color030047 svgShape"></path>
      </g>
    </g>
    <g fill="#000000" class="color000000 svgShape">
      <path fill="#954c9d" d="M535.24,1482.73l-113.78,185.73l208.39,5.05v156.05c-62.6,1.14-208.39,1.21-283.02,1.1
										c-43.84-0.04-71.67-14.41-90.71-53.92c-30.93-64.31,62.56-235.98,119.79-323.77c14.02-21.53,55.61-79.41,99.99-85.48
										l69.95-2.29l2.14,69.49C548.51,1451.61,544.08,1468.31,535.24,1482.73z" class="colorffcc3d svgShape"></path>
    </g>
    <g opacity=".4" fill="#000000" class="color000000 svgShape">
      <path fill="#612879" d="M629.85,1834.18c-1.48,0-2.89-0.86-3.52-2.3l-69.13-157.19c-0.86-1.94,0.03-4.21,1.97-5.06
										c1.96-0.85,4.21,0.03,5.06,1.97l69.13,157.19c0.86,1.94-0.03,4.21-1.97,5.06C630.89,1834.08,630.37,1834.18,629.85,1834.18
										z" class="colorffffff svgShape"></path>
    </g>
    <g opacity=".4" fill="#000000" class="color000000 svgShape">
      <path fill="#612879" d="M526.42,1890.62c-1.48,0-2.89-0.86-3.52-2.3l-89.04-202.53c-0.04-0.1-0.08-0.19-0.12-0.3l-5.53-12.5
										c-0.86-1.94,0.02-4.21,1.96-5.07c1.95-0.87,4.21,0.01,5.07,1.96l5.65,12.77c0.04,0.11,0.08,0.21,0.12,0.32l88.92,202.26
										c0.86,1.94-0.03,4.21-1.97,5.06C527.46,1890.51,526.93,1890.62,526.42,1890.62z" class="colorffffff svgShape"></path>
    </g>
    <g opacity=".4" fill="#000000" class="color000000 svgShape">
      <path fill="#612879" d="M373.5,1834.57c-1.48,0-2.89-0.86-3.52-2.3L279.2,1625.8c-0.86-1.94,0.03-4.21,1.97-5.06
										c1.95-0.84,4.21,0.03,5.06,1.97l90.78,206.48c0.86,1.94-0.03,4.21-1.97,5.06C374.54,1834.47,374.02,1834.57,373.5,1834.57z
										" class="colorffffff svgShape"></path>
    </g>
    <g opacity=".4" fill="#000000" class="color000000 svgShape">
      <path fill="#612879" d="M426.21,1662.72c-1.48,0-2.89-0.86-3.52-2.3l-73.92-168.12c-0.86-1.94,0.03-4.21,1.97-5.06
										c1.95-0.85,4.21,0.03,5.06,1.97l73.92,168.12c0.86,1.94-0.03,4.21-1.97,5.06C427.25,1662.61,426.72,1662.72,426.21,1662.72
										z" class="colorffffff svgShape"></path>
    </g>
    <g opacity=".4" fill="#000000" class="color000000 svgShape">
      <path fill="#612879" d="M501.34,1541.91c-1.48,0-2.89-0.86-3.52-2.3l-55.39-125.99c-0.86-1.94,0.03-4.21,1.97-5.06
										c1.95-0.85,4.21,0.03,5.06,1.97l55.39,125.99c0.86,1.94-0.03,4.21-1.97,5.06C502.38,1541.8,501.86,1541.91,501.34,1541.91z
										" class="colorffffff svgShape"></path>
    </g>
    <g fill="#000000" class="color000000 svgShape">
      <path fill="#1e2030" d="M396.27,1834.56c-22.88,0-40.68-0.02-49.43-0.03c-2.12-0.01-3.84-1.73-3.84-3.85
											c0-2.12,1.72-3.84,3.84-3.84c0,0,0,0,0.01,0c34.04,0.04,205.07,0.19,279.17-1.04v-148.54l-240.05-4.96
											c-2.12-0.05-3.8-1.8-3.76-3.92c0.05-2.13,1.76-3.77,3.92-3.76l243.81,5.04c2.09,0.05,3.76,1.75,3.76,3.84v156.08
											c0,2.1-1.68,3.8-3.77,3.84C576.15,1834.4,463.97,1834.56,396.27,1834.56z" class="color030047 svgShape"></path>
    </g>
    <g fill="#000000" class="color000000 svgShape">
      <path fill="#1e2030" d="M421.45,1672.3c-0.7,0-1.41-0.19-2.04-0.59c-1.8-1.13-2.34-3.5-1.21-5.3l99.89-159.16
											c1.13-1.8,3.5-2.34,5.3-1.22c1.8,1.13,2.34,3.5,1.21,5.3L424.7,1670.5C423.97,1671.67,422.73,1672.3,421.45,1672.3z" class="color030047 svgShape"></path>
      <path fill="#1e2030" d="M396.27,1834.56c-22.88,0-40.68-0.02-49.43-0.03c-2.12-0.01-3.84-1.73-3.84-3.85
											c0-2.12,1.72-3.84,3.84-3.84c0,0,0,0,0.01,0c34.04,0.04,205.07,0.19,279.17-1.04v-148.54l-240.05-4.96
											c-2.12-0.05-3.8-1.8-3.76-3.92c0.05-2.13,1.76-3.77,3.92-3.76l243.81,5.04c2.09,0.05,3.76,1.75,3.76,3.84v156.08
											c0,2.1-1.68,3.8-3.77,3.84C576.15,1834.4,463.97,1834.56,396.27,1834.56z" class="color030047 svgShape"></path>
    </g>
  </g>
  <g fill="#000000" class="color000000 svgShape">
    <path fill="#87ddfd" d="M2097.55,659.81c0,29.96-24.95,57.44-56.21,61.07c-96.22,11.16-158.88,13.75-277.34-4.04
					c-26.62-4-48.31-24.66-48.31-51.52c0-26.92,21.79-48.77,48.71-48.77c5,0,9.82,0.76,14.38,2.15
					c1.78-31.61,27.93-56.69,59.98-56.69c11.84,0,22.86,3.42,32.17,9.37c10.83-34.52,43.13-59.54,81.2-59.54
					c47,0,85.12,38.13,85.12,85.13c0,2.98-0.13,5.95-0.44,8.8c1.2-0.06,2.47-0.13,3.74-0.13
					C2072.02,605.66,2097.55,629.92,2097.55,659.81z" class="colore6f3fc svgShape"></path>
  </g>
  <g fill="#000000" class="color000000 svgShape">
    <path fill="#87ddfd" d="M990.87,568.85c0,21.81-18.16,41.81-40.91,44.45c-70.03,8.12-115.64,10-201.86-2.94
					c-19.38-2.91-35.16-17.95-35.16-37.5c0-19.59,15.86-35.5,35.45-35.5c3.64,0,7.15,0.55,10.46,1.57
					c1.29-23,20.33-41.26,43.66-41.26c8.62,0,16.64,2.49,23.42,6.82c7.88-25.12,31.39-43.33,59.1-43.33
					c34.21,0,61.96,27.75,61.96,61.96c0,2.17-0.09,4.33-0.32,6.41c0.88-0.05,1.8-0.09,2.72-0.09
					C972.29,529.44,990.87,547.1,990.87,568.85z" class="colore6f3fc svgShape"></path>
  </g>
  <g fill="#000000" class="color000000 svgShape">
    <path fill="#954c9d" d="M2091.99,1401.01l-24.51,15.42c-11.5,7.17-26.62,3.73-33.81-7.69l-15.43-24.51
				c-7.19-11.43-3.75-26.54,7.67-33.73l24.53-15.51c11.42-7.19,26.54-3.75,33.81,7.69l15.41,24.59
				C2106.86,1378.7,2103.42,1393.81,2091.99,1401.01z" class="colorffcc3d svgShape"></path>
  </g>
  <g fill="#000000" class="color000000 svgShape">
    <path fill="#954c9d" d="M376.96,1013.78l-14.06,8.85c-6.6,4.11-15.27,2.14-19.39-4.41l-8.85-14.06c-4.12-6.55-2.15-15.22,4.4-19.35
				l14.07-8.89c6.55-4.12,15.22-2.15,19.39,4.41l8.84,14.1C385.49,1000.99,383.51,1009.66,376.96,1013.78z" class="colorffcc3d svgShape"></path>
  </g>
  <g fill="#000000" class="color000000 svgShape">
    <path fill="#954c9d" d="M1340.39,852.31l-14.06,8.85c-6.6,4.11-15.27,2.14-19.39-4.41l-8.85-14.06c-4.12-6.55-2.15-15.22,4.4-19.35
				l14.07-8.89c6.55-4.12,15.22-2.15,19.39,4.41l8.84,14.1C1348.91,839.51,1346.94,848.18,1340.39,852.31z" class="colorffcc3d svgShape"></path>
  </g>
  <g fill="#000000" class="color000000 svgShape">
    <path fill="#954c9d" d="M1075.01,742.28l-14.06,8.85c-6.6,4.11-15.27,2.14-19.39-4.41l-8.85-14.06c-4.12-6.55-2.15-15.22,4.4-19.35
				l14.07-8.89c6.55-4.12,15.22-2.15,19.39,4.41l8.84,14.1C1083.53,729.49,1081.56,738.15,1075.01,742.28z" class="colorffcc3d svgShape"></path>
  </g>
</svg>
