<svg xmlns="http://www.w3.org/2000/svg" xml:space="preserve" id="University" x="0" y="0" enable-background="new 0 0 300 300" version="1.1" viewBox="0 0 300 300">
  <ellipse cx="147.2" cy="254.1" fill="#87ddfd" rx="132.1" ry="12.3" class="colorfcdfd6 svgShape"></ellipse>
  <path fill="#87ddfd" d="M121.6,204.7C80.8,222,32,203.5,30.3,163.7c-0.5-11.4,0.9-18.6-6-31.1C-1.1,87.1,30.8,56.7,68.2,56    c39.8-0.7,31.7-24.8,74.3-22.3c44.5,2.6,39.1,26.2,75.8,29.2c30.8,2.6,55,16.6,54.7,64.1c-0.3,49.8-28.2,74.9-84,60.9    C159.2,180.5,127.5,202.3,121.6,204.7z" class="colorfcdfd6 svgShape"></path>
  <rect width="104.7" height="161.4" x="25.7" y="88.9" fill="#ffffff" stroke="#e04ff0" stroke-miterlimit="10" stroke-width=".689" class="colorffffff svgShape colorStrokef05d4f svgStroke"></rect>
  <rect width="85.9" height="142.1" x="35.1" y="98.5" fill="#ffffff" stroke="#e04ff0" stroke-miterlimit="10" stroke-width=".689" class="colorffffff svgShape colorStrokef05d4f svgStroke"></rect>
  <line x1="45.4" x2="113.6" y1="117.2" y2="117.2" fill="none" stroke="#e04ff0" stroke-linecap="round" stroke-linejoin="round" stroke-miterlimit="10" stroke-width=".689" class="colorStrokef05d4f svgStroke"></line>
  <line x1="56.1" x2="102.9" y1="127.8" y2="127.8" fill="none" stroke="#e04ff0" stroke-linecap="round" stroke-linejoin="round" stroke-miterlimit="10" stroke-width=".689" class="colorStrokef05d4f svgStroke"></line>
  <line x1="45.4" x2="113.6" y1="138.6" y2="138.6" fill="none" stroke="#e04ff0" stroke-linecap="round" stroke-linejoin="round" stroke-miterlimit="10" stroke-width=".689" class="colorStrokef05d4f svgStroke"></line>
  <g fill="#1e2030" class="color000000 svgShape">
    <rect width="199.4" height="98.6" x="56.8" y="152.8" fill="#ec8af7" class="colorf7a78a svgShape"></rect>
    <polygon fill="#f1a8f9" points="237.4 126.2 75.7 126.2 55.2 152.8 257.9 152.8" class="colorf9b7a8 svgShape"></polygon>
    <path fill="#87ddfd" d="M75.3 188.3h-11v-14c0-1.9 1-3.6 2.4-4.6.9-.6 1.9-.9 3.1-.9h0c1.1 0 2.2.3 3.1.9 1.5 1 2.4 2.7 2.4 4.6V188.3zM94.9 188.3h-11v-14c0-1.9 1-3.6 2.4-4.6.9-.6 1.9-.9 3.1-.9h0c1.1 0 2.2.3 3.1.9 1.5 1 2.4 2.7 2.4 4.6V188.3zM103.4 188.3h11v-14c0-1.9-1-3.6-2.4-4.6-.9-.6-1.9-.9-3.1-.9h0c-1.1 0-2.2.3-3.1.9-1.5 1-2.4 2.7-2.4 4.6V188.3zM75.3 230.3h-11v-14c0-1.9 1-3.6 2.4-4.6.9-.6 1.9-.9 3.1-.9h0c1.1 0 2.2.3 3.1.9 1.5 1 2.4 2.7 2.4 4.6V230.3zM94.9 230.3h-11v-14c0-1.9 1-3.6 2.4-4.6.9-.6 1.9-.9 3.1-.9h0c1.1 0 2.2.3 3.1.9 1.5 1 2.4 2.7 2.4 4.6V230.3zM103.4 230.3h11v-14c0-1.9-1-3.6-2.4-4.6-.9-.6-1.9-.9-3.1-.9h0c-1.1 0-2.2.3-3.1.9-1.5 1-2.4 2.7-2.4 4.6V230.3z" class="colorfcdfd6 svgShape"></path>
    <g fill="#1e2030" class="color000000 svgShape">
      <path fill="#87ddfd" d="M239 188.3h11v-14c0-1.9-1-3.6-2.4-4.6-.9-.6-1.9-.9-3.1-.9h0c-1.1 0-2.2.3-3.1.9-1.5 1-2.4 2.7-2.4 4.6V188.3zM219.5 188.3h11v-14c0-1.9-1-3.6-2.4-4.6-.9-.6-1.9-.9-3.1-.9h0c-1.1 0-2.2.3-3.1.9-1.5 1-2.4 2.7-2.4 4.6V188.3zM210.9 188.3h-11v-14c0-1.9 1-3.6 2.4-4.6.9-.6 1.9-.9 3.1-.9h0c1.1 0 2.2.3 3.1.9 1.5 1 2.4 2.7 2.4 4.6V188.3z" class="colorfcdfd6 svgShape"></path>
    </g>
    <g fill="#1e2030" class="color000000 svgShape">
      <path fill="#87ddfd" d="M239 230.3h11v-14c0-1.9-1-3.6-2.4-4.6-.9-.6-1.9-.9-3.1-.9h0c-1.1 0-2.2.3-3.1.9-1.5 1-2.4 2.7-2.4 4.6V230.3zM219.5 230.3h11v-14c0-1.9-1-3.6-2.4-4.6-.9-.6-1.9-.9-3.1-.9h0c-1.1 0-2.2.3-3.1.9-1.5 1-2.4 2.7-2.4 4.6V230.3zM210.9 230.3h-11v-14c0-1.9 1-3.6 2.4-4.6.9-.6 1.9-.9 3.1-.9h0c1.1 0 2.2.3 3.1.9 1.5 1 2.4 2.7 2.4 4.6V230.3z" class="colorfcdfd6 svgShape"></path>
    </g>
    <g fill="#1e2030" class="color000000 svgShape">
      <rect width="37.2" height="54.2" x="137.9" y="92.4" fill="#e873f5" class="colorf59073 svgShape"></rect>
      <polygon fill="#ec8af7" points="156.2 78.2 175.2 92.4 137.9 92.4" class="colorf7a78a svgShape"></polygon>
      <g fill="#1e2030" class="color000000 svgShape">
        <circle cx="156.6" cy="104.5" r="7.7" fill="none" stroke="#ffffff" stroke-miterlimit="10" stroke-width=".345" class="colorStrokeffffff svgStroke"></circle>
        <polyline fill="none" stroke="#fff" stroke-miterlimit="10" stroke-width=".345" points="156.6 100.5 156.6 106.5 154.8 108"></polyline>
      </g>
    </g>
    <g fill="#1e2030" class="color000000 svgShape">
      <rect width="76.9" height="100.2" x="118.1" y="151.1" fill="#e873f5" class="colorf59073 svgShape"></rect>
      <polygon fill="#ec8af7" points="155.8 124.8 195 151.1 118.1 151.1" class="colorf7a78a svgShape"></polygon>
      <polygon fill="#ec8af7" points="176.8 204.5 182.4 213.6 182.4 251.3 176.8 251.3" class="colorf7a78a svgShape"></polygon>
      <polygon fill="#ec8af7" points="135.4 204.5 129.8 213.6 129.8 251.3 135.4 251.3" class="colorf7a78a svgShape"></polygon>
      <path fill="#87ddfd" d="M141.1 168.4h-6.8v-7.7c0-1.1.6-2 1.5-2.5.5-.3 1.2-.5 1.9-.5h0c.7 0 1.4.2 1.9.5.9.5 1.5 1.5 1.5 2.5V168.4zM160 168.4h-6.8v-7.7c0-1.1.6-2 1.5-2.5.5-.3 1.2-.5 1.9-.5h0c.7 0 1.4.2 1.9.5.9.5 1.5 1.5 1.5 2.5V168.4zM172 168.4h6.8v-7.7c0-1.1-.6-2-1.5-2.5-.5-.3-1.2-.5-1.9-.5l0 0c-.7 0-1.4.2-1.9.5-.9.5-1.5 1.5-1.5 2.5V168.4z" class="colorfcdfd6 svgShape"></path>
      <g fill="#1e2030" class="color000000 svgShape">
        <rect width="41.4" height="41.4" x="135.4" y="204.5" fill="#954c9d" class="colord9735a svgShape"></rect>
        <polygon fill="#87ddfd" points="156.5 193.7 176.8 204.5 135.4 204.5" class="colorfcdfd6 svgShape"></polygon>
        <rect width=".8" height="41.4" x="155.7" y="204.5" fill="#e873f5" class="colorf59073 svgShape"></rect>
      </g>
      <rect width="52.1" height="2.7" x="130.3" y="248.6" fill="#954c9d" class="colord9735a svgShape"></rect>
      <rect width="49.1" height="2.7" x="131.6" y="245.9" fill="#954c9d" class="colord9735a svgShape"></rect>
      <g fill="#1e2030" class="color000000 svgShape">
        <path fill="#87ddfd" d="M141.7 189.9h-6.8v-7.7c0-1.1.6-2 1.5-2.5.5-.3 1.2-.5 1.9-.5h0c.7 0 1.4.2 1.9.5.9.5 1.5 1.5 1.5 2.5V189.9zM160.6 189.9h-6.8v-7.7c0-1.1.6-2 1.5-2.5.5-.3 1.2-.5 1.9-.5l0 0c.7 0 1.4.2 1.9.5.9.5 1.5 1.5 1.5 2.5V189.9zM172.7 189.9h6.8v-7.7c0-1.1-.6-2-1.5-2.5-.5-.3-1.2-.5-1.9-.5h0c-.7 0-1.4.2-1.9.5-.9.5-1.5 1.5-1.5 2.5V189.9z" class="colorfcdfd6 svgShape"></path>
      </g>
    </g>
  </g>
  <g fill="#1e2030" class="color000000 svgShape">
    <polygon fill="#4d76a8" points="256 151 264.1 127.8 227.8 123 219 147.6" class="color4d5ca8 svgShape"></polygon>
    <polygon fill="#6189ba" points="219 147.6 227.8 123 196.4 104 188.6 126.1" class="color6178ba svgShape"></polygon>
    <polygon fill="#205fac" points="290.9 131.9 228.4 124 173 90.5 236.1 99.3" class="color445195 svgShape"></polygon>
    <path fill="#205fac" d="M277.2,126.3c-2,4.1-3.2,8.4-3.7,12.9c-0.5,4.7,0.4,9.1,1,13.7c0.5,4.5,0.1,8.5-2.9,12.1     c-2.5,3-5.7,5.5-7.8,8.9c-1.2,1.9,1.8,3.7,3,1.8c2.1-3.4,5.3-5.8,7.8-8.8c2.6-3.3,3.7-7,3.6-11.2c-0.1-4.5-1.4-8.8-1.3-13.3     c0-4.9,1.2-9.8,3.4-14.3C281.2,126,278.2,124.2,277.2,126.3L277.2,126.3z" class="color445195 svgShape"></path>
    <path fill="#c93cd9" d="M264,172.6l-7.1,7.7c-1.1,1.2-0.9,3.1,0.4,4l0.9,0.7c1.3,1,3.2,0.6,4-0.8l5.4-9.1c0.6-1,0.3-2.2-0.6-2.9    c0,0,0,0,0,0C266,171.7,264.8,171.8,264,172.6z" class="colord9873c svgShape"></path>
  </g>
  <g fill="#1e2030" class="color000000 svgShape">
    <polygon fill="#612879" points="19.5 144 17.6 135.1 9.1 138.4 28.1 103.8 38.4 109.5" class="colora3342b svgShape"></polygon>
    <polygon fill="#612879" points="43 144 44.8 135.1 53.4 138.4 34.4 103.8 24.1 109.5" class="colora3342b svgShape"></polygon>
    <polygon fill="#e04ff0" points="48.1 113.8 50.7 109.3 49.3 106.9 50 104.2 48.1 102.3 48.1 99.5 43.6 96.9 41 92.4 38.2 92.4 36.3 90.5 33.6 91.2 31.2 89.8 26.7 92.4 21.5 92.4 20.1 94.8 17.5 95.5 16.8 98.2 14.4 99.5 14.4 104.7 11.8 109.3 13.2 111.6 12.4 114.3 14.4 116.2 14.4 119 18.9 121.6 21.5 126.1 24.3 126.1 26.2 128.1 28.9 127.3 31.2 128.7 35.8 126.1 41 126.1 42.4 123.7 45 123 45.7 120.4 48.1 119" class="colorf05d4f svgShape"></polygon>
    <circle cx="31.2" cy="109.3" r="13.9" fill="none" stroke="#ffffff" stroke-linecap="round" stroke-linejoin="round" stroke-miterlimit="10" stroke-width=".345" class="colorStrokeffffff svgStroke"></circle>
    <circle cx="31.2" cy="109.3" r="10.6" fill="#e513fc" class="colorfcb813 svgShape"></circle>
    <circle cx="31.2" cy="109.3" r="7.5" fill="#612879" class="colora3342b svgShape"></circle>
  </g>
  <g fill="#1e2030" class="color000000 svgShape">
    <rect width="108.2" height="16.1" x="156.8" y="239.2" fill="#4d76a8" class="color4d5ca8 svgShape"></rect>
    <rect width="53.6" height="3.5" x="168" y="245.3" fill="#ffffff" class="colorffffff svgShape"></rect>
    <rect width="19.3" height="3.5" x="234" y="245.5" fill="#ffffff" class="colorffffff svgShape"></rect>
    <path fill="#612879" d="M268.6,239.2H168.5v-16.1h100.2c4.5,0,8.1,3.6,8.1,8.1v0C276.7,235.6,273.1,239.2,268.6,239.2z" class="colora3342b svgShape"></path>
    <path fill="#ffffff" d="M268,236.4h-96.8v-10.6H268c2.8,0,5,2.2,5,5v0.6C273,234.2,270.8,236.4,268,236.4z" class="colorffffff svgShape"></path>
    <line x1="171.3" x2="269.7" y1="227.9" y2="227.9" fill="none" stroke="#ec8af7" stroke-miterlimit="10" stroke-width=".345" class="colorStrokef7a78a svgStroke"></line>
    <line x1="171.3" x2="269.7" y1="230.3" y2="230.3" fill="none" stroke="#ec8af7" stroke-miterlimit="10" stroke-width=".345" class="colorStrokef7a78a svgStroke"></line>
    <line x1="171.3" x2="269.7" y1="232.6" y2="232.6" fill="none" stroke="#ec8af7" stroke-miterlimit="10" stroke-width=".345" class="colorStrokef7a78a svgStroke"></line>
  </g>
  <g fill="#1e2030" class="color000000 svgShape">
    <path fill="#205fac" d="M44.6,210.1c-0.1-4.7-3-8.5-6.5-8.5c-3.5,0-6.4,3.8-6.5,8.5H44.6z" class="color445195 svgShape"></path>
    <path fill="#6189ba" d="M38,201.7h53.9c0,0,3.9,1.6,4.6,14.8c0.7,13.1-4.6,19.7-2.1,31c2.5,11.3,3.7,11.5,3.7,11.5H44    c0,0-6.9-5.6-4.4-23s2.6-25.8,1.9-29.1C40.9,203.5,38,201.7,38,201.7z" class="color6178ba svgShape"></path>
    <path fill="#205fac" d="M44.1,258.9h55.7c2.3,0,4.1-2.5,4.1-5.5v-3.2H44.1l1.2,2.8C46.2,255.1,45.7,257.7,44.1,258.9z" class="color445195 svgShape"></path>
    <line x1="49.1" x2="90.5" y1="211.2" y2="211.2" fill="none" stroke="#ffffff" stroke-linecap="round" stroke-linejoin="round" stroke-miterlimit="10" stroke-width=".345" class="colorStrokeffffff svgStroke"></line>
    <line x1="49.1" x2="90.5" y1="217.5" y2="217.5" fill="none" stroke="#ffffff" stroke-linecap="round" stroke-linejoin="round" stroke-miterlimit="10" stroke-width=".345" class="colorStrokeffffff svgStroke"></line>
    <line x1="49" x2="90.5" y1="223.6" y2="223.6" fill="none" stroke="#ffffff" stroke-linecap="round" stroke-linejoin="round" stroke-miterlimit="10" stroke-width=".345" class="colorStrokeffffff svgStroke"></line>
    <line x1="49.1" x2="90.5" y1="230.3" y2="230.3" fill="none" stroke="#ffffff" stroke-linecap="round" stroke-linejoin="round" stroke-miterlimit="10" stroke-width=".345" class="colorStrokeffffff svgStroke"></line>
    <line x1="49" x2="90.5" y1="236.3" y2="236.3" fill="none" stroke="#ffffff" stroke-linecap="round" stroke-linejoin="round" stroke-miterlimit="10" stroke-width=".345" class="colorStrokeffffff svgStroke"></line>
    <line x1="47.9" x2="89.4" y1="242.9" y2="242.9" fill="none" stroke="#ffffff" stroke-linecap="round" stroke-linejoin="round" stroke-miterlimit="10" stroke-width=".345" class="colorStrokeffffff svgStroke"></line>
  </g>
</svg>
